G04 #@! TF.GenerationSoftware,KiCad,Pcbnew,(2018-02-16 revision c95340fba)-makepkg*
G04 #@! TF.CreationDate,2018-04-24T18:33:14+02:00*
G04 #@! TF.ProjectId,lmd,6C6D642E6B696361645F706362000000,rev?*
G04 #@! TF.SameCoordinates,Original*
G04 #@! TF.FileFunction,Other,Fab,Bot*
%FSLAX46Y46*%
G04 Gerber Fmt 4.6, Leading zero omitted, Abs format (unit mm)*
G04 Created by KiCad (PCBNEW (2018-02-16 revision c95340fba)-makepkg) date 04/24/18 18:33:14*
%MOMM*%
%LPD*%
G01*
G04 APERTURE LIST*
%ADD10C,0.100000*%
G04 APERTURE END LIST*
D10*
X103195795Y-110316974D02*
G75*
G02X104114800Y-110472400I399005J-435426D01*
G01*
X103183113Y-113420639D02*
G75*
G02X103244800Y-110272400I1351687J1548239D01*
G01*
X104076537Y-110430067D02*
G75*
G02X104124800Y-113412400I-1901737J-1522333D01*
G01*
X104168795Y-113367932D02*
G75*
G02X103194800Y-113422400I-513995J455532D01*
G01*
X103186101Y-115329428D02*
G75*
G02X104114800Y-115472400I408699J-432972D01*
G01*
X103183113Y-118420639D02*
G75*
G02X103244800Y-115272400I1351687J1548239D01*
G01*
X104076537Y-115430067D02*
G75*
G02X104124800Y-118412400I-1901737J-1522333D01*
G01*
X104158796Y-118378020D02*
G75*
G02X103194800Y-118422400I-503996J455620D01*
G01*
X104158796Y-123458020D02*
G75*
G02X103194800Y-123502400I-503996J455620D01*
G01*
X104076537Y-120510067D02*
G75*
G02X104124800Y-123492400I-1901737J-1522333D01*
G01*
X103183113Y-123500639D02*
G75*
G02X103244800Y-120352400I1351687J1548239D01*
G01*
X103186101Y-120409428D02*
G75*
G02X104114800Y-120552400I408699J-432972D01*
G01*
X107994800Y-115252400D02*
X107994800Y-118552400D01*
X107994800Y-114872400D02*
X107994800Y-115252400D01*
X107994800Y-118932400D02*
X107994800Y-118552400D01*
X107994800Y-113552400D02*
X107994800Y-110242400D01*
X107994800Y-113932400D02*
X107994800Y-113552400D01*
X107994800Y-109862400D02*
X107994800Y-110242400D01*
X103924800Y-110402400D02*
X103294800Y-113442400D01*
X103794800Y-110272400D02*
X103164800Y-113322400D01*
X103924800Y-115402400D02*
X103294800Y-118452400D01*
X103794800Y-115272400D02*
X103164800Y-118322400D01*
X102274800Y-113932400D02*
X102274800Y-109862400D01*
X104814800Y-109862400D02*
X102274800Y-109862400D01*
X104814800Y-113932400D02*
X104814800Y-109862400D01*
X104814800Y-113932400D02*
X102274800Y-113932400D01*
X104814800Y-118932400D02*
X104814800Y-114872400D01*
X102274800Y-118932400D02*
X104814800Y-118932400D01*
X102274800Y-114872400D02*
X102274800Y-118932400D01*
X104814800Y-114872400D02*
X102274800Y-114872400D01*
X105064800Y-109332400D02*
X102024800Y-109332400D01*
X105064800Y-109332400D02*
X105064800Y-119492400D01*
X107604800Y-109332400D02*
X105064800Y-109332400D01*
X114464800Y-109332400D02*
X107604800Y-109332400D01*
X108754800Y-118552400D02*
X108754800Y-118172400D01*
X108754800Y-115252400D02*
X108754800Y-115632400D01*
X108754800Y-113552400D02*
X108754800Y-113172400D01*
X108754800Y-110242400D02*
X108754800Y-110632400D01*
X111924800Y-110242400D02*
X108754800Y-110242400D01*
X111924800Y-113552400D02*
X111924800Y-110242400D01*
X111924800Y-113552400D02*
X108754800Y-113552400D01*
X111924800Y-115252400D02*
X108754800Y-115252400D01*
X111924800Y-118552400D02*
X111924800Y-115252400D01*
X111924800Y-118552400D02*
X108754800Y-118552400D01*
X112564800Y-109862400D02*
X114464800Y-109862400D01*
X112564800Y-113932400D02*
X107994800Y-113932400D01*
X112564800Y-113932400D02*
X112564800Y-109862400D01*
X112564800Y-118932400D02*
X114464800Y-118932400D01*
X112564800Y-114872400D02*
X107994800Y-114872400D01*
X112564800Y-114872400D02*
X112564800Y-118932400D01*
X114464800Y-109862400D02*
X114464800Y-113932400D01*
X114464800Y-109332400D02*
X114464800Y-109862400D01*
X107994800Y-109862400D02*
X112564800Y-109862400D01*
X114464800Y-113932400D02*
X114464800Y-114872400D01*
X114464800Y-113932400D02*
X112564800Y-113932400D01*
X114464800Y-118932400D02*
X114464800Y-119492400D01*
X114464800Y-114872400D02*
X114464800Y-118932400D01*
X107994800Y-118932400D02*
X112564800Y-118932400D01*
X114464800Y-114872400D02*
X112564800Y-114872400D01*
X112304800Y-119932400D02*
X113454800Y-119932400D01*
X113454800Y-119932400D02*
X114464800Y-119932400D01*
X110784800Y-115632400D02*
X107994800Y-115632400D01*
X107994800Y-115632400D02*
X107994800Y-118172400D01*
X110784800Y-118172400D02*
X107994800Y-118172400D01*
X110784800Y-115632400D02*
X110784800Y-118172400D01*
X110784800Y-110632400D02*
X107994800Y-110632400D01*
X107994800Y-110632400D02*
X107994800Y-113172400D01*
X110784800Y-113172400D02*
X107994800Y-113172400D01*
X110784800Y-110632400D02*
X110784800Y-113172400D01*
X110784800Y-120712400D02*
X110784800Y-123252400D01*
X110784800Y-123252400D02*
X107994800Y-123252400D01*
X107994800Y-120712400D02*
X107994800Y-123252400D01*
X110784800Y-120712400D02*
X107994800Y-120712400D01*
X102024800Y-124572400D02*
X105064800Y-124572400D01*
X102024800Y-124572400D02*
X102024800Y-125082400D01*
X102024800Y-125082400D02*
X106844800Y-125082400D01*
X106844800Y-125082400D02*
X106594800Y-124572400D01*
X113704800Y-125082400D02*
X113454800Y-124572400D01*
X113454800Y-124572400D02*
X114464800Y-124572400D01*
X112054800Y-125082400D02*
X112304800Y-124572400D01*
X112304800Y-124572400D02*
X113454800Y-124572400D01*
X112054800Y-125082400D02*
X113704800Y-125082400D01*
X114464800Y-119952400D02*
X112564800Y-119952400D01*
X107994800Y-124012400D02*
X112564800Y-124012400D01*
X114464800Y-124012400D02*
X114464800Y-124572400D01*
X112564800Y-119952400D02*
X112564800Y-124012400D01*
X112564800Y-124012400D02*
X114464800Y-124012400D01*
X111924800Y-123632400D02*
X108754800Y-123632400D01*
X111924800Y-123632400D02*
X111924800Y-120332400D01*
X111924800Y-120332400D02*
X108754800Y-120332400D01*
X108754800Y-120332400D02*
X108754800Y-120712400D01*
X108754800Y-123632400D02*
X108754800Y-123252400D01*
X106594800Y-124572400D02*
X107604800Y-124572400D01*
X107604800Y-124572400D02*
X112304800Y-124572400D01*
X105064800Y-124572400D02*
X106594800Y-124572400D01*
X104814800Y-119952400D02*
X102274800Y-119952400D01*
X102274800Y-119952400D02*
X102274800Y-124012400D01*
X102274800Y-124012400D02*
X104814800Y-124012400D01*
X104814800Y-124012400D02*
X104814800Y-119952400D01*
X103794800Y-120352400D02*
X103164800Y-123402400D01*
X103924800Y-120482400D02*
X103294800Y-123532400D01*
X107994800Y-124012400D02*
X107994800Y-123632400D01*
X107994800Y-119952400D02*
X107994800Y-120332400D01*
X107994800Y-120332400D02*
X107994800Y-123632400D01*
X102024800Y-109332400D02*
X102024800Y-124572400D01*
X105064800Y-119492400D02*
X105064800Y-124512400D01*
X114464800Y-124002400D02*
X114464800Y-119492400D01*
X112244800Y-119932400D02*
X107994800Y-119932400D01*
X107604800Y-124572400D02*
X107604800Y-109392400D01*
X127635000Y-111125000D02*
X127000000Y-110490000D01*
X127635000Y-123190000D02*
X127635000Y-111125000D01*
X125095000Y-123190000D02*
X127635000Y-123190000D01*
X125095000Y-110490000D02*
X125095000Y-123190000D01*
X127000000Y-110490000D02*
X125095000Y-110490000D01*
X115697657Y-115367161D02*
X115716704Y-115348114D01*
X115735752Y-115290971D01*
X115735752Y-115252876D01*
X115716704Y-115195733D01*
X115678609Y-115157638D01*
X115640514Y-115138590D01*
X115564323Y-115119542D01*
X115507180Y-115119542D01*
X115430990Y-115138590D01*
X115392895Y-115157638D01*
X115354800Y-115195733D01*
X115335752Y-115252876D01*
X115335752Y-115290971D01*
X115354800Y-115348114D01*
X115373847Y-115367161D01*
X115735752Y-115595733D02*
X115716704Y-115557638D01*
X115697657Y-115538590D01*
X115659561Y-115519542D01*
X115545276Y-115519542D01*
X115507180Y-115538590D01*
X115488133Y-115557638D01*
X115469085Y-115595733D01*
X115469085Y-115652876D01*
X115488133Y-115690971D01*
X115507180Y-115710019D01*
X115545276Y-115729066D01*
X115659561Y-115729066D01*
X115697657Y-115710019D01*
X115716704Y-115690971D01*
X115735752Y-115652876D01*
X115735752Y-115595733D01*
X115469085Y-115900495D02*
X115735752Y-115900495D01*
X115507180Y-115900495D02*
X115488133Y-115919542D01*
X115469085Y-115957638D01*
X115469085Y-116014780D01*
X115488133Y-116052876D01*
X115526228Y-116071923D01*
X115735752Y-116071923D01*
X115469085Y-116262400D02*
X115735752Y-116262400D01*
X115507180Y-116262400D02*
X115488133Y-116281447D01*
X115469085Y-116319542D01*
X115469085Y-116376685D01*
X115488133Y-116414780D01*
X115526228Y-116433828D01*
X115735752Y-116433828D01*
X115773847Y-116529066D02*
X115773847Y-116833828D01*
X115335752Y-117005257D02*
X115335752Y-117043352D01*
X115354800Y-117081447D01*
X115373847Y-117100495D01*
X115411942Y-117119542D01*
X115488133Y-117138590D01*
X115583371Y-117138590D01*
X115659561Y-117119542D01*
X115697657Y-117100495D01*
X115716704Y-117081447D01*
X115735752Y-117043352D01*
X115735752Y-117005257D01*
X115716704Y-116967161D01*
X115697657Y-116948114D01*
X115659561Y-116929066D01*
X115583371Y-116910019D01*
X115488133Y-116910019D01*
X115411942Y-116929066D01*
X115373847Y-116948114D01*
X115354800Y-116967161D01*
X115335752Y-117005257D01*
X115735752Y-117519542D02*
X115735752Y-117290971D01*
X115735752Y-117405257D02*
X115335752Y-117405257D01*
X115392895Y-117367161D01*
X115430990Y-117329066D01*
X115450038Y-117290971D01*
X115735752Y-117652876D02*
X115469085Y-117862400D01*
X115469085Y-117652876D02*
X115735752Y-117862400D01*
X115335752Y-118090971D02*
X115335752Y-118129066D01*
X115354800Y-118167161D01*
X115373847Y-118186209D01*
X115411942Y-118205257D01*
X115488133Y-118224304D01*
X115583371Y-118224304D01*
X115659561Y-118205257D01*
X115697657Y-118186209D01*
X115716704Y-118167161D01*
X115735752Y-118129066D01*
X115735752Y-118090971D01*
X115716704Y-118052876D01*
X115697657Y-118033828D01*
X115659561Y-118014780D01*
X115583371Y-117995733D01*
X115488133Y-117995733D01*
X115411942Y-118014780D01*
X115373847Y-118033828D01*
X115354800Y-118052876D01*
X115335752Y-118090971D01*
X115335752Y-118357638D02*
X115335752Y-118605257D01*
X115488133Y-118471923D01*
X115488133Y-118529066D01*
X115507180Y-118567161D01*
X115526228Y-118586209D01*
X115564323Y-118605257D01*
X115659561Y-118605257D01*
X115697657Y-118586209D01*
X115716704Y-118567161D01*
X115735752Y-118529066D01*
X115735752Y-118414780D01*
X115716704Y-118376685D01*
X115697657Y-118357638D01*
X127860238Y-124392857D02*
X127879285Y-124411904D01*
X127936428Y-124430952D01*
X127974523Y-124430952D01*
X128031666Y-124411904D01*
X128069761Y-124373809D01*
X128088809Y-124335714D01*
X128107857Y-124259523D01*
X128107857Y-124202380D01*
X128088809Y-124126190D01*
X128069761Y-124088095D01*
X128031666Y-124050000D01*
X127974523Y-124030952D01*
X127936428Y-124030952D01*
X127879285Y-124050000D01*
X127860238Y-124069047D01*
X127631666Y-124430952D02*
X127669761Y-124411904D01*
X127688809Y-124392857D01*
X127707857Y-124354761D01*
X127707857Y-124240476D01*
X127688809Y-124202380D01*
X127669761Y-124183333D01*
X127631666Y-124164285D01*
X127574523Y-124164285D01*
X127536428Y-124183333D01*
X127517380Y-124202380D01*
X127498333Y-124240476D01*
X127498333Y-124354761D01*
X127517380Y-124392857D01*
X127536428Y-124411904D01*
X127574523Y-124430952D01*
X127631666Y-124430952D01*
X127326904Y-124164285D02*
X127326904Y-124430952D01*
X127326904Y-124202380D02*
X127307857Y-124183333D01*
X127269761Y-124164285D01*
X127212619Y-124164285D01*
X127174523Y-124183333D01*
X127155476Y-124221428D01*
X127155476Y-124430952D01*
X126965000Y-124164285D02*
X126965000Y-124430952D01*
X126965000Y-124202380D02*
X126945952Y-124183333D01*
X126907857Y-124164285D01*
X126850714Y-124164285D01*
X126812619Y-124183333D01*
X126793571Y-124221428D01*
X126793571Y-124430952D01*
X126698333Y-124469047D02*
X126393571Y-124469047D01*
X126222142Y-124030952D02*
X126184047Y-124030952D01*
X126145952Y-124050000D01*
X126126904Y-124069047D01*
X126107857Y-124107142D01*
X126088809Y-124183333D01*
X126088809Y-124278571D01*
X126107857Y-124354761D01*
X126126904Y-124392857D01*
X126145952Y-124411904D01*
X126184047Y-124430952D01*
X126222142Y-124430952D01*
X126260238Y-124411904D01*
X126279285Y-124392857D01*
X126298333Y-124354761D01*
X126317380Y-124278571D01*
X126317380Y-124183333D01*
X126298333Y-124107142D01*
X126279285Y-124069047D01*
X126260238Y-124050000D01*
X126222142Y-124030952D01*
X125707857Y-124430952D02*
X125936428Y-124430952D01*
X125822142Y-124430952D02*
X125822142Y-124030952D01*
X125860238Y-124088095D01*
X125898333Y-124126190D01*
X125936428Y-124145238D01*
X125574523Y-124430952D02*
X125365000Y-124164285D01*
X125574523Y-124164285D02*
X125365000Y-124430952D01*
X125136428Y-124030952D02*
X125098333Y-124030952D01*
X125060238Y-124050000D01*
X125041190Y-124069047D01*
X125022142Y-124107142D01*
X125003095Y-124183333D01*
X125003095Y-124278571D01*
X125022142Y-124354761D01*
X125041190Y-124392857D01*
X125060238Y-124411904D01*
X125098333Y-124430952D01*
X125136428Y-124430952D01*
X125174523Y-124411904D01*
X125193571Y-124392857D01*
X125212619Y-124354761D01*
X125231666Y-124278571D01*
X125231666Y-124183333D01*
X125212619Y-124107142D01*
X125193571Y-124069047D01*
X125174523Y-124050000D01*
X125136428Y-124030952D01*
X124641190Y-124030952D02*
X124831666Y-124030952D01*
X124850714Y-124221428D01*
X124831666Y-124202380D01*
X124793571Y-124183333D01*
X124698333Y-124183333D01*
X124660238Y-124202380D01*
X124641190Y-124221428D01*
X124622142Y-124259523D01*
X124622142Y-124354761D01*
X124641190Y-124392857D01*
X124660238Y-124411904D01*
X124698333Y-124430952D01*
X124793571Y-124430952D01*
X124831666Y-124411904D01*
X124850714Y-124392857D01*
M02*
