G04 #@! TF.GenerationSoftware,KiCad,Pcbnew,(2018-02-16 revision c95340fba)-makepkg*
G04 #@! TF.CreationDate,2018-04-24T18:33:14+02:00*
G04 #@! TF.ProjectId,lmd,6C6D642E6B696361645F706362000000,rev?*
G04 #@! TF.SameCoordinates,Original*
G04 #@! TF.FileFunction,Legend,Top*
G04 #@! TF.FilePolarity,Positive*
%FSLAX46Y46*%
G04 Gerber Fmt 4.6, Leading zero omitted, Abs format (unit mm)*
G04 Created by KiCad (PCBNEW (2018-02-16 revision c95340fba)-makepkg) date 04/24/18 18:33:14*
%MOMM*%
%LPD*%
G01*
G04 APERTURE LIST*
%ADD10C,0.200000*%
%ADD11C,0.120000*%
%ADD12C,0.150000*%
%ADD13C,0.100000*%
G04 APERTURE END LIST*
D10*
X119872760Y-95255080D02*
X119567960Y-95255080D01*
D11*
X118815360Y-96379480D02*
X116815360Y-96379480D01*
X116815360Y-93419480D02*
X118815360Y-93419480D01*
D12*
X112631400Y-117261400D02*
X111231400Y-117261400D01*
X112631400Y-122361400D02*
X116781400Y-122361400D01*
X112631400Y-117211400D02*
X116781400Y-117211400D01*
X112631400Y-122361400D02*
X112631400Y-122216400D01*
X116781400Y-122361400D02*
X116781400Y-122216400D01*
X116781400Y-117211400D02*
X116781400Y-117356400D01*
X112631400Y-117211400D02*
X112631400Y-117261400D01*
D11*
X116231360Y-92673480D02*
X116231360Y-91343480D01*
X117561360Y-92673480D02*
X116231360Y-92673480D01*
X118831360Y-92673480D02*
X118831360Y-90013480D01*
X118831360Y-90013480D02*
X126511360Y-90013480D01*
X118831360Y-92673480D02*
X126511360Y-92673480D01*
X126511360Y-92673480D02*
X126511360Y-90013480D01*
X109112800Y-120081600D02*
X108412800Y-120081600D01*
X108412800Y-118881600D02*
X109112800Y-118881600D01*
X122117600Y-113528400D02*
X121417600Y-113528400D01*
X121417600Y-112328400D02*
X122117600Y-112328400D01*
X114487400Y-115615200D02*
X114487400Y-114915200D01*
X115687400Y-114915200D02*
X115687400Y-115615200D01*
X113032000Y-110332400D02*
X114492000Y-110332400D01*
X113032000Y-113492400D02*
X115192000Y-113492400D01*
X113032000Y-113492400D02*
X113032000Y-112562400D01*
X113032000Y-110332400D02*
X113032000Y-111262400D01*
X111334000Y-116019200D02*
X111334000Y-115019200D01*
X112694000Y-115019200D02*
X112694000Y-116019200D01*
X126435360Y-96379480D02*
X124435360Y-96379480D01*
X124435360Y-93419480D02*
X126435360Y-93419480D01*
D12*
X124005860Y-97747480D02*
X124005860Y-103372480D01*
X118455860Y-98872480D02*
X118455860Y-103372480D01*
D11*
X125283500Y-122524500D02*
X125283500Y-123634500D01*
X124523500Y-122524500D02*
X125283500Y-122524500D01*
X123763500Y-124197971D02*
X123763500Y-124744500D01*
X123763500Y-122524500D02*
X123763500Y-123071029D01*
X123763500Y-124744500D02*
X120018500Y-124744500D01*
X123763500Y-122524500D02*
X120018500Y-122524500D01*
X120018500Y-123942030D02*
X120018500Y-124744500D01*
X120018500Y-122524500D02*
X120018500Y-123326970D01*
X125282000Y-128046500D02*
X125282000Y-127244030D01*
X125282000Y-126628970D02*
X125282000Y-125826500D01*
X121537000Y-128046500D02*
X125282000Y-128046500D01*
X121537000Y-125826500D02*
X125282000Y-125826500D01*
X121537000Y-128046500D02*
X121537000Y-127499971D01*
X121537000Y-126373029D02*
X121537000Y-125826500D01*
X120777000Y-128046500D02*
X120017000Y-128046500D01*
X120017000Y-128046500D02*
X120017000Y-126936500D01*
X116160000Y-115816000D02*
X116160000Y-114816000D01*
X117520000Y-114816000D02*
X117520000Y-115816000D01*
D12*
X121119000Y-116880000D02*
X119769000Y-116880000D01*
X121119000Y-122005000D02*
X125769000Y-122005000D01*
X121119000Y-116755000D02*
X125769000Y-116755000D01*
X121119000Y-122005000D02*
X121119000Y-121780000D01*
X125769000Y-122005000D02*
X125769000Y-121780000D01*
X125769000Y-116755000D02*
X125769000Y-116980000D01*
X121119000Y-116755000D02*
X121119000Y-116880000D01*
D11*
X123329600Y-129019500D02*
X121029600Y-129019500D01*
X121729600Y-132219500D02*
X123329600Y-132219500D01*
X122636800Y-132851600D02*
X123336800Y-132851600D01*
X123336800Y-134051600D02*
X122636800Y-134051600D01*
X119157200Y-131005200D02*
X119157200Y-130005200D01*
X120517200Y-130005200D02*
X120517200Y-131005200D01*
X124592800Y-131106800D02*
X124592800Y-130106800D01*
X125952800Y-130106800D02*
X125952800Y-131106800D01*
X125938800Y-111464800D02*
X126638800Y-111464800D01*
X126638800Y-112664800D02*
X125938800Y-112664800D01*
X118358400Y-113630000D02*
X117658400Y-113630000D01*
X117658400Y-112430000D02*
X118358400Y-112430000D01*
X120339360Y-105309480D02*
X118339360Y-105309480D01*
X118339360Y-107349480D02*
X120339360Y-107349480D01*
X122911360Y-107349480D02*
X124911360Y-107349480D01*
X124911360Y-105309480D02*
X122911360Y-105309480D01*
X120048400Y-114534400D02*
X121048400Y-114534400D01*
X121048400Y-115894400D02*
X120048400Y-115894400D01*
X126421600Y-104589200D02*
X126421600Y-103589200D01*
X127781600Y-103589200D02*
X127781600Y-104589200D01*
D13*
X117748693Y-95080432D02*
X117615360Y-94889956D01*
X117520121Y-95080432D02*
X117520121Y-94680432D01*
X117672502Y-94680432D01*
X117710598Y-94699480D01*
X117729645Y-94718527D01*
X117748693Y-94756622D01*
X117748693Y-94813765D01*
X117729645Y-94851860D01*
X117710598Y-94870908D01*
X117672502Y-94889956D01*
X117520121Y-94889956D01*
X117882026Y-94680432D02*
X118129645Y-94680432D01*
X117996312Y-94832813D01*
X118053455Y-94832813D01*
X118091550Y-94851860D01*
X118110598Y-94870908D01*
X118129645Y-94909003D01*
X118129645Y-95004241D01*
X118110598Y-95042337D01*
X118091550Y-95061384D01*
X118053455Y-95080432D01*
X117939169Y-95080432D01*
X117901074Y-95061384D01*
X117882026Y-95042337D01*
X110591638Y-116671752D02*
X110591638Y-116995561D01*
X110610685Y-117033657D01*
X110629733Y-117052704D01*
X110667828Y-117071752D01*
X110744019Y-117071752D01*
X110782114Y-117052704D01*
X110801161Y-117033657D01*
X110820209Y-116995561D01*
X110820209Y-116671752D01*
X110991638Y-116709847D02*
X111010685Y-116690800D01*
X111048780Y-116671752D01*
X111144019Y-116671752D01*
X111182114Y-116690800D01*
X111201161Y-116709847D01*
X111220209Y-116747942D01*
X111220209Y-116786038D01*
X111201161Y-116843180D01*
X110972590Y-117071752D01*
X111220209Y-117071752D01*
X115858952Y-90709733D02*
X116144666Y-90709733D01*
X116201809Y-90728780D01*
X116239904Y-90766876D01*
X116258952Y-90824019D01*
X116258952Y-90862114D01*
X115992285Y-90347828D02*
X116258952Y-90347828D01*
X115839904Y-90443066D02*
X116125619Y-90538304D01*
X116125619Y-90290685D01*
X107127657Y-119548266D02*
X107146704Y-119567314D01*
X107165752Y-119624457D01*
X107165752Y-119662552D01*
X107146704Y-119719695D01*
X107108609Y-119757790D01*
X107070514Y-119776838D01*
X106994323Y-119795885D01*
X106937180Y-119795885D01*
X106860990Y-119776838D01*
X106822895Y-119757790D01*
X106784800Y-119719695D01*
X106765752Y-119662552D01*
X106765752Y-119624457D01*
X106784800Y-119567314D01*
X106803847Y-119548266D01*
X107165752Y-119167314D02*
X107165752Y-119395885D01*
X107165752Y-119281600D02*
X106765752Y-119281600D01*
X106822895Y-119319695D01*
X106860990Y-119357790D01*
X106880038Y-119395885D01*
X121700933Y-112055257D02*
X121681885Y-112074304D01*
X121624742Y-112093352D01*
X121586647Y-112093352D01*
X121529504Y-112074304D01*
X121491409Y-112036209D01*
X121472361Y-111998114D01*
X121453314Y-111921923D01*
X121453314Y-111864780D01*
X121472361Y-111788590D01*
X121491409Y-111750495D01*
X121529504Y-111712400D01*
X121586647Y-111693352D01*
X121624742Y-111693352D01*
X121681885Y-111712400D01*
X121700933Y-111731447D01*
X121834266Y-111693352D02*
X122081885Y-111693352D01*
X121948552Y-111845733D01*
X122005695Y-111845733D01*
X122043790Y-111864780D01*
X122062838Y-111883828D01*
X122081885Y-111921923D01*
X122081885Y-112017161D01*
X122062838Y-112055257D01*
X122043790Y-112074304D01*
X122005695Y-112093352D01*
X121891409Y-112093352D01*
X121853314Y-112074304D01*
X121834266Y-112055257D01*
X114290457Y-115331866D02*
X114309504Y-115350914D01*
X114328552Y-115408057D01*
X114328552Y-115446152D01*
X114309504Y-115503295D01*
X114271409Y-115541390D01*
X114233314Y-115560438D01*
X114157123Y-115579485D01*
X114099980Y-115579485D01*
X114023790Y-115560438D01*
X113985695Y-115541390D01*
X113947600Y-115503295D01*
X113928552Y-115446152D01*
X113928552Y-115408057D01*
X113947600Y-115350914D01*
X113966647Y-115331866D01*
X114061885Y-114989009D02*
X114328552Y-114989009D01*
X113909504Y-115084247D02*
X114195219Y-115179485D01*
X114195219Y-114931866D01*
X113496761Y-112093352D02*
X113496761Y-111693352D01*
X113592000Y-111693352D01*
X113649142Y-111712400D01*
X113687238Y-111750495D01*
X113706285Y-111788590D01*
X113725333Y-111864780D01*
X113725333Y-111921923D01*
X113706285Y-111998114D01*
X113687238Y-112036209D01*
X113649142Y-112074304D01*
X113592000Y-112093352D01*
X113496761Y-112093352D01*
X114106285Y-112093352D02*
X113877714Y-112093352D01*
X113992000Y-112093352D02*
X113992000Y-111693352D01*
X113953904Y-111750495D01*
X113915809Y-111788590D01*
X113877714Y-111807638D01*
X112194952Y-115585866D02*
X112004476Y-115719200D01*
X112194952Y-115814438D02*
X111794952Y-115814438D01*
X111794952Y-115662057D01*
X111814000Y-115623961D01*
X111833047Y-115604914D01*
X111871142Y-115585866D01*
X111928285Y-115585866D01*
X111966380Y-115604914D01*
X111985428Y-115623961D01*
X112004476Y-115662057D01*
X112004476Y-115814438D01*
X112194952Y-115204914D02*
X112194952Y-115433485D01*
X112194952Y-115319200D02*
X111794952Y-115319200D01*
X111852095Y-115357295D01*
X111890190Y-115395390D01*
X111909238Y-115433485D01*
X125368693Y-95080432D02*
X125235360Y-94889956D01*
X125140121Y-95080432D02*
X125140121Y-94680432D01*
X125292502Y-94680432D01*
X125330598Y-94699480D01*
X125349645Y-94718527D01*
X125368693Y-94756622D01*
X125368693Y-94813765D01*
X125349645Y-94851860D01*
X125330598Y-94870908D01*
X125292502Y-94889956D01*
X125140121Y-94889956D01*
X125521074Y-94718527D02*
X125540121Y-94699480D01*
X125578217Y-94680432D01*
X125673455Y-94680432D01*
X125711550Y-94699480D01*
X125730598Y-94718527D01*
X125749645Y-94756622D01*
X125749645Y-94794718D01*
X125730598Y-94851860D01*
X125502026Y-95080432D01*
X125749645Y-95080432D01*
X123416098Y-96839432D02*
X123416098Y-97163241D01*
X123435145Y-97201337D01*
X123454193Y-97220384D01*
X123492288Y-97239432D01*
X123568479Y-97239432D01*
X123606574Y-97220384D01*
X123625621Y-97201337D01*
X123644669Y-97163241D01*
X123644669Y-96839432D01*
X123797050Y-96839432D02*
X124044669Y-96839432D01*
X123911336Y-96991813D01*
X123968479Y-96991813D01*
X124006574Y-97010860D01*
X124025621Y-97029908D01*
X124044669Y-97068003D01*
X124044669Y-97163241D01*
X124025621Y-97201337D01*
X124006574Y-97220384D01*
X123968479Y-97239432D01*
X123854193Y-97239432D01*
X123816098Y-97220384D01*
X123797050Y-97201337D01*
X123818666Y-121954952D02*
X123818666Y-122240666D01*
X123799619Y-122297809D01*
X123761523Y-122335904D01*
X123704380Y-122354952D01*
X123666285Y-122354952D01*
X123990095Y-121993047D02*
X124009142Y-121974000D01*
X124047238Y-121954952D01*
X124142476Y-121954952D01*
X124180571Y-121974000D01*
X124199619Y-121993047D01*
X124218666Y-122031142D01*
X124218666Y-122069238D01*
X124199619Y-122126380D01*
X123971047Y-122354952D01*
X124218666Y-122354952D01*
X120008666Y-128304952D02*
X120008666Y-128590666D01*
X119989619Y-128647809D01*
X119951523Y-128685904D01*
X119894380Y-128704952D01*
X119856285Y-128704952D01*
X120370571Y-128304952D02*
X120294380Y-128304952D01*
X120256285Y-128324000D01*
X120237238Y-128343047D01*
X120199142Y-128400190D01*
X120180095Y-128476380D01*
X120180095Y-128628761D01*
X120199142Y-128666857D01*
X120218190Y-128685904D01*
X120256285Y-128704952D01*
X120332476Y-128704952D01*
X120370571Y-128685904D01*
X120389619Y-128666857D01*
X120408666Y-128628761D01*
X120408666Y-128533523D01*
X120389619Y-128495428D01*
X120370571Y-128476380D01*
X120332476Y-128457333D01*
X120256285Y-128457333D01*
X120218190Y-128476380D01*
X120199142Y-128495428D01*
X120180095Y-128533523D01*
X116722533Y-115496952D02*
X116589200Y-115306476D01*
X116493961Y-115496952D02*
X116493961Y-115096952D01*
X116646342Y-115096952D01*
X116684438Y-115116000D01*
X116703485Y-115135047D01*
X116722533Y-115173142D01*
X116722533Y-115230285D01*
X116703485Y-115268380D01*
X116684438Y-115287428D01*
X116646342Y-115306476D01*
X116493961Y-115306476D01*
X117065390Y-115230285D02*
X117065390Y-115496952D01*
X116970152Y-115077904D02*
X116874914Y-115363619D01*
X117122533Y-115363619D01*
X119430838Y-116163752D02*
X119430838Y-116487561D01*
X119449885Y-116525657D01*
X119468933Y-116544704D01*
X119507028Y-116563752D01*
X119583219Y-116563752D01*
X119621314Y-116544704D01*
X119640361Y-116525657D01*
X119659409Y-116487561D01*
X119659409Y-116163752D01*
X120021314Y-116297085D02*
X120021314Y-116563752D01*
X119926076Y-116144704D02*
X119830838Y-116430419D01*
X120078457Y-116430419D01*
X120319838Y-132241952D02*
X120319838Y-132565761D01*
X120338885Y-132603857D01*
X120357933Y-132622904D01*
X120396028Y-132641952D01*
X120472219Y-132641952D01*
X120510314Y-132622904D01*
X120529361Y-132603857D01*
X120548409Y-132565761D01*
X120548409Y-132241952D01*
X120948409Y-132641952D02*
X120719838Y-132641952D01*
X120834123Y-132641952D02*
X120834123Y-132241952D01*
X120796028Y-132299095D01*
X120757933Y-132337190D01*
X120719838Y-132356238D01*
X122920133Y-133543657D02*
X122901085Y-133562704D01*
X122843942Y-133581752D01*
X122805847Y-133581752D01*
X122748704Y-133562704D01*
X122710609Y-133524609D01*
X122691561Y-133486514D01*
X122672514Y-133410323D01*
X122672514Y-133353180D01*
X122691561Y-133276990D01*
X122710609Y-133238895D01*
X122748704Y-133200800D01*
X122805847Y-133181752D01*
X122843942Y-133181752D01*
X122901085Y-133200800D01*
X122920133Y-133219847D01*
X123262990Y-133181752D02*
X123186800Y-133181752D01*
X123148704Y-133200800D01*
X123129657Y-133219847D01*
X123091561Y-133276990D01*
X123072514Y-133353180D01*
X123072514Y-133505561D01*
X123091561Y-133543657D01*
X123110609Y-133562704D01*
X123148704Y-133581752D01*
X123224895Y-133581752D01*
X123262990Y-133562704D01*
X123282038Y-133543657D01*
X123301085Y-133505561D01*
X123301085Y-133410323D01*
X123282038Y-133372228D01*
X123262990Y-133353180D01*
X123224895Y-133334133D01*
X123148704Y-133334133D01*
X123110609Y-133353180D01*
X123091561Y-133372228D01*
X123072514Y-133410323D01*
X119707033Y-130686152D02*
X119573700Y-130495676D01*
X119478461Y-130686152D02*
X119478461Y-130286152D01*
X119630842Y-130286152D01*
X119668938Y-130305200D01*
X119687985Y-130324247D01*
X119707033Y-130362342D01*
X119707033Y-130419485D01*
X119687985Y-130457580D01*
X119668938Y-130476628D01*
X119630842Y-130495676D01*
X119478461Y-130495676D01*
X120068938Y-130286152D02*
X119878461Y-130286152D01*
X119859414Y-130476628D01*
X119878461Y-130457580D01*
X119916557Y-130438533D01*
X120011795Y-130438533D01*
X120049890Y-130457580D01*
X120068938Y-130476628D01*
X120087985Y-130514723D01*
X120087985Y-130609961D01*
X120068938Y-130648057D01*
X120049890Y-130667104D01*
X120011795Y-130686152D01*
X119916557Y-130686152D01*
X119878461Y-130667104D01*
X119859414Y-130648057D01*
X125206133Y-130787752D02*
X125072800Y-130597276D01*
X124977561Y-130787752D02*
X124977561Y-130387752D01*
X125129942Y-130387752D01*
X125168038Y-130406800D01*
X125187085Y-130425847D01*
X125206133Y-130463942D01*
X125206133Y-130521085D01*
X125187085Y-130559180D01*
X125168038Y-130578228D01*
X125129942Y-130597276D01*
X124977561Y-130597276D01*
X125548990Y-130387752D02*
X125472800Y-130387752D01*
X125434704Y-130406800D01*
X125415657Y-130425847D01*
X125377561Y-130482990D01*
X125358514Y-130559180D01*
X125358514Y-130711561D01*
X125377561Y-130749657D01*
X125396609Y-130768704D01*
X125434704Y-130787752D01*
X125510895Y-130787752D01*
X125548990Y-130768704D01*
X125568038Y-130749657D01*
X125587085Y-130711561D01*
X125587085Y-130616323D01*
X125568038Y-130578228D01*
X125548990Y-130559180D01*
X125510895Y-130540133D01*
X125434704Y-130540133D01*
X125396609Y-130559180D01*
X125377561Y-130578228D01*
X125358514Y-130616323D01*
X124717157Y-112004466D02*
X124736204Y-112023514D01*
X124755252Y-112080657D01*
X124755252Y-112118752D01*
X124736204Y-112175895D01*
X124698109Y-112213990D01*
X124660014Y-112233038D01*
X124583823Y-112252085D01*
X124526680Y-112252085D01*
X124450490Y-112233038D01*
X124412395Y-112213990D01*
X124374300Y-112175895D01*
X124355252Y-112118752D01*
X124355252Y-112080657D01*
X124374300Y-112023514D01*
X124393347Y-112004466D01*
X124355252Y-111871133D02*
X124355252Y-111604466D01*
X124755252Y-111775895D01*
X116436757Y-113033166D02*
X116455804Y-113052214D01*
X116474852Y-113109357D01*
X116474852Y-113147452D01*
X116455804Y-113204595D01*
X116417709Y-113242690D01*
X116379614Y-113261738D01*
X116303423Y-113280785D01*
X116246280Y-113280785D01*
X116170090Y-113261738D01*
X116131995Y-113242690D01*
X116093900Y-113204595D01*
X116074852Y-113147452D01*
X116074852Y-113109357D01*
X116093900Y-113052214D01*
X116112947Y-113033166D01*
X116246280Y-112804595D02*
X116227233Y-112842690D01*
X116208185Y-112861738D01*
X116170090Y-112880785D01*
X116151042Y-112880785D01*
X116112947Y-112861738D01*
X116093900Y-112842690D01*
X116074852Y-112804595D01*
X116074852Y-112728404D01*
X116093900Y-112690309D01*
X116112947Y-112671261D01*
X116151042Y-112652214D01*
X116170090Y-112652214D01*
X116208185Y-112671261D01*
X116227233Y-112690309D01*
X116246280Y-112728404D01*
X116246280Y-112804595D01*
X116265328Y-112842690D01*
X116284376Y-112861738D01*
X116322471Y-112880785D01*
X116398661Y-112880785D01*
X116436757Y-112861738D01*
X116455804Y-112842690D01*
X116474852Y-112804595D01*
X116474852Y-112728404D01*
X116455804Y-112690309D01*
X116436757Y-112671261D01*
X116398661Y-112652214D01*
X116322471Y-112652214D01*
X116284376Y-112671261D01*
X116265328Y-112690309D01*
X116246280Y-112728404D01*
X119272693Y-106472337D02*
X119253645Y-106491384D01*
X119196502Y-106510432D01*
X119158407Y-106510432D01*
X119101264Y-106491384D01*
X119063169Y-106453289D01*
X119044121Y-106415194D01*
X119025074Y-106339003D01*
X119025074Y-106281860D01*
X119044121Y-106205670D01*
X119063169Y-106167575D01*
X119101264Y-106129480D01*
X119158407Y-106110432D01*
X119196502Y-106110432D01*
X119253645Y-106129480D01*
X119272693Y-106148527D01*
X119425074Y-106148527D02*
X119444121Y-106129480D01*
X119482217Y-106110432D01*
X119577455Y-106110432D01*
X119615550Y-106129480D01*
X119634598Y-106148527D01*
X119653645Y-106186622D01*
X119653645Y-106224718D01*
X119634598Y-106281860D01*
X119406026Y-106510432D01*
X119653645Y-106510432D01*
X123844693Y-106472337D02*
X123825645Y-106491384D01*
X123768502Y-106510432D01*
X123730407Y-106510432D01*
X123673264Y-106491384D01*
X123635169Y-106453289D01*
X123616121Y-106415194D01*
X123597074Y-106339003D01*
X123597074Y-106281860D01*
X123616121Y-106205670D01*
X123635169Y-106167575D01*
X123673264Y-106129480D01*
X123730407Y-106110432D01*
X123768502Y-106110432D01*
X123825645Y-106129480D01*
X123844693Y-106148527D01*
X124206598Y-106110432D02*
X124016121Y-106110432D01*
X123997074Y-106300908D01*
X124016121Y-106281860D01*
X124054217Y-106262813D01*
X124149455Y-106262813D01*
X124187550Y-106281860D01*
X124206598Y-106300908D01*
X124225645Y-106339003D01*
X124225645Y-106434241D01*
X124206598Y-106472337D01*
X124187550Y-106491384D01*
X124149455Y-106510432D01*
X124054217Y-106510432D01*
X124016121Y-106491384D01*
X123997074Y-106472337D01*
X120481733Y-115395352D02*
X120348400Y-115204876D01*
X120253161Y-115395352D02*
X120253161Y-114995352D01*
X120405542Y-114995352D01*
X120443638Y-115014400D01*
X120462685Y-115033447D01*
X120481733Y-115071542D01*
X120481733Y-115128685D01*
X120462685Y-115166780D01*
X120443638Y-115185828D01*
X120405542Y-115204876D01*
X120253161Y-115204876D01*
X120615066Y-114995352D02*
X120881733Y-114995352D01*
X120710304Y-115395352D01*
X127282552Y-104155866D02*
X127092076Y-104289200D01*
X127282552Y-104384438D02*
X126882552Y-104384438D01*
X126882552Y-104232057D01*
X126901600Y-104193961D01*
X126920647Y-104174914D01*
X126958742Y-104155866D01*
X127015885Y-104155866D01*
X127053980Y-104174914D01*
X127073028Y-104193961D01*
X127092076Y-104232057D01*
X127092076Y-104384438D01*
X127053980Y-103927295D02*
X127034933Y-103965390D01*
X127015885Y-103984438D01*
X126977790Y-104003485D01*
X126958742Y-104003485D01*
X126920647Y-103984438D01*
X126901600Y-103965390D01*
X126882552Y-103927295D01*
X126882552Y-103851104D01*
X126901600Y-103813009D01*
X126920647Y-103793961D01*
X126958742Y-103774914D01*
X126977790Y-103774914D01*
X127015885Y-103793961D01*
X127034933Y-103813009D01*
X127053980Y-103851104D01*
X127053980Y-103927295D01*
X127073028Y-103965390D01*
X127092076Y-103984438D01*
X127130171Y-104003485D01*
X127206361Y-104003485D01*
X127244457Y-103984438D01*
X127263504Y-103965390D01*
X127282552Y-103927295D01*
X127282552Y-103851104D01*
X127263504Y-103813009D01*
X127244457Y-103793961D01*
X127206361Y-103774914D01*
X127130171Y-103774914D01*
X127092076Y-103793961D01*
X127073028Y-103813009D01*
X127053980Y-103851104D01*
M02*
