G04 #@! TF.GenerationSoftware,KiCad,Pcbnew,(2018-02-16 revision c95340fba)-makepkg*
G04 #@! TF.CreationDate,2018-04-24T18:33:14+02:00*
G04 #@! TF.ProjectId,lmd,6C6D642E6B696361645F706362000000,rev?*
G04 #@! TF.SameCoordinates,Original*
G04 #@! TF.FileFunction,Soldermask,Top*
G04 #@! TF.FilePolarity,Negative*
%FSLAX46Y46*%
G04 Gerber Fmt 4.6, Leading zero omitted, Abs format (unit mm)*
G04 Created by KiCad (PCBNEW (2018-02-16 revision c95340fba)-makepkg) date 04/24/18 18:33:14*
%MOMM*%
%LPD*%
G01*
G04 APERTURE LIST*
%ADD10R,1.300000X2.900000*%
%ADD11O,4.360000X2.380000*%
%ADD12R,4.360000X2.380000*%
%ADD13R,1.950000X1.000000*%
%ADD14O,2.100000X2.100000*%
%ADD15R,2.100000X2.100000*%
%ADD16R,1.200000X1.150000*%
%ADD17R,1.150000X1.200000*%
%ADD18R,1.300000X1.200000*%
%ADD19R,1.300000X0.900000*%
%ADD20C,1.150000*%
%ADD21R,5.400000X3.800000*%
%ADD22R,0.850000X1.450000*%
%ADD23O,1.400000X1.400000*%
%ADD24R,1.400000X1.400000*%
%ADD25R,1.850000X0.850000*%
%ADD26R,1.100000X0.910000*%
%ADD27R,1.400000X2.000000*%
%ADD28R,0.900000X1.300000*%
G04 APERTURE END LIST*
D10*
X116365360Y-94899480D03*
X119265360Y-94899480D03*
D11*
X108254800Y-121912400D03*
X108254800Y-116912400D03*
D12*
X108254800Y-111912400D03*
D13*
X117406400Y-117881400D03*
X117406400Y-119151400D03*
X117406400Y-120421400D03*
X117406400Y-121691400D03*
X112006400Y-121691400D03*
X112006400Y-120421400D03*
X112006400Y-119151400D03*
X112006400Y-117881400D03*
D14*
X125181360Y-91343480D03*
X122641360Y-91343480D03*
X120101360Y-91343480D03*
D15*
X117561360Y-91343480D03*
D16*
X109512800Y-119481600D03*
X108012800Y-119481600D03*
X122517600Y-112928400D03*
X121017600Y-112928400D03*
D17*
X115087400Y-116015200D03*
X115087400Y-114515200D03*
D18*
X112792000Y-111912400D03*
X114792000Y-110962400D03*
X114792000Y-112862400D03*
D19*
X112014000Y-114769200D03*
X112014000Y-116269200D03*
D10*
X123985360Y-94899480D03*
X126885360Y-94899480D03*
D20*
X119680860Y-101872480D03*
X119680860Y-100372480D03*
X121180860Y-101872480D03*
X121180860Y-100372480D03*
X122680860Y-101872480D03*
X122680860Y-100372480D03*
D21*
X121180860Y-101122480D03*
D22*
X123455860Y-103897480D03*
X122805860Y-103897480D03*
X122155860Y-103897480D03*
X121505860Y-103897480D03*
X120855860Y-103897480D03*
X120205860Y-103897480D03*
X119555860Y-103897480D03*
X118905860Y-103897480D03*
X118905860Y-98347480D03*
X119555860Y-98347480D03*
X120205860Y-98347480D03*
X120855860Y-98347480D03*
X121505860Y-98347480D03*
X122155860Y-98347480D03*
X122805860Y-98347480D03*
X123455860Y-98347480D03*
D23*
X120713500Y-123634500D03*
X121983500Y-123634500D03*
X123253500Y-123634500D03*
D24*
X124523500Y-123634500D03*
X120777000Y-126936500D03*
D23*
X122047000Y-126936500D03*
X123317000Y-126936500D03*
X124587000Y-126936500D03*
D19*
X116840000Y-114566000D03*
X116840000Y-116066000D03*
D25*
X126394000Y-117430000D03*
X126394000Y-118080000D03*
X126394000Y-118730000D03*
X126394000Y-119380000D03*
X126394000Y-120030000D03*
X126394000Y-120680000D03*
X126394000Y-121330000D03*
X120494000Y-121330000D03*
X120494000Y-120680000D03*
X120494000Y-120030000D03*
X120494000Y-119380000D03*
X120494000Y-118730000D03*
X120494000Y-118080000D03*
X120494000Y-117430000D03*
D26*
X123689600Y-129669500D03*
X123689600Y-130619500D03*
X123689600Y-131569500D03*
X121369600Y-131569500D03*
X121369600Y-130619500D03*
X121369600Y-129669500D03*
D16*
X122236800Y-133451600D03*
X123736800Y-133451600D03*
D19*
X119837200Y-129755200D03*
X119837200Y-131255200D03*
X125272800Y-129856800D03*
X125272800Y-131356800D03*
D16*
X125538800Y-112064800D03*
X127038800Y-112064800D03*
X118758400Y-113030000D03*
X117258400Y-113030000D03*
D27*
X117839360Y-106329480D03*
X120839360Y-106329480D03*
X125411360Y-106329480D03*
X122411360Y-106329480D03*
D28*
X121298400Y-115214400D03*
X119798400Y-115214400D03*
D19*
X127101600Y-103339200D03*
X127101600Y-104839200D03*
M02*
