G04 #@! TF.GenerationSoftware,KiCad,Pcbnew,(2018-02-16 revision c95340fba)-makepkg*
G04 #@! TF.CreationDate,2018-04-24T18:33:14+02:00*
G04 #@! TF.ProjectId,lmd,6C6D642E6B696361645F706362000000,rev?*
G04 #@! TF.SameCoordinates,Original*
G04 #@! TF.FileFunction,Copper,L2,Bot,Signal*
G04 #@! TF.FilePolarity,Positive*
%FSLAX46Y46*%
G04 Gerber Fmt 4.6, Leading zero omitted, Abs format (unit mm)*
G04 Created by KiCad (PCBNEW (2018-02-16 revision c95340fba)-makepkg) date 04/24/18 18:33:14*
%MOMM*%
%LPD*%
G01*
G04 APERTURE LIST*
%ADD10O,3.960000X1.980000*%
%ADD11R,3.960000X1.980000*%
%ADD12O,1.700000X1.700000*%
%ADD13R,1.700000X1.700000*%
%ADD14C,0.750000*%
%ADD15R,1.270000X0.970000*%
%ADD16O,1.000000X1.000000*%
%ADD17R,1.000000X1.000000*%
%ADD18C,1.700000*%
%ADD19C,0.800000*%
%ADD20C,0.450000*%
%ADD21C,1.000000*%
%ADD22C,0.250000*%
%ADD23C,0.750000*%
%ADD24C,0.500000*%
%ADD25C,0.254000*%
G04 APERTURE END LIST*
D10*
X108254800Y-121912400D03*
X108254800Y-116912400D03*
D11*
X108254800Y-111912400D03*
D12*
X125181360Y-91343480D03*
X122641360Y-91343480D03*
X120101360Y-91343480D03*
D13*
X117561360Y-91343480D03*
D14*
X119680860Y-101872480D03*
X119680860Y-100372480D03*
X121180860Y-101872480D03*
X121180860Y-100372480D03*
X122680860Y-101872480D03*
X122680860Y-100372480D03*
D15*
X121869200Y-117500400D03*
X121869200Y-116230400D03*
X121869200Y-114960400D03*
D16*
X120713500Y-123634500D03*
X121983500Y-123634500D03*
X123253500Y-123634500D03*
D17*
X124523500Y-123634500D03*
X120777000Y-126936500D03*
D16*
X122047000Y-126936500D03*
X123317000Y-126936500D03*
X124587000Y-126936500D03*
D12*
X126365000Y-121920000D03*
X126365000Y-119380000D03*
D18*
X126365000Y-116840000D03*
D12*
X126365000Y-114300000D03*
D13*
X126365000Y-111760000D03*
D19*
X126169950Y-109724271D03*
X116382800Y-110388400D03*
X122123200Y-111150400D03*
X125425200Y-103632000D03*
X126898400Y-97688400D03*
X113690400Y-114604800D03*
X114731800Y-121945400D03*
X116992400Y-100457000D03*
X127736600Y-91617800D03*
X122580400Y-132029200D03*
X125577600Y-116027200D03*
X125269946Y-109728011D03*
X123139200Y-111150400D03*
X123901196Y-113842800D03*
X120599200Y-122377200D03*
X122529600Y-129692400D03*
X111455200Y-111810800D03*
X111252000Y-114030010D03*
X119888002Y-113588800D03*
X117449600Y-110439200D03*
X118414800Y-110439200D03*
X123328501Y-115619986D03*
X122608510Y-121783882D03*
X124206000Y-122326400D03*
X127009990Y-102260400D03*
X118262400Y-116179596D03*
X125018800Y-128727200D03*
X124866400Y-132384800D03*
X118262400Y-114554000D03*
X120930870Y-104995980D03*
D20*
X123733560Y-97261680D03*
X123733560Y-96804480D03*
X123276360Y-96804480D03*
X123276360Y-97261680D03*
X122819160Y-97261680D03*
X122092720Y-94767400D03*
X122539760Y-94879160D03*
X122214640Y-95214440D03*
X121889520Y-95544640D03*
X121569480Y-95864680D03*
X121505870Y-96779080D03*
X121505870Y-97236280D03*
X121066560Y-94980760D03*
X120604280Y-95006160D03*
X120858280Y-95397320D03*
X120858280Y-95859600D03*
X120855860Y-96321880D03*
X118597680Y-97261680D03*
X118831360Y-96829880D03*
X119288560Y-96829880D03*
X119059960Y-97236280D03*
X119517160Y-97236280D03*
X121498360Y-96321880D03*
X122158760Y-97261680D03*
X122184160Y-96321880D03*
X122590560Y-96575880D03*
X122158760Y-96779080D03*
X120855860Y-96779080D03*
X120855860Y-97236290D03*
X119796560Y-96550480D03*
X120202960Y-96321880D03*
X120202960Y-96779080D03*
X120205860Y-97239180D03*
D19*
X117805200Y-98247200D03*
X124356538Y-117236690D03*
X121869200Y-119329200D03*
X124968000Y-98399600D03*
X127419962Y-109654880D03*
X124357832Y-118246315D03*
X119684800Y-110439200D03*
D21*
X121767600Y-106324400D02*
X122732800Y-106324400D01*
X122732800Y-106324400D02*
X125425200Y-103632000D01*
X120497600Y-107594400D02*
X121767600Y-106324400D01*
X120497600Y-109169200D02*
X120497600Y-107594400D01*
D22*
X124206000Y-109067600D02*
X125513279Y-109067600D01*
X122123200Y-111150400D02*
X124206000Y-109067600D01*
X125513279Y-109067600D02*
X125769951Y-109324272D01*
X125769951Y-109324272D02*
X126169950Y-109724271D01*
D21*
X120497600Y-109169200D02*
X116890800Y-109169200D01*
X122123200Y-111150400D02*
X121462800Y-110490000D01*
X121462800Y-110134400D02*
X120497600Y-109169200D01*
X121462800Y-110490000D02*
X121462800Y-110134400D01*
X116382800Y-111912400D02*
X116382800Y-111252000D01*
X116890800Y-109169200D02*
X116424010Y-109635990D01*
X116382800Y-111252000D02*
X116382800Y-110388400D01*
X116424010Y-109635990D02*
X116424010Y-111210790D01*
X116424010Y-111210790D02*
X116382800Y-111252000D01*
X116320599Y-111974601D02*
X116382800Y-111912400D01*
D23*
X116320599Y-111974601D02*
X114090399Y-114204801D01*
X114090399Y-114204801D02*
X113690400Y-114604800D01*
D24*
X122123200Y-110584715D02*
X122123200Y-111150400D01*
D23*
X113690400Y-114604800D02*
X111382800Y-116912400D01*
X111382800Y-116912400D02*
X108254800Y-116912400D01*
D22*
X124587000Y-127643606D02*
X123799600Y-128431006D01*
X124587000Y-126936500D02*
X124587000Y-127643606D01*
X123799600Y-128431006D02*
X123799600Y-130962400D01*
X123799600Y-130962400D02*
X123545600Y-131216400D01*
X123545600Y-131216400D02*
X123393200Y-131216400D01*
X123393200Y-131216400D02*
X122580400Y-132029200D01*
X122631200Y-132029200D02*
X122580400Y-132029200D01*
X125577600Y-116027200D02*
X125577600Y-116052600D01*
X126365000Y-116814600D02*
X125577600Y-116027200D01*
X126365000Y-116840000D02*
X126365000Y-116814600D01*
X125577600Y-116052600D02*
X126365000Y-116840000D01*
X124670085Y-111092715D02*
X125269946Y-110492854D01*
X125269946Y-110492854D02*
X125269946Y-109728011D01*
X124670085Y-112115600D02*
X123704885Y-111150400D01*
X125277023Y-112722538D02*
X124670085Y-112115600D01*
X124670085Y-112115600D02*
X124670085Y-111092715D01*
X126365000Y-114300000D02*
X125277023Y-113212023D01*
X123704885Y-111150400D02*
X123139200Y-111150400D01*
X125277023Y-113212023D02*
X125277023Y-112722538D01*
X121869200Y-114960400D02*
X122783596Y-114960400D01*
X123501197Y-114242799D02*
X123901196Y-113842800D01*
X122783596Y-114960400D02*
X123501197Y-114242799D01*
X121164885Y-122377200D02*
X120599200Y-122377200D01*
X123253500Y-123634500D02*
X121996200Y-122377200D01*
X121996200Y-122377200D02*
X121164885Y-122377200D01*
X123253500Y-122927394D02*
X123256202Y-122924692D01*
X120974199Y-118310401D02*
X120446800Y-117783002D01*
X120446800Y-117783002D02*
X120446800Y-114858800D01*
X123256202Y-119293802D02*
X122272801Y-118310401D01*
X122272801Y-118310401D02*
X120974199Y-118310401D01*
X123256202Y-122924692D02*
X123256202Y-119293802D01*
X123253500Y-123634500D02*
X123253500Y-122927394D01*
X123291600Y-123240800D02*
X123357802Y-123240800D01*
X122529600Y-129692400D02*
X123317000Y-128905000D01*
X123317000Y-128905000D02*
X123317000Y-126936500D01*
X111252000Y-112014000D02*
X111455200Y-111810800D01*
X111252000Y-114030010D02*
X111252000Y-112014000D01*
X117449600Y-111150398D02*
X119488003Y-113188801D01*
X119488003Y-113188801D02*
X119888002Y-113588800D01*
X117449600Y-110439200D02*
X117449600Y-111150398D01*
X123328501Y-115619986D02*
X124561600Y-114386887D01*
X124561600Y-113324196D02*
X124419804Y-113182400D01*
X124419804Y-113182400D02*
X121158000Y-113182400D01*
X124561600Y-114386887D02*
X124561600Y-113324196D01*
X118814799Y-110839199D02*
X118414800Y-110439200D01*
X121158000Y-113182400D02*
X118814799Y-110839199D01*
X127101600Y-103195392D02*
X127101600Y-108966000D01*
X127990012Y-110082990D02*
X128044990Y-110028012D01*
X126365000Y-110660000D02*
X126365000Y-111760000D01*
X126794962Y-109272638D02*
X126794962Y-110230038D01*
X128044990Y-110028012D02*
X128044990Y-109248990D01*
X124206000Y-122326400D02*
X124771685Y-122326400D01*
X126794962Y-110230038D02*
X126365000Y-110660000D01*
X127762000Y-108966000D02*
X127101600Y-108966000D01*
X127101600Y-108966000D02*
X126794962Y-109272638D01*
X128044990Y-109248990D02*
X127762000Y-108966000D01*
X127990012Y-122098388D02*
X127990012Y-110082990D01*
X127057201Y-123031199D02*
X127990012Y-122098388D01*
X124771685Y-122326400D02*
X125476484Y-123031199D01*
X125476484Y-123031199D02*
X127057201Y-123031199D01*
X127101600Y-103195392D02*
X127634991Y-102662001D01*
X127634991Y-102662001D02*
X127634991Y-101960417D01*
X127634991Y-101960417D02*
X127635000Y-101960408D01*
X127635000Y-101960408D02*
X127635000Y-101066600D01*
X127635000Y-101066600D02*
X124968000Y-98399600D01*
X121869200Y-119329200D02*
X121869200Y-121044572D01*
X121869200Y-121044572D02*
X122208511Y-121383883D01*
X122208511Y-121383883D02*
X122608510Y-121783882D01*
X122996790Y-98247200D02*
X126609991Y-101860401D01*
X126609991Y-101860401D02*
X127009990Y-102260400D01*
X117805200Y-98247200D02*
X122996790Y-98247200D01*
X118662399Y-116579595D02*
X118262400Y-116179596D01*
X121869200Y-119329200D02*
X121469201Y-118929201D01*
X121469201Y-118929201D02*
X121012005Y-118929201D01*
X121012005Y-118929201D02*
X118662399Y-116579595D01*
X124866400Y-128879600D02*
X125018800Y-128727200D01*
X124866400Y-132384800D02*
X124866400Y-128879600D01*
X121869200Y-114960400D02*
X120548400Y-114960400D01*
X120548400Y-114960400D02*
X120446800Y-114858800D01*
X120446800Y-114858800D02*
X118211600Y-114858800D01*
X118211600Y-114604800D02*
X118262400Y-114554000D01*
X118211600Y-114858800D02*
X118211600Y-114604800D01*
X125515001Y-117829468D02*
X124922223Y-117236690D01*
X124092828Y-117500400D02*
X124356538Y-117236690D01*
X121869200Y-117500400D02*
X124092828Y-117500400D01*
X126365000Y-119380000D02*
X125515001Y-118530001D01*
X124922223Y-117236690D02*
X124356538Y-117236690D01*
X125515001Y-118530001D02*
X125515001Y-117829468D01*
X126365000Y-121920000D02*
X127603199Y-120681801D01*
X127603199Y-120681801D02*
X127603199Y-110403802D01*
X127419962Y-110220565D02*
X127419962Y-109654880D01*
X127603199Y-110403802D02*
X127419962Y-110220565D01*
X124357832Y-118812000D02*
X124357832Y-118246315D01*
X126365000Y-121920000D02*
X124357832Y-119912832D01*
X124357832Y-119912832D02*
X124357832Y-118812000D01*
X120084799Y-110839199D02*
X119684800Y-110439200D01*
X122754200Y-116230400D02*
X122768788Y-116244988D01*
X124927012Y-113192212D02*
X124409200Y-112674400D01*
X121920000Y-112674400D02*
X120084799Y-110839199D01*
X124927012Y-114932812D02*
X124927012Y-113192212D01*
X123614836Y-116244988D02*
X124927012Y-114932812D01*
X124409200Y-112674400D02*
X121920000Y-112674400D01*
X122768788Y-116244988D02*
X123614836Y-116244988D01*
X121869200Y-116230400D02*
X122754200Y-116230400D01*
D25*
G36*
X124650500Y-123507500D02*
X124670500Y-123507500D01*
X124670500Y-123761500D01*
X124650500Y-123761500D01*
X124650500Y-123781500D01*
X124396500Y-123781500D01*
X124396500Y-123761500D01*
X124385473Y-123761500D01*
X124410735Y-123634500D01*
X124385473Y-123507500D01*
X124396500Y-123507500D01*
X124396500Y-123487500D01*
X124650500Y-123487500D01*
X124650500Y-123507500D01*
X124650500Y-123507500D01*
G37*
X124650500Y-123507500D02*
X124670500Y-123507500D01*
X124670500Y-123761500D01*
X124650500Y-123761500D01*
X124650500Y-123781500D01*
X124396500Y-123781500D01*
X124396500Y-123761500D01*
X124385473Y-123761500D01*
X124410735Y-123634500D01*
X124385473Y-123507500D01*
X124396500Y-123507500D01*
X124396500Y-123487500D01*
X124650500Y-123487500D01*
X124650500Y-123507500D01*
G36*
X127789001Y-100145799D02*
X126003000Y-98359799D01*
X126003000Y-98193726D01*
X125845431Y-97813320D01*
X125554280Y-97522169D01*
X125173874Y-97364600D01*
X124762126Y-97364600D01*
X124592721Y-97434770D01*
X124593560Y-97432745D01*
X124593560Y-97090615D01*
X124569728Y-97033080D01*
X124593560Y-96975545D01*
X124593560Y-96633415D01*
X124462632Y-96317329D01*
X124220711Y-96075408D01*
X123904625Y-95944480D01*
X123562495Y-95944480D01*
X123504960Y-95968312D01*
X123447425Y-95944480D01*
X123175383Y-95944480D01*
X123077711Y-95846808D01*
X122880276Y-95765027D01*
X122943712Y-95701591D01*
X122973161Y-95630496D01*
X123026911Y-95608232D01*
X123268832Y-95366311D01*
X123399760Y-95050225D01*
X123399760Y-94708095D01*
X123268832Y-94392009D01*
X123026911Y-94150088D01*
X122710825Y-94019160D01*
X122533596Y-94019160D01*
X122263785Y-93907400D01*
X121921655Y-93907400D01*
X121605569Y-94038328D01*
X121439512Y-94204385D01*
X121237625Y-94120760D01*
X120895495Y-94120760D01*
X120804760Y-94158344D01*
X120775345Y-94146160D01*
X120433215Y-94146160D01*
X120117129Y-94277088D01*
X119875208Y-94519009D01*
X119744280Y-94835095D01*
X119744280Y-95177225D01*
X119875208Y-95493311D01*
X119898876Y-95516979D01*
X119715809Y-95592808D01*
X119612934Y-95695683D01*
X119309409Y-95821408D01*
X119160937Y-95969880D01*
X119117495Y-95969880D01*
X119059960Y-95993712D01*
X119002425Y-95969880D01*
X118660295Y-95969880D01*
X118344209Y-96100808D01*
X118102288Y-96342729D01*
X117971360Y-96658815D01*
X117971360Y-96671777D01*
X117868608Y-96774529D01*
X117737680Y-97090615D01*
X117737680Y-97212200D01*
X117599326Y-97212200D01*
X117218920Y-97369769D01*
X116927769Y-97660920D01*
X116770200Y-98041326D01*
X116770200Y-98453074D01*
X116927769Y-98833480D01*
X117218920Y-99124631D01*
X117599326Y-99282200D01*
X118011074Y-99282200D01*
X118391480Y-99124631D01*
X118508911Y-99007200D01*
X122681989Y-99007200D01*
X123147229Y-99472440D01*
X122881761Y-99362480D01*
X122479959Y-99362480D01*
X122108741Y-99516243D01*
X121930860Y-99694124D01*
X121752979Y-99516243D01*
X121381761Y-99362480D01*
X120979959Y-99362480D01*
X120608741Y-99516243D01*
X120430860Y-99694124D01*
X120252979Y-99516243D01*
X119881761Y-99362480D01*
X119479959Y-99362480D01*
X119108741Y-99516243D01*
X118824623Y-99800361D01*
X118670860Y-100171579D01*
X118670860Y-100573381D01*
X118824623Y-100944599D01*
X119002504Y-101122480D01*
X118824623Y-101300361D01*
X118670860Y-101671579D01*
X118670860Y-102073381D01*
X118824623Y-102444599D01*
X119108741Y-102728717D01*
X119479959Y-102882480D01*
X119881761Y-102882480D01*
X120252979Y-102728717D01*
X120430860Y-102550836D01*
X120608741Y-102728717D01*
X120979959Y-102882480D01*
X121381761Y-102882480D01*
X121752979Y-102728717D01*
X121930860Y-102550836D01*
X122108741Y-102728717D01*
X122479959Y-102882480D01*
X122881761Y-102882480D01*
X123252979Y-102728717D01*
X123537097Y-102444599D01*
X123690860Y-102073381D01*
X123690860Y-101671579D01*
X123537097Y-101300361D01*
X123359216Y-101122480D01*
X123537097Y-100944599D01*
X123690860Y-100573381D01*
X123690860Y-100171579D01*
X123580900Y-99906111D01*
X125974990Y-102300202D01*
X125974990Y-102466274D01*
X126132559Y-102846680D01*
X126352354Y-103066475D01*
X126341600Y-103120541D01*
X126341600Y-103120545D01*
X126326712Y-103195392D01*
X126341600Y-103270239D01*
X126341601Y-107331668D01*
X126156445Y-107368498D01*
X126111000Y-107398863D01*
X126065555Y-107368498D01*
X125814701Y-107318600D01*
X125645299Y-107318600D01*
X125394445Y-107368498D01*
X125349000Y-107398863D01*
X125303555Y-107368498D01*
X125052701Y-107318600D01*
X124883299Y-107318600D01*
X124632445Y-107368498D01*
X124347975Y-107558575D01*
X124206000Y-107771055D01*
X124064025Y-107558575D01*
X123779555Y-107368498D01*
X123528701Y-107318600D01*
X123359299Y-107318600D01*
X123108445Y-107368498D01*
X123063000Y-107398863D01*
X123017555Y-107368498D01*
X122766701Y-107318600D01*
X122597299Y-107318600D01*
X122346445Y-107368498D01*
X122301000Y-107398863D01*
X122255555Y-107368498D01*
X122004701Y-107318600D01*
X121835299Y-107318600D01*
X121584445Y-107368498D01*
X121299975Y-107558575D01*
X121109898Y-107843045D01*
X121043152Y-108178600D01*
X121109898Y-108514155D01*
X121299975Y-108798625D01*
X121584445Y-108988702D01*
X121835299Y-109038600D01*
X122004701Y-109038600D01*
X122255555Y-108988702D01*
X122301000Y-108958337D01*
X122346445Y-108988702D01*
X122597299Y-109038600D01*
X122766701Y-109038600D01*
X123017555Y-108988702D01*
X123063000Y-108958337D01*
X123108445Y-108988702D01*
X123359299Y-109038600D01*
X123528701Y-109038600D01*
X123779555Y-108988702D01*
X124064025Y-108798625D01*
X124206000Y-108586145D01*
X124347975Y-108798625D01*
X124580352Y-108953894D01*
X124392515Y-109141731D01*
X124234946Y-109522137D01*
X124234946Y-109933885D01*
X124387006Y-110300992D01*
X124185613Y-110502386D01*
X124144320Y-110529977D01*
X124001422Y-110434496D01*
X123858597Y-110406086D01*
X123725480Y-110272969D01*
X123345074Y-110115400D01*
X122933326Y-110115400D01*
X122552920Y-110272969D01*
X122261769Y-110564120D01*
X122104200Y-110944526D01*
X122104200Y-111356274D01*
X122261769Y-111736680D01*
X122439489Y-111914400D01*
X122234802Y-111914400D01*
X120719800Y-110399399D01*
X120719800Y-110233326D01*
X120562231Y-109852920D01*
X120271080Y-109561769D01*
X119890674Y-109404200D01*
X119478926Y-109404200D01*
X119098520Y-109561769D01*
X119049800Y-109610489D01*
X119001080Y-109561769D01*
X118620674Y-109404200D01*
X118208926Y-109404200D01*
X117932200Y-109518823D01*
X117655474Y-109404200D01*
X117243726Y-109404200D01*
X116863320Y-109561769D01*
X116572169Y-109852920D01*
X116414600Y-110233326D01*
X116414600Y-110645074D01*
X116572169Y-111025480D01*
X116678424Y-111131735D01*
X116674712Y-111150398D01*
X116689600Y-111225245D01*
X116689600Y-111225250D01*
X116731301Y-111434888D01*
X116733697Y-111446935D01*
X116845385Y-111614087D01*
X116901672Y-111698327D01*
X116965128Y-111740727D01*
X118853002Y-113628602D01*
X118853002Y-113680891D01*
X118848680Y-113676569D01*
X118468274Y-113519000D01*
X118056526Y-113519000D01*
X117676120Y-113676569D01*
X117384969Y-113967720D01*
X117227400Y-114348126D01*
X117227400Y-114759874D01*
X117384969Y-115140280D01*
X117611487Y-115366798D01*
X117384969Y-115593316D01*
X117227400Y-115973722D01*
X117227400Y-116385470D01*
X117384969Y-116765876D01*
X117676120Y-117057027D01*
X118056526Y-117214596D01*
X118222599Y-117214596D01*
X120421675Y-119413673D01*
X120464076Y-119477130D01*
X120527532Y-119519530D01*
X120715467Y-119645105D01*
X120763610Y-119654681D01*
X120894530Y-119680723D01*
X120991769Y-119915480D01*
X121109200Y-120032911D01*
X121109201Y-120969721D01*
X121094312Y-121044572D01*
X121153297Y-121341109D01*
X121264850Y-121508059D01*
X121321272Y-121592501D01*
X121358237Y-121617200D01*
X121302911Y-121617200D01*
X121185480Y-121499769D01*
X120805074Y-121342200D01*
X120393326Y-121342200D01*
X120012920Y-121499769D01*
X119721769Y-121790920D01*
X119564200Y-122171326D01*
X119564200Y-122583074D01*
X119721769Y-122963480D01*
X119766752Y-123008463D01*
X119644354Y-123191645D01*
X119556265Y-123634500D01*
X119574267Y-123725000D01*
X106602200Y-123725000D01*
X106602200Y-123424035D01*
X106630757Y-123443116D01*
X107104755Y-123537400D01*
X109404845Y-123537400D01*
X109878843Y-123443116D01*
X110416359Y-123083959D01*
X110775516Y-122546443D01*
X110901635Y-121912400D01*
X110775516Y-121278357D01*
X110416359Y-120740841D01*
X109878843Y-120381684D01*
X109404845Y-120287400D01*
X107104755Y-120287400D01*
X106630757Y-120381684D01*
X106602200Y-120400765D01*
X106602200Y-118386660D01*
X107137800Y-118537400D01*
X108127800Y-118537400D01*
X108127800Y-117039400D01*
X108381800Y-117039400D01*
X108381800Y-118537400D01*
X109371800Y-118537400D01*
X109983993Y-118365103D01*
X110483651Y-117971646D01*
X110794705Y-117416928D01*
X110825018Y-117291265D01*
X110705540Y-117039400D01*
X108381800Y-117039400D01*
X108127800Y-117039400D01*
X108107800Y-117039400D01*
X108107800Y-116785400D01*
X108127800Y-116785400D01*
X108127800Y-115287400D01*
X108381800Y-115287400D01*
X108381800Y-116785400D01*
X110705540Y-116785400D01*
X110825018Y-116533535D01*
X110794705Y-116407872D01*
X110483651Y-115853154D01*
X109983993Y-115459697D01*
X109371800Y-115287400D01*
X108381800Y-115287400D01*
X108127800Y-115287400D01*
X107137800Y-115287400D01*
X106602200Y-115438140D01*
X106602200Y-113549840D01*
X110234800Y-113549840D01*
X110339220Y-113529070D01*
X110217000Y-113824136D01*
X110217000Y-114235884D01*
X110374569Y-114616290D01*
X110665720Y-114907441D01*
X111046126Y-115065010D01*
X111457874Y-115065010D01*
X111838280Y-114907441D01*
X112129431Y-114616290D01*
X112287000Y-114235884D01*
X112287000Y-113824136D01*
X112129431Y-113443730D01*
X112012000Y-113326299D01*
X112012000Y-112700442D01*
X112041480Y-112688231D01*
X112332631Y-112397080D01*
X112490200Y-112016674D01*
X112490200Y-111604926D01*
X112332631Y-111224520D01*
X112041480Y-110933369D01*
X111661074Y-110775800D01*
X111249326Y-110775800D01*
X110882240Y-110927852D01*
X110882240Y-110922400D01*
X110851488Y-110767800D01*
X115497612Y-110767800D01*
X115570000Y-110782199D01*
X115642388Y-110767800D01*
X115856783Y-110725154D01*
X116099905Y-110562705D01*
X116262354Y-110319583D01*
X116319399Y-110032800D01*
X116305000Y-109960412D01*
X116305000Y-109317906D01*
X116517160Y-109176145D01*
X116641779Y-109051524D01*
X116704499Y-109064000D01*
X116873901Y-109064000D01*
X117124755Y-109014102D01*
X117144800Y-109000708D01*
X117164845Y-109014102D01*
X117415699Y-109064000D01*
X117585101Y-109064000D01*
X117835955Y-109014102D01*
X117856000Y-109000708D01*
X117876045Y-109014102D01*
X118126899Y-109064000D01*
X118296301Y-109064000D01*
X118547155Y-109014102D01*
X118831625Y-108824025D01*
X118931286Y-108674872D01*
X119013975Y-108798625D01*
X119298445Y-108988702D01*
X119549299Y-109038600D01*
X119718701Y-109038600D01*
X119969555Y-108988702D01*
X120254025Y-108798625D01*
X120444102Y-108514155D01*
X120510848Y-108178600D01*
X120444102Y-107843045D01*
X120254025Y-107558575D01*
X119969555Y-107368498D01*
X119718701Y-107318600D01*
X119549299Y-107318600D01*
X119298445Y-107368498D01*
X119013975Y-107558575D01*
X118914314Y-107707728D01*
X118831625Y-107583975D01*
X118547155Y-107393898D01*
X118296301Y-107344000D01*
X118126899Y-107344000D01*
X117876045Y-107393898D01*
X117856000Y-107407292D01*
X117835955Y-107393898D01*
X117585101Y-107344000D01*
X117415699Y-107344000D01*
X117164845Y-107393898D01*
X117144800Y-107407292D01*
X117124755Y-107393898D01*
X116894146Y-107348027D01*
X116885126Y-107326251D01*
X116885125Y-107326250D01*
X116719945Y-107079040D01*
X116618552Y-106977648D01*
X116517160Y-106876255D01*
X116269950Y-106711074D01*
X116254200Y-106704550D01*
X116254200Y-104790106D01*
X119895870Y-104790106D01*
X119895870Y-105201854D01*
X120053439Y-105582260D01*
X120344590Y-105873411D01*
X120724996Y-106030980D01*
X121136744Y-106030980D01*
X121517150Y-105873411D01*
X121808301Y-105582260D01*
X121965870Y-105201854D01*
X121965870Y-104790106D01*
X121808301Y-104409700D01*
X121517150Y-104118549D01*
X121136744Y-103960980D01*
X120724996Y-103960980D01*
X120344590Y-104118549D01*
X120053439Y-104409700D01*
X119895870Y-104790106D01*
X116254200Y-104790106D01*
X116254200Y-92651723D01*
X116463595Y-92791637D01*
X116711360Y-92840920D01*
X118411360Y-92840920D01*
X118659125Y-92791637D01*
X118869169Y-92651289D01*
X119009517Y-92441245D01*
X119018544Y-92395861D01*
X119030735Y-92414105D01*
X119521942Y-92742319D01*
X119955104Y-92828480D01*
X120247616Y-92828480D01*
X120680778Y-92742319D01*
X121171985Y-92414105D01*
X121371360Y-92115719D01*
X121570735Y-92414105D01*
X122061942Y-92742319D01*
X122495104Y-92828480D01*
X122787616Y-92828480D01*
X123220778Y-92742319D01*
X123711985Y-92414105D01*
X123911360Y-92115719D01*
X124110735Y-92414105D01*
X124601942Y-92742319D01*
X125035104Y-92828480D01*
X125327616Y-92828480D01*
X125760778Y-92742319D01*
X126251985Y-92414105D01*
X126580199Y-91922898D01*
X126695452Y-91343480D01*
X126580199Y-90764062D01*
X126368880Y-90447800D01*
X127789000Y-90447800D01*
X127789001Y-100145799D01*
X127789001Y-100145799D01*
G37*
X127789001Y-100145799D02*
X126003000Y-98359799D01*
X126003000Y-98193726D01*
X125845431Y-97813320D01*
X125554280Y-97522169D01*
X125173874Y-97364600D01*
X124762126Y-97364600D01*
X124592721Y-97434770D01*
X124593560Y-97432745D01*
X124593560Y-97090615D01*
X124569728Y-97033080D01*
X124593560Y-96975545D01*
X124593560Y-96633415D01*
X124462632Y-96317329D01*
X124220711Y-96075408D01*
X123904625Y-95944480D01*
X123562495Y-95944480D01*
X123504960Y-95968312D01*
X123447425Y-95944480D01*
X123175383Y-95944480D01*
X123077711Y-95846808D01*
X122880276Y-95765027D01*
X122943712Y-95701591D01*
X122973161Y-95630496D01*
X123026911Y-95608232D01*
X123268832Y-95366311D01*
X123399760Y-95050225D01*
X123399760Y-94708095D01*
X123268832Y-94392009D01*
X123026911Y-94150088D01*
X122710825Y-94019160D01*
X122533596Y-94019160D01*
X122263785Y-93907400D01*
X121921655Y-93907400D01*
X121605569Y-94038328D01*
X121439512Y-94204385D01*
X121237625Y-94120760D01*
X120895495Y-94120760D01*
X120804760Y-94158344D01*
X120775345Y-94146160D01*
X120433215Y-94146160D01*
X120117129Y-94277088D01*
X119875208Y-94519009D01*
X119744280Y-94835095D01*
X119744280Y-95177225D01*
X119875208Y-95493311D01*
X119898876Y-95516979D01*
X119715809Y-95592808D01*
X119612934Y-95695683D01*
X119309409Y-95821408D01*
X119160937Y-95969880D01*
X119117495Y-95969880D01*
X119059960Y-95993712D01*
X119002425Y-95969880D01*
X118660295Y-95969880D01*
X118344209Y-96100808D01*
X118102288Y-96342729D01*
X117971360Y-96658815D01*
X117971360Y-96671777D01*
X117868608Y-96774529D01*
X117737680Y-97090615D01*
X117737680Y-97212200D01*
X117599326Y-97212200D01*
X117218920Y-97369769D01*
X116927769Y-97660920D01*
X116770200Y-98041326D01*
X116770200Y-98453074D01*
X116927769Y-98833480D01*
X117218920Y-99124631D01*
X117599326Y-99282200D01*
X118011074Y-99282200D01*
X118391480Y-99124631D01*
X118508911Y-99007200D01*
X122681989Y-99007200D01*
X123147229Y-99472440D01*
X122881761Y-99362480D01*
X122479959Y-99362480D01*
X122108741Y-99516243D01*
X121930860Y-99694124D01*
X121752979Y-99516243D01*
X121381761Y-99362480D01*
X120979959Y-99362480D01*
X120608741Y-99516243D01*
X120430860Y-99694124D01*
X120252979Y-99516243D01*
X119881761Y-99362480D01*
X119479959Y-99362480D01*
X119108741Y-99516243D01*
X118824623Y-99800361D01*
X118670860Y-100171579D01*
X118670860Y-100573381D01*
X118824623Y-100944599D01*
X119002504Y-101122480D01*
X118824623Y-101300361D01*
X118670860Y-101671579D01*
X118670860Y-102073381D01*
X118824623Y-102444599D01*
X119108741Y-102728717D01*
X119479959Y-102882480D01*
X119881761Y-102882480D01*
X120252979Y-102728717D01*
X120430860Y-102550836D01*
X120608741Y-102728717D01*
X120979959Y-102882480D01*
X121381761Y-102882480D01*
X121752979Y-102728717D01*
X121930860Y-102550836D01*
X122108741Y-102728717D01*
X122479959Y-102882480D01*
X122881761Y-102882480D01*
X123252979Y-102728717D01*
X123537097Y-102444599D01*
X123690860Y-102073381D01*
X123690860Y-101671579D01*
X123537097Y-101300361D01*
X123359216Y-101122480D01*
X123537097Y-100944599D01*
X123690860Y-100573381D01*
X123690860Y-100171579D01*
X123580900Y-99906111D01*
X125974990Y-102300202D01*
X125974990Y-102466274D01*
X126132559Y-102846680D01*
X126352354Y-103066475D01*
X126341600Y-103120541D01*
X126341600Y-103120545D01*
X126326712Y-103195392D01*
X126341600Y-103270239D01*
X126341601Y-107331668D01*
X126156445Y-107368498D01*
X126111000Y-107398863D01*
X126065555Y-107368498D01*
X125814701Y-107318600D01*
X125645299Y-107318600D01*
X125394445Y-107368498D01*
X125349000Y-107398863D01*
X125303555Y-107368498D01*
X125052701Y-107318600D01*
X124883299Y-107318600D01*
X124632445Y-107368498D01*
X124347975Y-107558575D01*
X124206000Y-107771055D01*
X124064025Y-107558575D01*
X123779555Y-107368498D01*
X123528701Y-107318600D01*
X123359299Y-107318600D01*
X123108445Y-107368498D01*
X123063000Y-107398863D01*
X123017555Y-107368498D01*
X122766701Y-107318600D01*
X122597299Y-107318600D01*
X122346445Y-107368498D01*
X122301000Y-107398863D01*
X122255555Y-107368498D01*
X122004701Y-107318600D01*
X121835299Y-107318600D01*
X121584445Y-107368498D01*
X121299975Y-107558575D01*
X121109898Y-107843045D01*
X121043152Y-108178600D01*
X121109898Y-108514155D01*
X121299975Y-108798625D01*
X121584445Y-108988702D01*
X121835299Y-109038600D01*
X122004701Y-109038600D01*
X122255555Y-108988702D01*
X122301000Y-108958337D01*
X122346445Y-108988702D01*
X122597299Y-109038600D01*
X122766701Y-109038600D01*
X123017555Y-108988702D01*
X123063000Y-108958337D01*
X123108445Y-108988702D01*
X123359299Y-109038600D01*
X123528701Y-109038600D01*
X123779555Y-108988702D01*
X124064025Y-108798625D01*
X124206000Y-108586145D01*
X124347975Y-108798625D01*
X124580352Y-108953894D01*
X124392515Y-109141731D01*
X124234946Y-109522137D01*
X124234946Y-109933885D01*
X124387006Y-110300992D01*
X124185613Y-110502386D01*
X124144320Y-110529977D01*
X124001422Y-110434496D01*
X123858597Y-110406086D01*
X123725480Y-110272969D01*
X123345074Y-110115400D01*
X122933326Y-110115400D01*
X122552920Y-110272969D01*
X122261769Y-110564120D01*
X122104200Y-110944526D01*
X122104200Y-111356274D01*
X122261769Y-111736680D01*
X122439489Y-111914400D01*
X122234802Y-111914400D01*
X120719800Y-110399399D01*
X120719800Y-110233326D01*
X120562231Y-109852920D01*
X120271080Y-109561769D01*
X119890674Y-109404200D01*
X119478926Y-109404200D01*
X119098520Y-109561769D01*
X119049800Y-109610489D01*
X119001080Y-109561769D01*
X118620674Y-109404200D01*
X118208926Y-109404200D01*
X117932200Y-109518823D01*
X117655474Y-109404200D01*
X117243726Y-109404200D01*
X116863320Y-109561769D01*
X116572169Y-109852920D01*
X116414600Y-110233326D01*
X116414600Y-110645074D01*
X116572169Y-111025480D01*
X116678424Y-111131735D01*
X116674712Y-111150398D01*
X116689600Y-111225245D01*
X116689600Y-111225250D01*
X116731301Y-111434888D01*
X116733697Y-111446935D01*
X116845385Y-111614087D01*
X116901672Y-111698327D01*
X116965128Y-111740727D01*
X118853002Y-113628602D01*
X118853002Y-113680891D01*
X118848680Y-113676569D01*
X118468274Y-113519000D01*
X118056526Y-113519000D01*
X117676120Y-113676569D01*
X117384969Y-113967720D01*
X117227400Y-114348126D01*
X117227400Y-114759874D01*
X117384969Y-115140280D01*
X117611487Y-115366798D01*
X117384969Y-115593316D01*
X117227400Y-115973722D01*
X117227400Y-116385470D01*
X117384969Y-116765876D01*
X117676120Y-117057027D01*
X118056526Y-117214596D01*
X118222599Y-117214596D01*
X120421675Y-119413673D01*
X120464076Y-119477130D01*
X120527532Y-119519530D01*
X120715467Y-119645105D01*
X120763610Y-119654681D01*
X120894530Y-119680723D01*
X120991769Y-119915480D01*
X121109200Y-120032911D01*
X121109201Y-120969721D01*
X121094312Y-121044572D01*
X121153297Y-121341109D01*
X121264850Y-121508059D01*
X121321272Y-121592501D01*
X121358237Y-121617200D01*
X121302911Y-121617200D01*
X121185480Y-121499769D01*
X120805074Y-121342200D01*
X120393326Y-121342200D01*
X120012920Y-121499769D01*
X119721769Y-121790920D01*
X119564200Y-122171326D01*
X119564200Y-122583074D01*
X119721769Y-122963480D01*
X119766752Y-123008463D01*
X119644354Y-123191645D01*
X119556265Y-123634500D01*
X119574267Y-123725000D01*
X106602200Y-123725000D01*
X106602200Y-123424035D01*
X106630757Y-123443116D01*
X107104755Y-123537400D01*
X109404845Y-123537400D01*
X109878843Y-123443116D01*
X110416359Y-123083959D01*
X110775516Y-122546443D01*
X110901635Y-121912400D01*
X110775516Y-121278357D01*
X110416359Y-120740841D01*
X109878843Y-120381684D01*
X109404845Y-120287400D01*
X107104755Y-120287400D01*
X106630757Y-120381684D01*
X106602200Y-120400765D01*
X106602200Y-118386660D01*
X107137800Y-118537400D01*
X108127800Y-118537400D01*
X108127800Y-117039400D01*
X108381800Y-117039400D01*
X108381800Y-118537400D01*
X109371800Y-118537400D01*
X109983993Y-118365103D01*
X110483651Y-117971646D01*
X110794705Y-117416928D01*
X110825018Y-117291265D01*
X110705540Y-117039400D01*
X108381800Y-117039400D01*
X108127800Y-117039400D01*
X108107800Y-117039400D01*
X108107800Y-116785400D01*
X108127800Y-116785400D01*
X108127800Y-115287400D01*
X108381800Y-115287400D01*
X108381800Y-116785400D01*
X110705540Y-116785400D01*
X110825018Y-116533535D01*
X110794705Y-116407872D01*
X110483651Y-115853154D01*
X109983993Y-115459697D01*
X109371800Y-115287400D01*
X108381800Y-115287400D01*
X108127800Y-115287400D01*
X107137800Y-115287400D01*
X106602200Y-115438140D01*
X106602200Y-113549840D01*
X110234800Y-113549840D01*
X110339220Y-113529070D01*
X110217000Y-113824136D01*
X110217000Y-114235884D01*
X110374569Y-114616290D01*
X110665720Y-114907441D01*
X111046126Y-115065010D01*
X111457874Y-115065010D01*
X111838280Y-114907441D01*
X112129431Y-114616290D01*
X112287000Y-114235884D01*
X112287000Y-113824136D01*
X112129431Y-113443730D01*
X112012000Y-113326299D01*
X112012000Y-112700442D01*
X112041480Y-112688231D01*
X112332631Y-112397080D01*
X112490200Y-112016674D01*
X112490200Y-111604926D01*
X112332631Y-111224520D01*
X112041480Y-110933369D01*
X111661074Y-110775800D01*
X111249326Y-110775800D01*
X110882240Y-110927852D01*
X110882240Y-110922400D01*
X110851488Y-110767800D01*
X115497612Y-110767800D01*
X115570000Y-110782199D01*
X115642388Y-110767800D01*
X115856783Y-110725154D01*
X116099905Y-110562705D01*
X116262354Y-110319583D01*
X116319399Y-110032800D01*
X116305000Y-109960412D01*
X116305000Y-109317906D01*
X116517160Y-109176145D01*
X116641779Y-109051524D01*
X116704499Y-109064000D01*
X116873901Y-109064000D01*
X117124755Y-109014102D01*
X117144800Y-109000708D01*
X117164845Y-109014102D01*
X117415699Y-109064000D01*
X117585101Y-109064000D01*
X117835955Y-109014102D01*
X117856000Y-109000708D01*
X117876045Y-109014102D01*
X118126899Y-109064000D01*
X118296301Y-109064000D01*
X118547155Y-109014102D01*
X118831625Y-108824025D01*
X118931286Y-108674872D01*
X119013975Y-108798625D01*
X119298445Y-108988702D01*
X119549299Y-109038600D01*
X119718701Y-109038600D01*
X119969555Y-108988702D01*
X120254025Y-108798625D01*
X120444102Y-108514155D01*
X120510848Y-108178600D01*
X120444102Y-107843045D01*
X120254025Y-107558575D01*
X119969555Y-107368498D01*
X119718701Y-107318600D01*
X119549299Y-107318600D01*
X119298445Y-107368498D01*
X119013975Y-107558575D01*
X118914314Y-107707728D01*
X118831625Y-107583975D01*
X118547155Y-107393898D01*
X118296301Y-107344000D01*
X118126899Y-107344000D01*
X117876045Y-107393898D01*
X117856000Y-107407292D01*
X117835955Y-107393898D01*
X117585101Y-107344000D01*
X117415699Y-107344000D01*
X117164845Y-107393898D01*
X117144800Y-107407292D01*
X117124755Y-107393898D01*
X116894146Y-107348027D01*
X116885126Y-107326251D01*
X116885125Y-107326250D01*
X116719945Y-107079040D01*
X116618552Y-106977648D01*
X116517160Y-106876255D01*
X116269950Y-106711074D01*
X116254200Y-106704550D01*
X116254200Y-104790106D01*
X119895870Y-104790106D01*
X119895870Y-105201854D01*
X120053439Y-105582260D01*
X120344590Y-105873411D01*
X120724996Y-106030980D01*
X121136744Y-106030980D01*
X121517150Y-105873411D01*
X121808301Y-105582260D01*
X121965870Y-105201854D01*
X121965870Y-104790106D01*
X121808301Y-104409700D01*
X121517150Y-104118549D01*
X121136744Y-103960980D01*
X120724996Y-103960980D01*
X120344590Y-104118549D01*
X120053439Y-104409700D01*
X119895870Y-104790106D01*
X116254200Y-104790106D01*
X116254200Y-92651723D01*
X116463595Y-92791637D01*
X116711360Y-92840920D01*
X118411360Y-92840920D01*
X118659125Y-92791637D01*
X118869169Y-92651289D01*
X119009517Y-92441245D01*
X119018544Y-92395861D01*
X119030735Y-92414105D01*
X119521942Y-92742319D01*
X119955104Y-92828480D01*
X120247616Y-92828480D01*
X120680778Y-92742319D01*
X121171985Y-92414105D01*
X121371360Y-92115719D01*
X121570735Y-92414105D01*
X122061942Y-92742319D01*
X122495104Y-92828480D01*
X122787616Y-92828480D01*
X123220778Y-92742319D01*
X123711985Y-92414105D01*
X123911360Y-92115719D01*
X124110735Y-92414105D01*
X124601942Y-92742319D01*
X125035104Y-92828480D01*
X125327616Y-92828480D01*
X125760778Y-92742319D01*
X126251985Y-92414105D01*
X126580199Y-91922898D01*
X126695452Y-91343480D01*
X126580199Y-90764062D01*
X126368880Y-90447800D01*
X127789000Y-90447800D01*
X127789001Y-100145799D01*
G36*
X125576353Y-115559037D02*
X125500647Y-115796042D01*
X126365000Y-116660395D01*
X126379143Y-116646253D01*
X126558748Y-116825858D01*
X126544605Y-116840000D01*
X126558748Y-116854143D01*
X126379143Y-117033748D01*
X126365000Y-117019605D01*
X126350858Y-117033748D01*
X126171253Y-116854143D01*
X126185395Y-116840000D01*
X125321042Y-115975647D01*
X125069741Y-116055920D01*
X124955209Y-116371650D01*
X124942818Y-116359259D01*
X124682990Y-116251635D01*
X125411485Y-115523141D01*
X125467058Y-115486008D01*
X125576353Y-115559037D01*
X125576353Y-115559037D01*
G37*
X125576353Y-115559037D02*
X125500647Y-115796042D01*
X126365000Y-116660395D01*
X126379143Y-116646253D01*
X126558748Y-116825858D01*
X126544605Y-116840000D01*
X126558748Y-116854143D01*
X126379143Y-117033748D01*
X126365000Y-117019605D01*
X126350858Y-117033748D01*
X126171253Y-116854143D01*
X126185395Y-116840000D01*
X125321042Y-115975647D01*
X125069741Y-116055920D01*
X124955209Y-116371650D01*
X124942818Y-116359259D01*
X124682990Y-116251635D01*
X125411485Y-115523141D01*
X125467058Y-115486008D01*
X125576353Y-115559037D01*
G36*
X122489798Y-128657400D02*
X122323726Y-128657400D01*
X121943320Y-128814969D01*
X121652169Y-129106120D01*
X121494600Y-129486526D01*
X121494600Y-129898274D01*
X121652169Y-130278680D01*
X121943320Y-130569831D01*
X122323726Y-130727400D01*
X122735474Y-130727400D01*
X123115880Y-130569831D01*
X123407031Y-130278680D01*
X123564600Y-129898274D01*
X123564600Y-129732202D01*
X123801473Y-129495329D01*
X123864929Y-129452929D01*
X123991104Y-129264095D01*
X124032904Y-129201538D01*
X124043872Y-129146398D01*
X124053050Y-129100258D01*
X124106401Y-129229059D01*
X124106400Y-131681089D01*
X123988969Y-131798520D01*
X123831400Y-132178926D01*
X123831400Y-132590674D01*
X123988969Y-132971080D01*
X124280120Y-133262231D01*
X124660526Y-133419800D01*
X124962756Y-133419800D01*
X124224630Y-134139000D01*
X121012646Y-134139000D01*
X118845000Y-132024225D01*
X118845000Y-130108057D01*
X120032190Y-128972484D01*
X120039037Y-128967909D01*
X120084444Y-128922502D01*
X120105263Y-128902588D01*
X120163905Y-128863405D01*
X120305830Y-128651000D01*
X122496198Y-128651000D01*
X122489798Y-128657400D01*
X122489798Y-128657400D01*
G37*
X122489798Y-128657400D02*
X122323726Y-128657400D01*
X121943320Y-128814969D01*
X121652169Y-129106120D01*
X121494600Y-129486526D01*
X121494600Y-129898274D01*
X121652169Y-130278680D01*
X121943320Y-130569831D01*
X122323726Y-130727400D01*
X122735474Y-130727400D01*
X123115880Y-130569831D01*
X123407031Y-130278680D01*
X123564600Y-129898274D01*
X123564600Y-129732202D01*
X123801473Y-129495329D01*
X123864929Y-129452929D01*
X123991104Y-129264095D01*
X124032904Y-129201538D01*
X124043872Y-129146398D01*
X124053050Y-129100258D01*
X124106401Y-129229059D01*
X124106400Y-131681089D01*
X123988969Y-131798520D01*
X123831400Y-132178926D01*
X123831400Y-132590674D01*
X123988969Y-132971080D01*
X124280120Y-133262231D01*
X124660526Y-133419800D01*
X124962756Y-133419800D01*
X124224630Y-134139000D01*
X121012646Y-134139000D01*
X118845000Y-132024225D01*
X118845000Y-130108057D01*
X120032190Y-128972484D01*
X120039037Y-128967909D01*
X120084444Y-128922502D01*
X120105263Y-128902588D01*
X120163905Y-128863405D01*
X120305830Y-128651000D01*
X122496198Y-128651000D01*
X122489798Y-128657400D01*
M02*
