M48
;DRILL file {KiCad (2018-02-16 revision c95340fba)-makepkg} date 04/24/18 18:33:16
;FORMAT={-:-/ absolute / metric / decimal}
FMAT,2
METRIC,TZ
T1C0.200
T2C0.330
T3C0.400
T4C0.650
T5C1.000
T6C1.320
%
G90
G05
M71
T1
X118.598Y-97.262
X118.831Y-96.83
X119.06Y-97.236
X119.289Y-96.83
X119.517Y-97.236
X119.797Y-96.55
X120.203Y-96.322
X120.203Y-96.779
X120.206Y-97.239
X120.604Y-95.006
X120.856Y-96.322
X120.856Y-96.779
X120.856Y-97.236
X120.858Y-95.397
X120.858Y-95.86
X121.067Y-94.981
X121.498Y-96.322
X121.506Y-96.779
X121.506Y-97.236
X121.569Y-95.865
X121.89Y-95.545
X122.093Y-94.767
X122.159Y-96.779
X122.159Y-97.262
X122.184Y-96.322
X122.215Y-95.214
X122.54Y-94.879
X122.591Y-96.576
X122.819Y-97.262
X123.276Y-96.804
X123.276Y-97.262
X123.734Y-96.804
X123.734Y-97.262
T2
X119.681Y-100.372
X119.681Y-101.872
X121.181Y-100.372
X121.181Y-101.872
X122.681Y-100.372
X122.681Y-101.872
T3
X111.252Y-114.03
X111.455Y-111.811
X113.69Y-114.605
X114.732Y-121.945
X116.383Y-110.388
X116.992Y-100.457
X117.45Y-110.439
X117.805Y-98.247
X118.262Y-114.554
X118.262Y-116.18
X118.415Y-110.439
X119.685Y-110.439
X119.888Y-113.589
X120.599Y-122.377
X120.931Y-104.996
X121.869Y-119.329
X122.123Y-111.15
X122.53Y-129.692
X122.58Y-132.029
X122.609Y-121.784
X123.139Y-111.15
X123.329Y-115.62
X123.901Y-113.843
X124.206Y-122.326
X124.357Y-117.237
X124.358Y-118.246
X124.866Y-132.385
X124.968Y-98.4
X125.019Y-128.727
X125.27Y-109.728
X125.425Y-103.632
X125.578Y-116.027
X126.17Y-109.724
X126.898Y-97.688
X127.01Y-102.26
X127.42Y-109.655
X127.737Y-91.618
T4
X120.713Y-123.634
X121.983Y-123.634
X123.253Y-123.634
X124.523Y-123.634
X120.777Y-126.936
X122.047Y-126.936
X123.317Y-126.936
X124.587Y-126.936
T5
X117.561Y-91.343
X120.101Y-91.343
X122.641Y-91.343
X125.181Y-91.343
T6
X108.255Y-111.912
X108.255Y-116.912
X108.255Y-121.912
T0
M30
