G04 #@! TF.GenerationSoftware,KiCad,Pcbnew,(2018-02-16 revision c95340fba)-makepkg*
G04 #@! TF.CreationDate,2018-04-24T18:33:14+02:00*
G04 #@! TF.ProjectId,lmd,6C6D642E6B696361645F706362000000,rev?*
G04 #@! TF.SameCoordinates,Original*
G04 #@! TF.FileFunction,Profile,NP*
%FSLAX46Y46*%
G04 Gerber Fmt 4.6, Leading zero omitted, Abs format (unit mm)*
G04 Created by KiCad (PCBNEW (2018-02-16 revision c95340fba)-makepkg) date 04/24/18 18:33:14*
%MOMM*%
%LPD*%
G01*
G04 APERTURE LIST*
%ADD10C,0.200000*%
G04 APERTURE END LIST*
D10*
X115570000Y-110032800D02*
X115570000Y-108813600D01*
X128524000Y-89712800D02*
X128524000Y-107391200D01*
X128524000Y-108940600D02*
G75*
G02X128524000Y-107416600I0J762000D01*
G01*
X115570000Y-107264200D02*
G75*
G02X115570000Y-108788200I0J-762000D01*
G01*
X119634000Y-128333500D02*
X119634000Y-125984000D01*
X119570500Y-128397000D02*
X119634000Y-128333500D01*
X118110000Y-129794000D02*
X119570500Y-128397000D01*
X118110000Y-132334000D02*
X118110000Y-129794000D01*
X120713500Y-134874000D02*
X118110000Y-132334000D01*
X124523500Y-134874000D02*
X120713500Y-134874000D01*
X127000000Y-132461000D02*
X124523500Y-134874000D01*
X127000000Y-129730500D02*
X127000000Y-132461000D01*
X125730000Y-128460500D02*
X127000000Y-129730500D01*
X125730000Y-125984000D02*
X125730000Y-128460500D01*
X128524000Y-124460000D02*
X125730000Y-124460000D01*
X128524000Y-108966000D02*
X128524000Y-124460000D01*
X115519200Y-89712800D02*
X128524000Y-89712800D01*
X115519200Y-107238800D02*
X115519200Y-89712800D01*
X105867200Y-110032800D02*
X115570000Y-110032800D01*
X105867200Y-124460000D02*
X105867200Y-110032800D01*
X119570500Y-124460000D02*
X105867200Y-124460000D01*
X119634000Y-124460000D02*
G75*
G02X119634000Y-125984000I0J-762000D01*
G01*
X125730000Y-125984000D02*
G75*
G02X125730000Y-124460000I0J762000D01*
G01*
M02*
