G04 #@! TF.GenerationSoftware,KiCad,Pcbnew,(2018-02-16 revision c95340fba)-makepkg*
G04 #@! TF.CreationDate,2018-04-24T18:33:14+02:00*
G04 #@! TF.ProjectId,lmd,6C6D642E6B696361645F706362000000,rev?*
G04 #@! TF.SameCoordinates,Original*
G04 #@! TF.FileFunction,Paste,Top*
G04 #@! TF.FilePolarity,Positive*
%FSLAX46Y46*%
G04 Gerber Fmt 4.6, Leading zero omitted, Abs format (unit mm)*
G04 Created by KiCad (PCBNEW (2018-02-16 revision c95340fba)-makepkg) date 04/24/18 18:33:14*
%MOMM*%
%LPD*%
G01*
G04 APERTURE LIST*
%ADD10R,0.900000X2.500000*%
%ADD11R,1.550000X0.600000*%
%ADD12R,0.800000X0.750000*%
%ADD13R,0.750000X0.800000*%
%ADD14R,0.900000X0.800000*%
%ADD15R,0.900000X0.500000*%
%ADD16R,3.000000X2.040000*%
%ADD17R,0.450000X1.050000*%
%ADD18R,1.450000X0.450000*%
%ADD19R,0.700000X0.510000*%
%ADD20R,1.000000X1.600000*%
%ADD21R,0.500000X0.900000*%
G04 APERTURE END LIST*
D10*
X116365360Y-94899480D03*
X119265360Y-94899480D03*
D11*
X117406400Y-117881400D03*
X117406400Y-119151400D03*
X117406400Y-120421400D03*
X117406400Y-121691400D03*
X112006400Y-121691400D03*
X112006400Y-120421400D03*
X112006400Y-119151400D03*
X112006400Y-117881400D03*
D12*
X109512800Y-119481600D03*
X108012800Y-119481600D03*
X122517600Y-112928400D03*
X121017600Y-112928400D03*
D13*
X115087400Y-116015200D03*
X115087400Y-114515200D03*
D14*
X112792000Y-111912400D03*
X114792000Y-110962400D03*
X114792000Y-112862400D03*
D15*
X112014000Y-114769200D03*
X112014000Y-116269200D03*
D10*
X123985360Y-94899480D03*
X126885360Y-94899480D03*
D16*
X121180860Y-101122480D03*
D17*
X123455860Y-103897480D03*
X122805860Y-103897480D03*
X122155860Y-103897480D03*
X121505860Y-103897480D03*
X120855860Y-103897480D03*
X120205860Y-103897480D03*
X119555860Y-103897480D03*
X118905860Y-103897480D03*
X118905860Y-98347480D03*
X119555860Y-98347480D03*
X120205860Y-98347480D03*
X120855860Y-98347480D03*
X121505860Y-98347480D03*
X122155860Y-98347480D03*
X122805860Y-98347480D03*
X123455860Y-98347480D03*
D15*
X116840000Y-114566000D03*
X116840000Y-116066000D03*
D18*
X126394000Y-117430000D03*
X126394000Y-118080000D03*
X126394000Y-118730000D03*
X126394000Y-119380000D03*
X126394000Y-120030000D03*
X126394000Y-120680000D03*
X126394000Y-121330000D03*
X120494000Y-121330000D03*
X120494000Y-120680000D03*
X120494000Y-120030000D03*
X120494000Y-119380000D03*
X120494000Y-118730000D03*
X120494000Y-118080000D03*
X120494000Y-117430000D03*
D19*
X123689600Y-129669500D03*
X123689600Y-130619500D03*
X123689600Y-131569500D03*
X121369600Y-131569500D03*
X121369600Y-130619500D03*
X121369600Y-129669500D03*
D12*
X122236800Y-133451600D03*
X123736800Y-133451600D03*
D15*
X119837200Y-129755200D03*
X119837200Y-131255200D03*
X125272800Y-129856800D03*
X125272800Y-131356800D03*
D12*
X125538800Y-112064800D03*
X127038800Y-112064800D03*
X118758400Y-113030000D03*
X117258400Y-113030000D03*
D20*
X117839360Y-106329480D03*
X120839360Y-106329480D03*
X125411360Y-106329480D03*
X122411360Y-106329480D03*
D21*
X121298400Y-115214400D03*
X119798400Y-115214400D03*
D15*
X127101600Y-103339200D03*
X127101600Y-104839200D03*
M02*
