G04 #@! TF.GenerationSoftware,KiCad,Pcbnew,(2018-02-16 revision c95340fba)-makepkg*
G04 #@! TF.CreationDate,2018-04-24T18:33:14+02:00*
G04 #@! TF.ProjectId,lmd,6C6D642E6B696361645F706362000000,rev?*
G04 #@! TF.SameCoordinates,Original*
G04 #@! TF.FileFunction,Copper,L1,Top,Signal*
G04 #@! TF.FilePolarity,Positive*
%FSLAX46Y46*%
G04 Gerber Fmt 4.6, Leading zero omitted, Abs format (unit mm)*
G04 Created by KiCad (PCBNEW (2018-02-16 revision c95340fba)-makepkg) date 04/24/18 18:33:14*
%MOMM*%
%LPD*%
G01*
G04 APERTURE LIST*
%ADD10R,0.900000X2.500000*%
%ADD11O,3.960000X1.980000*%
%ADD12R,3.960000X1.980000*%
%ADD13R,1.550000X0.600000*%
%ADD14O,1.700000X1.700000*%
%ADD15R,1.700000X1.700000*%
%ADD16R,0.800000X0.750000*%
%ADD17R,0.750000X0.800000*%
%ADD18R,0.900000X0.800000*%
%ADD19R,0.900000X0.500000*%
%ADD20C,0.750000*%
%ADD21R,5.000000X3.400000*%
%ADD22R,0.450000X1.050000*%
%ADD23O,1.000000X1.000000*%
%ADD24R,1.000000X1.000000*%
%ADD25R,1.450000X0.450000*%
%ADD26R,0.700000X0.510000*%
%ADD27R,1.000000X1.600000*%
%ADD28R,0.500000X0.900000*%
%ADD29C,0.800000*%
%ADD30C,0.450000*%
%ADD31C,0.450000*%
%ADD32C,0.250000*%
%ADD33C,0.500000*%
%ADD34C,1.000000*%
%ADD35C,0.400000*%
%ADD36C,0.750000*%
%ADD37C,0.254000*%
G04 APERTURE END LIST*
D10*
X116365360Y-94899480D03*
X119265360Y-94899480D03*
D11*
X108254800Y-121912400D03*
X108254800Y-116912400D03*
D12*
X108254800Y-111912400D03*
D13*
X117406400Y-117881400D03*
X117406400Y-119151400D03*
X117406400Y-120421400D03*
X117406400Y-121691400D03*
X112006400Y-121691400D03*
X112006400Y-120421400D03*
X112006400Y-119151400D03*
X112006400Y-117881400D03*
D14*
X125181360Y-91343480D03*
X122641360Y-91343480D03*
X120101360Y-91343480D03*
D15*
X117561360Y-91343480D03*
D16*
X109512800Y-119481600D03*
X108012800Y-119481600D03*
X122517600Y-112928400D03*
X121017600Y-112928400D03*
D17*
X115087400Y-116015200D03*
X115087400Y-114515200D03*
D18*
X112792000Y-111912400D03*
X114792000Y-110962400D03*
X114792000Y-112862400D03*
D19*
X112014000Y-114769200D03*
X112014000Y-116269200D03*
D10*
X123985360Y-94899480D03*
X126885360Y-94899480D03*
D20*
X119680860Y-101872480D03*
X119680860Y-100372480D03*
X121180860Y-101872480D03*
X121180860Y-100372480D03*
X122680860Y-101872480D03*
X122680860Y-100372480D03*
D21*
X121180860Y-101122480D03*
D22*
X123455860Y-103897480D03*
X122805860Y-103897480D03*
X122155860Y-103897480D03*
X121505860Y-103897480D03*
X120855860Y-103897480D03*
X120205860Y-103897480D03*
X119555860Y-103897480D03*
X118905860Y-103897480D03*
X118905860Y-98347480D03*
X119555860Y-98347480D03*
X120205860Y-98347480D03*
X120855860Y-98347480D03*
X121505860Y-98347480D03*
X122155860Y-98347480D03*
X122805860Y-98347480D03*
X123455860Y-98347480D03*
D23*
X120713500Y-123634500D03*
X121983500Y-123634500D03*
X123253500Y-123634500D03*
D24*
X124523500Y-123634500D03*
X120777000Y-126936500D03*
D23*
X122047000Y-126936500D03*
X123317000Y-126936500D03*
X124587000Y-126936500D03*
D19*
X116840000Y-114566000D03*
X116840000Y-116066000D03*
D25*
X126394000Y-117430000D03*
X126394000Y-118080000D03*
X126394000Y-118730000D03*
X126394000Y-119380000D03*
X126394000Y-120030000D03*
X126394000Y-120680000D03*
X126394000Y-121330000D03*
X120494000Y-121330000D03*
X120494000Y-120680000D03*
X120494000Y-120030000D03*
X120494000Y-119380000D03*
X120494000Y-118730000D03*
X120494000Y-118080000D03*
X120494000Y-117430000D03*
D26*
X123689600Y-129669500D03*
X123689600Y-130619500D03*
X123689600Y-131569500D03*
X121369600Y-131569500D03*
X121369600Y-130619500D03*
X121369600Y-129669500D03*
D16*
X122236800Y-133451600D03*
X123736800Y-133451600D03*
D19*
X119837200Y-129755200D03*
X119837200Y-131255200D03*
X125272800Y-129856800D03*
X125272800Y-131356800D03*
D16*
X125538800Y-112064800D03*
X127038800Y-112064800D03*
X118758400Y-113030000D03*
X117258400Y-113030000D03*
D27*
X117839360Y-106329480D03*
X120839360Y-106329480D03*
X125411360Y-106329480D03*
X122411360Y-106329480D03*
D28*
X121298400Y-115214400D03*
X119798400Y-115214400D03*
D19*
X127101600Y-103339200D03*
X127101600Y-104839200D03*
D29*
X126169950Y-109724271D03*
X116382800Y-110388400D03*
X122123200Y-111150400D03*
X125425200Y-103632000D03*
X126898400Y-97688400D03*
X113690400Y-114604800D03*
X114731800Y-121945400D03*
X116992400Y-100457000D03*
X127736600Y-91617800D03*
X122580400Y-132029200D03*
X125577600Y-116027200D03*
X125269946Y-109728011D03*
X123139200Y-111150400D03*
X123901196Y-113842800D03*
X120599200Y-122377200D03*
X122529600Y-129692400D03*
X111455200Y-111810800D03*
X111252000Y-114030010D03*
X119888002Y-113588800D03*
X117449600Y-110439200D03*
X118414800Y-110439200D03*
X123328501Y-115619986D03*
X122608510Y-121783882D03*
X124206000Y-122326400D03*
X127009990Y-102260400D03*
X118262400Y-116179596D03*
X125018800Y-128727200D03*
X124866400Y-132384800D03*
X118262400Y-114554000D03*
X120930870Y-104995980D03*
D30*
X123733560Y-97261680D03*
X123733560Y-96804480D03*
X123276360Y-96804480D03*
X123276360Y-97261680D03*
X122819160Y-97261680D03*
X122092720Y-94767400D03*
X122539760Y-94879160D03*
X122214640Y-95214440D03*
X121889520Y-95544640D03*
X121569480Y-95864680D03*
X121505870Y-96779080D03*
X121505870Y-97236280D03*
X121066560Y-94980760D03*
X120604280Y-95006160D03*
X120858280Y-95397320D03*
X120858280Y-95859600D03*
X120855860Y-96321880D03*
X118597680Y-97261680D03*
X118831360Y-96829880D03*
X119288560Y-96829880D03*
X119059960Y-97236280D03*
X119517160Y-97236280D03*
X121498360Y-96321880D03*
X122158760Y-97261680D03*
X122184160Y-96321880D03*
X122590560Y-96575880D03*
X122158760Y-96779080D03*
X120855860Y-96779080D03*
X120855860Y-97236290D03*
X119796560Y-96550480D03*
X120202960Y-96321880D03*
X120202960Y-96779080D03*
X120205860Y-97239180D03*
D29*
X117805200Y-98247200D03*
X124356538Y-117236690D03*
X121869200Y-119329200D03*
X124968000Y-98399600D03*
X127419962Y-109654880D03*
X124357832Y-118246315D03*
X119684800Y-110439200D03*
D31*
X122680860Y-100372480D02*
X124213370Y-100372480D01*
X121180860Y-101872480D02*
X119680860Y-101872480D01*
D32*
X122530176Y-113549178D02*
X121638378Y-113549178D01*
X121638378Y-113549178D02*
X121017600Y-112928400D01*
X119352600Y-114249200D02*
X121767600Y-114249200D01*
X123651999Y-114671001D02*
X122530176Y-113549178D01*
X124221401Y-114671001D02*
X123651999Y-114671001D01*
X125577600Y-116027200D02*
X124221401Y-114671001D01*
X121767600Y-114249200D02*
X122594202Y-115075802D01*
X118758400Y-113030000D02*
X118758400Y-113655000D01*
X118758400Y-113655000D02*
X119352600Y-114249200D01*
X119408400Y-113030000D02*
X118758400Y-113030000D01*
X120135000Y-112303400D02*
X119408400Y-113030000D01*
X121017600Y-112928400D02*
X120992600Y-112928400D01*
X120367600Y-112303400D02*
X120135000Y-112303400D01*
X120992600Y-112928400D02*
X120367600Y-112303400D01*
X126569949Y-110124270D02*
X126169950Y-109724271D01*
X127038800Y-110593121D02*
X126569949Y-110124270D01*
X127038800Y-112064800D02*
X127038800Y-110593121D01*
X115214400Y-114401600D02*
X115874800Y-113741200D01*
X118733400Y-113030000D02*
X118758400Y-113030000D01*
X115874800Y-113741200D02*
X115874800Y-112826800D01*
X115874800Y-112826800D02*
X116296600Y-112405000D01*
X118108400Y-112405000D02*
X118733400Y-113030000D01*
X116296600Y-112405000D02*
X118108400Y-112405000D01*
D33*
X117839360Y-106329480D02*
X117839360Y-106629480D01*
D32*
X124523500Y-124384500D02*
X123984599Y-124923401D01*
X124523500Y-123634500D02*
X124523500Y-124384500D01*
X123984599Y-124923401D02*
X123984599Y-126334099D01*
X123984599Y-126334099D02*
X124087001Y-126436501D01*
X124087001Y-126436501D02*
X124587000Y-126936500D01*
X124932601Y-123225399D02*
X124932601Y-122475399D01*
X124523500Y-123634500D02*
X124932601Y-123225399D01*
X122594202Y-119789598D02*
X122594202Y-115075802D01*
X124932601Y-122381999D02*
X124932601Y-122127997D01*
X124932601Y-122127997D02*
X122594202Y-119789598D01*
D33*
X125411360Y-103645840D02*
X125425200Y-103632000D01*
X125411360Y-105029480D02*
X125411360Y-103645840D01*
X125411360Y-105029480D02*
X125038380Y-104656500D01*
X125411360Y-106329480D02*
X125411360Y-105029480D01*
X125038380Y-104656500D02*
X125038380Y-100058960D01*
D34*
X125038380Y-100058960D02*
X124165360Y-100931980D01*
X121285000Y-100931980D02*
X125038380Y-100058960D01*
X126885360Y-94899480D02*
X126885360Y-98211980D01*
X126885360Y-98211980D02*
X125038380Y-100058960D01*
D33*
X126885360Y-94899480D02*
X126885360Y-97675360D01*
X126885360Y-97675360D02*
X126898400Y-97688400D01*
D32*
X125411360Y-106329480D02*
X125411360Y-105373040D01*
X110591600Y-119481600D02*
X111531400Y-120421400D01*
X109512800Y-119481600D02*
X110591600Y-119481600D01*
X111531400Y-120421400D02*
X112006400Y-120421400D01*
X112609800Y-115519200D02*
X113702000Y-114427000D01*
X111478998Y-115519200D02*
X112609800Y-115519200D01*
X110642400Y-116355798D02*
X111478998Y-115519200D01*
X109512800Y-118856600D02*
X110642400Y-117727000D01*
X110642400Y-117727000D02*
X110642400Y-116355798D01*
X109512800Y-119481600D02*
X109512800Y-118856600D01*
X113702000Y-114427000D02*
X115138200Y-114427000D01*
X115138200Y-114427000D02*
X115062000Y-114350800D01*
X124523500Y-123634500D02*
X124523500Y-124142500D01*
D33*
X125780800Y-106698920D02*
X125411360Y-106329480D01*
D32*
X117839360Y-106329480D02*
X117839360Y-107103040D01*
X122186000Y-132890900D02*
X122186000Y-133400800D01*
X122186000Y-133400800D02*
X122236800Y-133451600D01*
X122224800Y-132384800D02*
X122186000Y-132423600D01*
X122180401Y-132885301D02*
X122180401Y-132429199D01*
X122186000Y-132890900D02*
X122180401Y-132885301D01*
X122180401Y-132429199D02*
X122580400Y-132029200D01*
X121369600Y-132074500D02*
X122186000Y-132890900D01*
X121369600Y-131569500D02*
X121369600Y-132074500D01*
X123689600Y-130619500D02*
X121369600Y-130619500D01*
X121369600Y-131569500D02*
X121369600Y-130619500D01*
X109487800Y-119481600D02*
X107188000Y-117181800D01*
X109512800Y-119481600D02*
X109487800Y-119481600D01*
X107188000Y-117181800D02*
X107188000Y-116920000D01*
X109537800Y-119481600D02*
X109512800Y-119481600D01*
X126394000Y-117430000D02*
X126394000Y-116843600D01*
X126394000Y-116843600D02*
X125577600Y-116027200D01*
D34*
X116365360Y-100957980D02*
X117839360Y-102431980D01*
X116365360Y-94899480D02*
X116365360Y-100957980D01*
X119339360Y-100931980D02*
X121285000Y-100931980D01*
D31*
X121505860Y-103897480D02*
X121505860Y-101152840D01*
X121505860Y-101152840D02*
X121285000Y-100931980D01*
X121505860Y-103897480D02*
X121505860Y-103247481D01*
D32*
X112006400Y-121691400D02*
X107416600Y-121691400D01*
X107416600Y-121691400D02*
X107188000Y-121920000D01*
X108012800Y-119481600D02*
X108012800Y-121095200D01*
X108012800Y-121095200D02*
X107188000Y-121920000D01*
X118828085Y-114554000D02*
X119132885Y-114858800D01*
X119132885Y-114858800D02*
X119696800Y-114858800D01*
X118262400Y-114554000D02*
X118828085Y-114554000D01*
X125269946Y-109728011D02*
X125269946Y-111795946D01*
X125269946Y-111795946D02*
X125538800Y-112064800D01*
X123050600Y-112217200D02*
X123139200Y-112128600D01*
X123139200Y-111716085D02*
X123139200Y-111150400D01*
X123139200Y-112128600D02*
X123139200Y-111716085D01*
X122732800Y-112535000D02*
X122732800Y-112674404D01*
X123050600Y-112217200D02*
X122732800Y-112535000D01*
X122732800Y-112674404D02*
X123501197Y-113442801D01*
X123501197Y-113442801D02*
X123901196Y-113842800D01*
X122517600Y-112788000D02*
X122631200Y-112674400D01*
X122517600Y-112928400D02*
X122517600Y-112788000D01*
X122631200Y-112674400D02*
X122631200Y-112636600D01*
X122631200Y-112636600D02*
X123050600Y-112217200D01*
X117258400Y-113030000D02*
X117258400Y-114147600D01*
X117258400Y-114147600D02*
X116840000Y-114566000D01*
X120494000Y-122272000D02*
X120599200Y-122377200D01*
X120494000Y-121330000D02*
X120494000Y-122272000D01*
X119696800Y-114858800D02*
X119709500Y-114846100D01*
X113031400Y-119151400D02*
X114301400Y-117881400D01*
X112006400Y-119151400D02*
X113031400Y-119151400D01*
X114301400Y-117881400D02*
X116381400Y-117881400D01*
X116381400Y-117881400D02*
X117406400Y-117881400D01*
X120494000Y-117430000D02*
X117857800Y-117430000D01*
X117857800Y-117430000D02*
X117406400Y-117881400D01*
X115087400Y-116015200D02*
X115390800Y-116015200D01*
X115390800Y-116015200D02*
X116840000Y-114566000D01*
X123317000Y-126936500D02*
X123317000Y-123698000D01*
X123686000Y-133921500D02*
X123686000Y-133502400D01*
X123686000Y-133502400D02*
X123736800Y-133451600D01*
X123318100Y-134264400D02*
X123661000Y-133921500D01*
X121666000Y-134264400D02*
X123318100Y-134264400D01*
X121158000Y-133756400D02*
X121666000Y-134264400D01*
X121158000Y-133076000D02*
X121158000Y-133756400D01*
X119837200Y-131255200D02*
X119837200Y-131755200D01*
X119837200Y-131755200D02*
X121158000Y-133076000D01*
X123661000Y-133921500D02*
X123686000Y-133921500D01*
X123736800Y-133451600D02*
X123736800Y-133870700D01*
X123736800Y-133870700D02*
X123686000Y-133921500D01*
X123686000Y-133921500D02*
X124402704Y-133921500D01*
X124402704Y-133921500D02*
X126339600Y-131984604D01*
X126339600Y-131984604D02*
X126339600Y-130723600D01*
X125472800Y-129856800D02*
X125272800Y-129856800D01*
X126339600Y-130723600D02*
X125472800Y-129856800D01*
X125272800Y-129856800D02*
X123876900Y-129856800D01*
X123876900Y-129856800D02*
X123689600Y-129669500D01*
X122552500Y-129669500D02*
X122529600Y-129692400D01*
X123689600Y-129669500D02*
X122552500Y-129669500D01*
X112020885Y-111841285D02*
X112092000Y-111912400D01*
X112020885Y-111810800D02*
X112020885Y-111841285D01*
X112092000Y-111912400D02*
X112792000Y-111912400D01*
X112020885Y-111810800D02*
X111455200Y-111810800D01*
X112014000Y-114769200D02*
X111814000Y-114769200D01*
X111814000Y-114769200D02*
X111252000Y-114207200D01*
X111252000Y-114207200D02*
X111252000Y-114030010D01*
D34*
X120839360Y-110713844D02*
X120839360Y-105945080D01*
X114792000Y-112862400D02*
X116215198Y-111439202D01*
X120114002Y-111439202D02*
X120839360Y-110713844D01*
X116215198Y-111439202D02*
X120114002Y-111439202D01*
X114741999Y-112912401D02*
X109254801Y-112912401D01*
X114792000Y-112862400D02*
X114741999Y-112912401D01*
X109254801Y-112912401D02*
X108254800Y-111912400D01*
D32*
X112006400Y-117881400D02*
X112006400Y-116276800D01*
X117449600Y-110439200D02*
X118833988Y-109054812D01*
X118833988Y-109054812D02*
X118833989Y-106985021D01*
X118905860Y-104672480D02*
X118905860Y-103897480D01*
X118905860Y-106913150D02*
X118905860Y-104672480D01*
X118833989Y-106985021D02*
X118905860Y-106913150D01*
X124002800Y-115316000D02*
X123707812Y-115021012D01*
X124002800Y-115874800D02*
X124002800Y-115316000D01*
X123582022Y-116295578D02*
X124002800Y-115874800D01*
X123582022Y-118651600D02*
X123582022Y-116295578D01*
X123707812Y-115021012D02*
X123507020Y-115021012D01*
X122385197Y-113899189D02*
X120764076Y-113899189D01*
X126394000Y-119380000D02*
X124310422Y-119380000D01*
X120764076Y-113899189D02*
X120453687Y-113588800D01*
X124310422Y-119380000D02*
X123582022Y-118651600D01*
X123507020Y-115021012D02*
X122385197Y-113899189D01*
X120453687Y-113588800D02*
X119888002Y-113588800D01*
X118414800Y-110439200D02*
X119183999Y-109670001D01*
X119183999Y-109670001D02*
X119183999Y-107130001D01*
X119183999Y-107130001D02*
X119555860Y-106758140D01*
X119555860Y-106758140D02*
X119555860Y-104672480D01*
X119555860Y-104672480D02*
X119555860Y-103897480D01*
X122947271Y-118653260D02*
X122947271Y-116001216D01*
X124324011Y-120030000D02*
X122947271Y-118653260D01*
X126394000Y-120030000D02*
X124324011Y-120030000D01*
X122947271Y-116001216D02*
X123328501Y-115619986D01*
X123927001Y-105793621D02*
X123927001Y-112382391D01*
X127694979Y-120354021D02*
X127369000Y-120680000D01*
X127694979Y-116150369D02*
X127694979Y-120354021D01*
X123927001Y-112382391D02*
X127694979Y-116150369D01*
X122805860Y-104672480D02*
X123927001Y-105793621D01*
X122805860Y-103897480D02*
X122805860Y-104672480D01*
X127369000Y-120680000D02*
X126394000Y-120680000D01*
X124393799Y-105610419D02*
X123455860Y-104672480D01*
X128044990Y-120654010D02*
X128044990Y-116005390D01*
X124393799Y-112354199D02*
X124393799Y-105610419D01*
X128044990Y-116005390D02*
X124393799Y-112354199D01*
X126394000Y-121330000D02*
X127369000Y-121330000D01*
X123455860Y-104672480D02*
X123455860Y-103897480D01*
X127369000Y-121330000D02*
X128044990Y-120654010D01*
X127101600Y-103339200D02*
X127101600Y-102352010D01*
X127101600Y-102352010D02*
X127009990Y-102260400D01*
X123008509Y-122183881D02*
X122608510Y-121783882D01*
X123151028Y-122326400D02*
X123008509Y-122183881D01*
X124206000Y-122326400D02*
X123151028Y-122326400D01*
X120006394Y-123634500D02*
X118958198Y-122586304D01*
X120713500Y-123634500D02*
X120006394Y-123634500D01*
X118958198Y-122586304D02*
X118958198Y-121510800D01*
X118958198Y-121510800D02*
X119788998Y-120680000D01*
X119788998Y-120680000D02*
X120494000Y-120680000D01*
X121983500Y-124341606D02*
X121723999Y-124601107D01*
X121983500Y-123634500D02*
X121983500Y-124341606D01*
X121723999Y-124601107D02*
X121723999Y-125906393D01*
X121723999Y-125906393D02*
X122047000Y-126229394D01*
X122047000Y-126229394D02*
X122047000Y-126936500D01*
X121401600Y-120030000D02*
X121972499Y-120600899D01*
X120494000Y-120030000D02*
X121401600Y-120030000D01*
X121972499Y-120600899D02*
X121983500Y-120589898D01*
X121983500Y-120589898D02*
X121983500Y-123634500D01*
X117830600Y-121691400D02*
X119176800Y-120345200D01*
X117406400Y-121691400D02*
X117830600Y-121691400D01*
X119176800Y-120345200D02*
X119176800Y-119072200D01*
X119176800Y-119072200D02*
X119519000Y-118730000D01*
X119519000Y-118730000D02*
X120494000Y-118730000D01*
X121199002Y-118730000D02*
X121798400Y-118130602D01*
X120494000Y-118730000D02*
X121199002Y-118730000D01*
X121798400Y-118130602D02*
X121798400Y-115914400D01*
X121798400Y-115914400D02*
X121298400Y-115414400D01*
X121298400Y-115414400D02*
X121298400Y-115214400D01*
X116840000Y-116066000D02*
X118148804Y-116066000D01*
X118148804Y-116066000D02*
X118262400Y-116179596D01*
X120713500Y-124015500D02*
X121361200Y-124663200D01*
X120713500Y-123634500D02*
X120713500Y-124015500D01*
X121361200Y-124663200D02*
X121361200Y-125780800D01*
X121361200Y-125780800D02*
X120777000Y-126365000D01*
X120777000Y-126365000D02*
X120777000Y-126936500D01*
X121983500Y-123634500D02*
X121716800Y-123901200D01*
X121716800Y-126606300D02*
X122047000Y-126936500D01*
X124866400Y-128574800D02*
X122428000Y-128574800D01*
X125018800Y-128727200D02*
X124866400Y-128574800D01*
X122428000Y-128574800D02*
X122047000Y-128193800D01*
X122047000Y-128193800D02*
X122047000Y-126936500D01*
X125272800Y-131356800D02*
X125272800Y-131978400D01*
X125272800Y-131978400D02*
X124866400Y-132384800D01*
X123689600Y-131569500D02*
X125060100Y-131569500D01*
X125060100Y-131569500D02*
X125272800Y-131356800D01*
X125022000Y-131356800D02*
X125222000Y-131356800D01*
X114858800Y-114641800D02*
X114858800Y-114616800D01*
X119696800Y-116632800D02*
X119837200Y-116773200D01*
X119696800Y-114858800D02*
X119696800Y-116632800D01*
X119837200Y-116773200D02*
X120494000Y-117430000D01*
X123317000Y-123698000D02*
X123253500Y-123634500D01*
X116840000Y-114566000D02*
X118250400Y-114566000D01*
X118250400Y-114566000D02*
X118262400Y-114554000D01*
X114921600Y-114554000D02*
X114858800Y-114616800D01*
D31*
X120855860Y-104920970D02*
X120930870Y-104995980D01*
X120855860Y-103897480D02*
X120855860Y-104920970D01*
X124898359Y-97036681D02*
X125397260Y-96537780D01*
X125397260Y-96537780D02*
X125397260Y-95890080D01*
X123733560Y-97261680D02*
X123958559Y-97036681D01*
X123958559Y-97036681D02*
X124898359Y-97036681D01*
X124889260Y-96460582D02*
X125028960Y-96320882D01*
X124419360Y-96930482D02*
X124889260Y-96460582D01*
X125397260Y-95890080D02*
X125397260Y-95952582D01*
X125397260Y-95952582D02*
X124889260Y-96460582D01*
D34*
X125397260Y-92761461D02*
X125397260Y-95890080D01*
X125181360Y-91343480D02*
X125181360Y-92545561D01*
X125181360Y-92545561D02*
X125397260Y-92761461D01*
D31*
X124265962Y-97083880D02*
X124419360Y-96930482D01*
D35*
X123733560Y-96804480D02*
X124293358Y-96804480D01*
X124293358Y-96804480D02*
X124419360Y-96930482D01*
X123276360Y-97261680D02*
X122819160Y-97261680D01*
X123276360Y-96804480D02*
X123733560Y-96804480D01*
X123276360Y-97261680D02*
X123276360Y-96804480D01*
X122819160Y-97261680D02*
X123733560Y-97261680D01*
D32*
X121889520Y-92852240D02*
X122196199Y-92545561D01*
X122196199Y-92545561D02*
X122641360Y-92545561D01*
X121889520Y-94970600D02*
X121889520Y-92852240D01*
X121889520Y-95544640D02*
X121889520Y-94970600D01*
X121889520Y-94970600D02*
X122092720Y-94767400D01*
D35*
X122209560Y-93365320D02*
X122209560Y-92943680D01*
X122209560Y-95242380D02*
X122209560Y-93365320D01*
D32*
X122092720Y-94767400D02*
X122092720Y-94449202D01*
X122092720Y-94449202D02*
X122209560Y-94332362D01*
X122209560Y-94332362D02*
X122209560Y-93365320D01*
X122092720Y-94767400D02*
X122092720Y-95341440D01*
X122092720Y-95341440D02*
X121889520Y-95544640D01*
X122317719Y-94542401D02*
X122317719Y-94512339D01*
X122092720Y-94767400D02*
X122317719Y-94542401D01*
X122317719Y-94512339D02*
X122209560Y-94404180D01*
D31*
X121889520Y-95544640D02*
X121889520Y-95539560D01*
X121889520Y-95539560D02*
X122214640Y-95214440D01*
X121551370Y-95900570D02*
X122654060Y-94797880D01*
D35*
X122209560Y-92943680D02*
X122243241Y-92943680D01*
X122243241Y-92943680D02*
X122641360Y-92545561D01*
X122209560Y-95242380D02*
X122654060Y-94797880D01*
X121551370Y-95900570D02*
X122209560Y-95242380D01*
D34*
X122654060Y-92558261D02*
X122654060Y-93959680D01*
X122654060Y-93959680D02*
X122654060Y-94378780D01*
D35*
X122209560Y-95242380D02*
X122209560Y-94404180D01*
X122209560Y-94404180D02*
X122654060Y-93959680D01*
X121498360Y-96321880D02*
X121551370Y-96268870D01*
X121551370Y-96268870D02*
X121551370Y-95900570D01*
D34*
X122641360Y-91343480D02*
X122641360Y-92545561D01*
X122641360Y-92545561D02*
X122654060Y-92558261D01*
D35*
X121505870Y-97236280D02*
X121505870Y-96779080D01*
X121505870Y-97236280D02*
X121505870Y-96329390D01*
X121505870Y-96329390D02*
X121498360Y-96321880D01*
D32*
X120604280Y-95006160D02*
X120604280Y-95143320D01*
X120604280Y-95143320D02*
X120858280Y-95397320D01*
D35*
X120855860Y-94645480D02*
X120855860Y-96003682D01*
X120855860Y-96003682D02*
X120855860Y-96321880D01*
X120951359Y-94549981D02*
X120855860Y-94645480D01*
X121282460Y-94962980D02*
X121282460Y-92524580D01*
X121282460Y-92524580D02*
X120101360Y-91343480D01*
X120921660Y-95323780D02*
X121282460Y-94962980D01*
X120855860Y-95323780D02*
X120921660Y-95323780D01*
X120951359Y-95228281D02*
X120951359Y-95179781D01*
X120329960Y-92461080D02*
X120101360Y-92232480D01*
X120101360Y-92232480D02*
X120101360Y-91343480D01*
X120329960Y-94823280D02*
X120329960Y-92461080D01*
X120734961Y-95228281D02*
X120329960Y-94823280D01*
X120951359Y-95228281D02*
X120734961Y-95228281D01*
X120855860Y-95323780D02*
X120951359Y-95228281D01*
X120951359Y-95228281D02*
X120951359Y-92193479D01*
X120855860Y-95547180D02*
X120855860Y-95323780D01*
X120855860Y-96321880D02*
X120855860Y-95547180D01*
X120855860Y-95547180D02*
X120855860Y-94645480D01*
X120855860Y-94645480D02*
X120855860Y-92097980D01*
D34*
X120101360Y-91343480D02*
X120951359Y-92193479D01*
X120951359Y-92193479D02*
X120951359Y-94549981D01*
D35*
X120855860Y-92097980D02*
X120101360Y-91343480D01*
X120855860Y-97236290D02*
X120855860Y-96321880D01*
D31*
X120855860Y-97236290D02*
X120855860Y-96779080D01*
D32*
X118597680Y-97261680D02*
X118597680Y-97063560D01*
X118597680Y-97063560D02*
X118831360Y-96829880D01*
X119059960Y-97236280D02*
X119555860Y-97732180D01*
X119555860Y-97732180D02*
X119555860Y-98347480D01*
D36*
X118963440Y-97236280D02*
X117561360Y-95834200D01*
X119059960Y-97236280D02*
X118963440Y-97236280D01*
X117561360Y-95834200D02*
X117561360Y-95660482D01*
X117561360Y-95660482D02*
X117561360Y-91343480D01*
D32*
X118831360Y-96829880D02*
X119288560Y-96829880D01*
D31*
X118831360Y-96829880D02*
X118831360Y-97007680D01*
X118831360Y-97007680D02*
X119059960Y-97236280D01*
D32*
X112006400Y-116276800D02*
X112014000Y-116269200D01*
D35*
X122590560Y-96575880D02*
X123985360Y-95181080D01*
X123985360Y-95181080D02*
X123985360Y-94899480D01*
X122158760Y-96512380D02*
X123771660Y-94899480D01*
X122158760Y-97261680D02*
X122158760Y-96512380D01*
X123771660Y-94899480D02*
X123985360Y-94899480D01*
X122158760Y-97261680D02*
X122158760Y-96779080D01*
X122590560Y-96575880D02*
X122438160Y-96575880D01*
X122438160Y-96575880D02*
X122184160Y-96321880D01*
X122158760Y-96779080D02*
X122387360Y-96779080D01*
X122387360Y-96779080D02*
X122590560Y-96575880D01*
D32*
X120202960Y-96321880D02*
X120202960Y-95837080D01*
X120202960Y-95837080D02*
X119821960Y-95456080D01*
X120202960Y-96003682D02*
X119821960Y-95622682D01*
X120202960Y-96321880D02*
X120202960Y-96003682D01*
X119821960Y-95622682D02*
X119821960Y-95456080D01*
D33*
X119821960Y-96001840D02*
X119821960Y-95456080D01*
X119821960Y-96220280D02*
X119821960Y-96001840D01*
D32*
X120202960Y-96321880D02*
X119882920Y-96001840D01*
X119882920Y-96001840D02*
X119821960Y-96001840D01*
D35*
X120205860Y-97239180D02*
X120205860Y-96324780D01*
X120205860Y-96324780D02*
X120202960Y-96321880D01*
X120205860Y-97239180D02*
X120205860Y-96920982D01*
X120205860Y-96920982D02*
X119913561Y-96628683D01*
X119913561Y-96628683D02*
X119913561Y-96550480D01*
D33*
X119923560Y-96321880D02*
X119821960Y-96220280D01*
X120202960Y-96321880D02*
X119923560Y-96321880D01*
X119821960Y-95456080D02*
X119265360Y-94899480D01*
D32*
X120202960Y-96779080D02*
X120025160Y-96779080D01*
X120025160Y-96779080D02*
X119796560Y-96550480D01*
X119796560Y-96550480D02*
X119974360Y-96550480D01*
X119974360Y-96550480D02*
X120202960Y-96321880D01*
D34*
X124165360Y-100931980D02*
X124165360Y-101185980D01*
X117839360Y-102431980D02*
X119339360Y-100931980D01*
X117839360Y-106329480D02*
X117839360Y-102431980D01*
D32*
X122155860Y-103897480D02*
X122155860Y-106073980D01*
X122155860Y-106073980D02*
X122411360Y-106329480D01*
X120839360Y-104655390D02*
X120839360Y-103913980D01*
X120839360Y-103913980D02*
X120855860Y-103897480D01*
D33*
X120839360Y-106329480D02*
X120839360Y-104655390D01*
D34*
X120839360Y-106629480D02*
X120839360Y-106329480D01*
D31*
X123094460Y-97083880D02*
X124265962Y-97083880D01*
X122805860Y-98347480D02*
X122805860Y-97372480D01*
X122805860Y-97372480D02*
X123094460Y-97083880D01*
X121505860Y-98347480D02*
X121505860Y-97152580D01*
X120855860Y-98347480D02*
X120855860Y-97236290D01*
X119267260Y-97083880D02*
X118984758Y-97083880D01*
X118984758Y-97083880D02*
X117561360Y-95660482D01*
X117561360Y-95660482D02*
X117561360Y-92643480D01*
X117561360Y-92643480D02*
X117561360Y-91343480D01*
X119555860Y-98347480D02*
X119555860Y-97372480D01*
X119555860Y-97372480D02*
X119267260Y-97083880D01*
D34*
X116989860Y-91152980D02*
X116989860Y-91406980D01*
D31*
X122155860Y-98347480D02*
X122155860Y-96959780D01*
X120205860Y-98347480D02*
X120205860Y-97239180D01*
D33*
X119265360Y-94899480D02*
X119265360Y-95587480D01*
D32*
X117805200Y-98247200D02*
X118805580Y-98247200D01*
X118805580Y-98247200D02*
X118905860Y-98347480D01*
X124779438Y-117636689D02*
X124756537Y-117636689D01*
X126394000Y-118080000D02*
X125222749Y-118080000D01*
X124756537Y-117636689D02*
X124356538Y-117236690D01*
X125222749Y-118080000D02*
X124779438Y-117636689D01*
X120494000Y-119380000D02*
X121818400Y-119380000D01*
X121818400Y-119380000D02*
X121869200Y-119329200D01*
X123982980Y-98399600D02*
X124968000Y-98399600D01*
X123455860Y-98347480D02*
X123930860Y-98347480D01*
X123930860Y-98347480D02*
X123982980Y-98399600D01*
X121369600Y-128989600D02*
X120777000Y-128397000D01*
X121369600Y-129669500D02*
X121369600Y-128989600D01*
X120777000Y-128397000D02*
X120777000Y-126936500D01*
X119837200Y-129755200D02*
X121283900Y-129755200D01*
X121283900Y-129755200D02*
X121369600Y-129669500D01*
X123689600Y-131569500D02*
X123954500Y-131569500D01*
X125022000Y-129856800D02*
X125222000Y-129856800D01*
X118821200Y-119481600D02*
X117881400Y-120421400D01*
X118821200Y-118777800D02*
X118821200Y-119481600D01*
X117881400Y-120421400D02*
X117406400Y-120421400D01*
X118821200Y-118777800D02*
X119519000Y-118080000D01*
X119519000Y-118080000D02*
X120494000Y-118080000D01*
X127101600Y-104839200D02*
X127101600Y-109336518D01*
X127101600Y-109336518D02*
X127419962Y-109654880D01*
X124757831Y-118646314D02*
X124357832Y-118246315D01*
X126394000Y-118730000D02*
X124841517Y-118730000D01*
X124841517Y-118730000D02*
X124757831Y-118646314D01*
X120205860Y-104672480D02*
X120114359Y-104763981D01*
X120205860Y-103897480D02*
X120205860Y-104672480D01*
X120114359Y-103900381D02*
X120114359Y-110009641D01*
X120114359Y-110009641D02*
X120084799Y-110039201D01*
X120084799Y-110039201D02*
X119684800Y-110439200D01*
D37*
G36*
X125211191Y-122012809D02*
X125421235Y-122153157D01*
X125669000Y-122202440D01*
X127119000Y-122202440D01*
X127366765Y-122153157D01*
X127468675Y-122085062D01*
X127665537Y-122045904D01*
X127789001Y-121963408D01*
X127789001Y-123725000D01*
X125657612Y-123725000D01*
X125586611Y-123739123D01*
X125586608Y-123739123D01*
X125474112Y-123761500D01*
X124650500Y-123761500D01*
X124650500Y-123781500D01*
X124396500Y-123781500D01*
X124396500Y-123761500D01*
X124385473Y-123761500D01*
X124410735Y-123634500D01*
X124385473Y-123507500D01*
X124396500Y-123507500D01*
X124396500Y-123487500D01*
X124650500Y-123487500D01*
X124650500Y-123507500D01*
X125499750Y-123507500D01*
X125658500Y-123348750D01*
X125658500Y-123008191D01*
X125561827Y-122774802D01*
X125383199Y-122596173D01*
X125239233Y-122536540D01*
X125241000Y-122532274D01*
X125241000Y-122120526D01*
X125172230Y-121954500D01*
X125211191Y-122012809D01*
X125211191Y-122012809D01*
G37*
X125211191Y-122012809D02*
X125421235Y-122153157D01*
X125669000Y-122202440D01*
X127119000Y-122202440D01*
X127366765Y-122153157D01*
X127468675Y-122085062D01*
X127665537Y-122045904D01*
X127789001Y-121963408D01*
X127789001Y-123725000D01*
X125657612Y-123725000D01*
X125586611Y-123739123D01*
X125586608Y-123739123D01*
X125474112Y-123761500D01*
X124650500Y-123761500D01*
X124650500Y-123781500D01*
X124396500Y-123781500D01*
X124396500Y-123761500D01*
X124385473Y-123761500D01*
X124410735Y-123634500D01*
X124385473Y-123507500D01*
X124396500Y-123507500D01*
X124396500Y-123487500D01*
X124650500Y-123487500D01*
X124650500Y-123507500D01*
X125499750Y-123507500D01*
X125658500Y-123348750D01*
X125658500Y-123008191D01*
X125561827Y-122774802D01*
X125383199Y-122596173D01*
X125239233Y-122536540D01*
X125241000Y-122532274D01*
X125241000Y-122120526D01*
X125172230Y-121954500D01*
X125211191Y-122012809D01*
G36*
X110583960Y-118181400D02*
X110633243Y-118429165D01*
X110691532Y-118516400D01*
X110633243Y-118603635D01*
X110583960Y-118851400D01*
X110583960Y-119451400D01*
X110633243Y-119699165D01*
X110686168Y-119778372D01*
X110596400Y-119995090D01*
X110596400Y-120135650D01*
X110755150Y-120294400D01*
X111879400Y-120294400D01*
X111879400Y-120274400D01*
X112133400Y-120274400D01*
X112133400Y-120294400D01*
X113257650Y-120294400D01*
X113416400Y-120135650D01*
X113416400Y-119995090D01*
X113355767Y-119848709D01*
X113579329Y-119699329D01*
X113621731Y-119635870D01*
X114616202Y-118641400D01*
X116025731Y-118641400D01*
X115983960Y-118851400D01*
X115983960Y-119451400D01*
X116033243Y-119699165D01*
X116091532Y-119786400D01*
X116033243Y-119873635D01*
X115983960Y-120121400D01*
X115983960Y-120721400D01*
X116033243Y-120969165D01*
X116091532Y-121056400D01*
X116033243Y-121143635D01*
X115983960Y-121391400D01*
X115983960Y-121991400D01*
X116033243Y-122239165D01*
X116173591Y-122449209D01*
X116383635Y-122589557D01*
X116631400Y-122638840D01*
X118181400Y-122638840D01*
X118193290Y-122636475D01*
X118198198Y-122661151D01*
X118198198Y-122661155D01*
X118242294Y-122882840D01*
X118410269Y-123134233D01*
X118473728Y-123176635D01*
X119022092Y-123725000D01*
X106602200Y-123725000D01*
X106602200Y-123424035D01*
X106630757Y-123443116D01*
X107104755Y-123537400D01*
X109404845Y-123537400D01*
X109878843Y-123443116D01*
X110416359Y-123083959D01*
X110775516Y-122546443D01*
X110792362Y-122461752D01*
X110983635Y-122589557D01*
X111231400Y-122638840D01*
X112781400Y-122638840D01*
X113029165Y-122589557D01*
X113239209Y-122449209D01*
X113379557Y-122239165D01*
X113428840Y-121991400D01*
X113428840Y-121391400D01*
X113379557Y-121143635D01*
X113326632Y-121064428D01*
X113416400Y-120847710D01*
X113416400Y-120707150D01*
X113257650Y-120548400D01*
X112133400Y-120548400D01*
X112133400Y-120568400D01*
X111879400Y-120568400D01*
X111879400Y-120548400D01*
X110755150Y-120548400D01*
X110596400Y-120707150D01*
X110596400Y-120847710D01*
X110631066Y-120931400D01*
X110543687Y-120931400D01*
X110416359Y-120740841D01*
X110041723Y-120490517D01*
X110272498Y-120394927D01*
X110451127Y-120216299D01*
X110547800Y-119982910D01*
X110547800Y-119767350D01*
X110389050Y-119608600D01*
X109639800Y-119608600D01*
X109639800Y-119628600D01*
X109385800Y-119628600D01*
X109385800Y-119608600D01*
X109365800Y-119608600D01*
X109365800Y-119354600D01*
X109385800Y-119354600D01*
X109385800Y-119334600D01*
X109639800Y-119334600D01*
X109639800Y-119354600D01*
X110389050Y-119354600D01*
X110547800Y-119195850D01*
X110547800Y-118980290D01*
X110451127Y-118746901D01*
X110272498Y-118568273D01*
X110039109Y-118471600D01*
X109798550Y-118471600D01*
X109639802Y-118630348D01*
X109639802Y-118471600D01*
X109605596Y-118471600D01*
X109983993Y-118365103D01*
X110483651Y-117971646D01*
X110583960Y-117792760D01*
X110583960Y-118181400D01*
X110583960Y-118181400D01*
G37*
X110583960Y-118181400D02*
X110633243Y-118429165D01*
X110691532Y-118516400D01*
X110633243Y-118603635D01*
X110583960Y-118851400D01*
X110583960Y-119451400D01*
X110633243Y-119699165D01*
X110686168Y-119778372D01*
X110596400Y-119995090D01*
X110596400Y-120135650D01*
X110755150Y-120294400D01*
X111879400Y-120294400D01*
X111879400Y-120274400D01*
X112133400Y-120274400D01*
X112133400Y-120294400D01*
X113257650Y-120294400D01*
X113416400Y-120135650D01*
X113416400Y-119995090D01*
X113355767Y-119848709D01*
X113579329Y-119699329D01*
X113621731Y-119635870D01*
X114616202Y-118641400D01*
X116025731Y-118641400D01*
X115983960Y-118851400D01*
X115983960Y-119451400D01*
X116033243Y-119699165D01*
X116091532Y-119786400D01*
X116033243Y-119873635D01*
X115983960Y-120121400D01*
X115983960Y-120721400D01*
X116033243Y-120969165D01*
X116091532Y-121056400D01*
X116033243Y-121143635D01*
X115983960Y-121391400D01*
X115983960Y-121991400D01*
X116033243Y-122239165D01*
X116173591Y-122449209D01*
X116383635Y-122589557D01*
X116631400Y-122638840D01*
X118181400Y-122638840D01*
X118193290Y-122636475D01*
X118198198Y-122661151D01*
X118198198Y-122661155D01*
X118242294Y-122882840D01*
X118410269Y-123134233D01*
X118473728Y-123176635D01*
X119022092Y-123725000D01*
X106602200Y-123725000D01*
X106602200Y-123424035D01*
X106630757Y-123443116D01*
X107104755Y-123537400D01*
X109404845Y-123537400D01*
X109878843Y-123443116D01*
X110416359Y-123083959D01*
X110775516Y-122546443D01*
X110792362Y-122461752D01*
X110983635Y-122589557D01*
X111231400Y-122638840D01*
X112781400Y-122638840D01*
X113029165Y-122589557D01*
X113239209Y-122449209D01*
X113379557Y-122239165D01*
X113428840Y-121991400D01*
X113428840Y-121391400D01*
X113379557Y-121143635D01*
X113326632Y-121064428D01*
X113416400Y-120847710D01*
X113416400Y-120707150D01*
X113257650Y-120548400D01*
X112133400Y-120548400D01*
X112133400Y-120568400D01*
X111879400Y-120568400D01*
X111879400Y-120548400D01*
X110755150Y-120548400D01*
X110596400Y-120707150D01*
X110596400Y-120847710D01*
X110631066Y-120931400D01*
X110543687Y-120931400D01*
X110416359Y-120740841D01*
X110041723Y-120490517D01*
X110272498Y-120394927D01*
X110451127Y-120216299D01*
X110547800Y-119982910D01*
X110547800Y-119767350D01*
X110389050Y-119608600D01*
X109639800Y-119608600D01*
X109639800Y-119628600D01*
X109385800Y-119628600D01*
X109385800Y-119608600D01*
X109365800Y-119608600D01*
X109365800Y-119354600D01*
X109385800Y-119354600D01*
X109385800Y-119334600D01*
X109639800Y-119334600D01*
X109639800Y-119354600D01*
X110389050Y-119354600D01*
X110547800Y-119195850D01*
X110547800Y-118980290D01*
X110451127Y-118746901D01*
X110272498Y-118568273D01*
X110039109Y-118471600D01*
X109798550Y-118471600D01*
X109639802Y-118630348D01*
X109639802Y-118471600D01*
X109605596Y-118471600D01*
X109983993Y-118365103D01*
X110483651Y-117971646D01*
X110583960Y-117792760D01*
X110583960Y-118181400D01*
G36*
X123733684Y-120514476D02*
X123776082Y-120577929D01*
X123839535Y-120620327D01*
X123839537Y-120620329D01*
X123928842Y-120680000D01*
X124027474Y-120745904D01*
X124249159Y-120790000D01*
X124249163Y-120790000D01*
X124324010Y-120804888D01*
X124398857Y-120790000D01*
X125021560Y-120790000D01*
X125021560Y-120905000D01*
X125041451Y-121005000D01*
X125021560Y-121105000D01*
X125021560Y-121555000D01*
X125052163Y-121708852D01*
X124792280Y-121448969D01*
X124411874Y-121291400D01*
X124000126Y-121291400D01*
X123619720Y-121448969D01*
X123598747Y-121469942D01*
X123485941Y-121197602D01*
X123194790Y-120906451D01*
X122814384Y-120748882D01*
X122743500Y-120748882D01*
X122743500Y-120664746D01*
X122758388Y-120589898D01*
X122743500Y-120515050D01*
X122743500Y-120515046D01*
X122699404Y-120293361D01*
X122566962Y-120095149D01*
X122746631Y-119915480D01*
X122860290Y-119641081D01*
X123733684Y-120514476D01*
X123733684Y-120514476D01*
G37*
X123733684Y-120514476D02*
X123776082Y-120577929D01*
X123839535Y-120620327D01*
X123839537Y-120620329D01*
X123928842Y-120680000D01*
X124027474Y-120745904D01*
X124249159Y-120790000D01*
X124249163Y-120790000D01*
X124324010Y-120804888D01*
X124398857Y-120790000D01*
X125021560Y-120790000D01*
X125021560Y-120905000D01*
X125041451Y-121005000D01*
X125021560Y-121105000D01*
X125021560Y-121555000D01*
X125052163Y-121708852D01*
X124792280Y-121448969D01*
X124411874Y-121291400D01*
X124000126Y-121291400D01*
X123619720Y-121448969D01*
X123598747Y-121469942D01*
X123485941Y-121197602D01*
X123194790Y-120906451D01*
X122814384Y-120748882D01*
X122743500Y-120748882D01*
X122743500Y-120664746D01*
X122758388Y-120589898D01*
X122743500Y-120515050D01*
X122743500Y-120515046D01*
X122699404Y-120293361D01*
X122566962Y-120095149D01*
X122746631Y-119915480D01*
X122860290Y-119641081D01*
X123733684Y-120514476D01*
G36*
X114077400Y-114229450D02*
X114236150Y-114388200D01*
X114960400Y-114388200D01*
X114960400Y-114368200D01*
X115214400Y-114368200D01*
X115214400Y-114388200D01*
X115234400Y-114388200D01*
X115234400Y-114642200D01*
X115214400Y-114642200D01*
X115214400Y-114662200D01*
X114960400Y-114662200D01*
X114960400Y-114642200D01*
X114236150Y-114642200D01*
X114077400Y-114800950D01*
X114077400Y-115041509D01*
X114174073Y-115274898D01*
X114175273Y-115276098D01*
X114114243Y-115367435D01*
X114064960Y-115615200D01*
X114064960Y-116415200D01*
X114114243Y-116662965D01*
X114254591Y-116873009D01*
X114464635Y-117013357D01*
X114712400Y-117062640D01*
X115462400Y-117062640D01*
X115710165Y-117013357D01*
X115920209Y-116873009D01*
X115969732Y-116798893D01*
X116142235Y-116914157D01*
X116390000Y-116963440D01*
X116483192Y-116963440D01*
X116383635Y-116983243D01*
X116176870Y-117121400D01*
X114376246Y-117121400D01*
X114301399Y-117106512D01*
X114226552Y-117121400D01*
X114226548Y-117121400D01*
X114004863Y-117165496D01*
X113753471Y-117333471D01*
X113711071Y-117396927D01*
X113428840Y-117679158D01*
X113428840Y-117581400D01*
X113379557Y-117333635D01*
X113239209Y-117123591D01*
X113029165Y-116983243D01*
X112930727Y-116963663D01*
X113062157Y-116766965D01*
X113111440Y-116519200D01*
X113111440Y-116019200D01*
X113062157Y-115771435D01*
X112921809Y-115561391D01*
X112858666Y-115519200D01*
X112921809Y-115477009D01*
X113062157Y-115266965D01*
X113111440Y-115019200D01*
X113111440Y-114519200D01*
X113062157Y-114271435D01*
X112921809Y-114061391D01*
X112900872Y-114047401D01*
X114077400Y-114047401D01*
X114077400Y-114229450D01*
X114077400Y-114229450D01*
G37*
X114077400Y-114229450D02*
X114236150Y-114388200D01*
X114960400Y-114388200D01*
X114960400Y-114368200D01*
X115214400Y-114368200D01*
X115214400Y-114388200D01*
X115234400Y-114388200D01*
X115234400Y-114642200D01*
X115214400Y-114642200D01*
X115214400Y-114662200D01*
X114960400Y-114662200D01*
X114960400Y-114642200D01*
X114236150Y-114642200D01*
X114077400Y-114800950D01*
X114077400Y-115041509D01*
X114174073Y-115274898D01*
X114175273Y-115276098D01*
X114114243Y-115367435D01*
X114064960Y-115615200D01*
X114064960Y-116415200D01*
X114114243Y-116662965D01*
X114254591Y-116873009D01*
X114464635Y-117013357D01*
X114712400Y-117062640D01*
X115462400Y-117062640D01*
X115710165Y-117013357D01*
X115920209Y-116873009D01*
X115969732Y-116798893D01*
X116142235Y-116914157D01*
X116390000Y-116963440D01*
X116483192Y-116963440D01*
X116383635Y-116983243D01*
X116176870Y-117121400D01*
X114376246Y-117121400D01*
X114301399Y-117106512D01*
X114226552Y-117121400D01*
X114226548Y-117121400D01*
X114004863Y-117165496D01*
X113753471Y-117333471D01*
X113711071Y-117396927D01*
X113428840Y-117679158D01*
X113428840Y-117581400D01*
X113379557Y-117333635D01*
X113239209Y-117123591D01*
X113029165Y-116983243D01*
X112930727Y-116963663D01*
X113062157Y-116766965D01*
X113111440Y-116519200D01*
X113111440Y-116019200D01*
X113062157Y-115771435D01*
X112921809Y-115561391D01*
X112858666Y-115519200D01*
X112921809Y-115477009D01*
X113062157Y-115266965D01*
X113111440Y-115019200D01*
X113111440Y-114519200D01*
X113062157Y-114271435D01*
X112921809Y-114061391D01*
X112900872Y-114047401D01*
X114077400Y-114047401D01*
X114077400Y-114229450D01*
G36*
X126934979Y-116465171D02*
X126934979Y-116570000D01*
X126679750Y-116570000D01*
X126521000Y-116728750D01*
X126521000Y-117207560D01*
X126267000Y-117207560D01*
X126267000Y-116728750D01*
X126108250Y-116570000D01*
X125542691Y-116570000D01*
X125309302Y-116666673D01*
X125260797Y-116715178D01*
X125233969Y-116650410D01*
X124942818Y-116359259D01*
X124668939Y-116245815D01*
X124718704Y-116171337D01*
X124762800Y-115949652D01*
X124762800Y-115949647D01*
X124777688Y-115874800D01*
X124762800Y-115799953D01*
X124762800Y-115390846D01*
X124777688Y-115315999D01*
X124762800Y-115241152D01*
X124762800Y-115241148D01*
X124718704Y-115019463D01*
X124550729Y-114768071D01*
X124487270Y-114725669D01*
X124483485Y-114721884D01*
X124487476Y-114720231D01*
X124778627Y-114429080D01*
X124813851Y-114344042D01*
X126934979Y-116465171D01*
X126934979Y-116465171D01*
G37*
X126934979Y-116465171D02*
X126934979Y-116570000D01*
X126679750Y-116570000D01*
X126521000Y-116728750D01*
X126521000Y-117207560D01*
X126267000Y-117207560D01*
X126267000Y-116728750D01*
X126108250Y-116570000D01*
X125542691Y-116570000D01*
X125309302Y-116666673D01*
X125260797Y-116715178D01*
X125233969Y-116650410D01*
X124942818Y-116359259D01*
X124668939Y-116245815D01*
X124718704Y-116171337D01*
X124762800Y-115949652D01*
X124762800Y-115949647D01*
X124777688Y-115874800D01*
X124762800Y-115799953D01*
X124762800Y-115390846D01*
X124777688Y-115315999D01*
X124762800Y-115241152D01*
X124762800Y-115241148D01*
X124718704Y-115019463D01*
X124550729Y-114768071D01*
X124487270Y-114725669D01*
X124483485Y-114721884D01*
X124487476Y-114720231D01*
X124778627Y-114429080D01*
X124813851Y-114344042D01*
X126934979Y-116465171D01*
G36*
X108373190Y-113635922D02*
X108436512Y-113730690D01*
X108803152Y-113975671D01*
X108811946Y-113981547D01*
X109254801Y-114069636D01*
X109366584Y-114047401D01*
X110217000Y-114047401D01*
X110217000Y-114235884D01*
X110374569Y-114616290D01*
X110665720Y-114907441D01*
X110916560Y-115011342D01*
X110916560Y-115019200D01*
X110965843Y-115266965D01*
X111106191Y-115477009D01*
X111169334Y-115519200D01*
X111106191Y-115561391D01*
X110965843Y-115771435D01*
X110916560Y-116019200D01*
X110916560Y-116519200D01*
X110965843Y-116766965D01*
X111095490Y-116960994D01*
X110983635Y-116983243D01*
X110773591Y-117123591D01*
X110757150Y-117148196D01*
X110705540Y-117039400D01*
X108381800Y-117039400D01*
X108381800Y-117059400D01*
X108127800Y-117059400D01*
X108127800Y-117039400D01*
X108107800Y-117039400D01*
X108107800Y-116785400D01*
X108127800Y-116785400D01*
X108127800Y-115287400D01*
X108381800Y-115287400D01*
X108381800Y-116785400D01*
X110705540Y-116785400D01*
X110825018Y-116533535D01*
X110794705Y-116407872D01*
X110483651Y-115853154D01*
X109983993Y-115459697D01*
X109371800Y-115287400D01*
X108381800Y-115287400D01*
X108127800Y-115287400D01*
X107137800Y-115287400D01*
X106602200Y-115438140D01*
X106602200Y-113549840D01*
X108287108Y-113549840D01*
X108373190Y-113635922D01*
X108373190Y-113635922D01*
G37*
X108373190Y-113635922D02*
X108436512Y-113730690D01*
X108803152Y-113975671D01*
X108811946Y-113981547D01*
X109254801Y-114069636D01*
X109366584Y-114047401D01*
X110217000Y-114047401D01*
X110217000Y-114235884D01*
X110374569Y-114616290D01*
X110665720Y-114907441D01*
X110916560Y-115011342D01*
X110916560Y-115019200D01*
X110965843Y-115266965D01*
X111106191Y-115477009D01*
X111169334Y-115519200D01*
X111106191Y-115561391D01*
X110965843Y-115771435D01*
X110916560Y-116019200D01*
X110916560Y-116519200D01*
X110965843Y-116766965D01*
X111095490Y-116960994D01*
X110983635Y-116983243D01*
X110773591Y-117123591D01*
X110757150Y-117148196D01*
X110705540Y-117039400D01*
X108381800Y-117039400D01*
X108381800Y-117059400D01*
X108127800Y-117059400D01*
X108127800Y-117039400D01*
X108107800Y-117039400D01*
X108107800Y-116785400D01*
X108127800Y-116785400D01*
X108127800Y-115287400D01*
X108381800Y-115287400D01*
X108381800Y-116785400D01*
X110705540Y-116785400D01*
X110825018Y-116533535D01*
X110794705Y-116407872D01*
X110483651Y-115853154D01*
X109983993Y-115459697D01*
X109371800Y-115287400D01*
X108381800Y-115287400D01*
X108127800Y-115287400D01*
X107137800Y-115287400D01*
X106602200Y-115438140D01*
X106602200Y-113549840D01*
X108287108Y-113549840D01*
X108373190Y-113635922D01*
G36*
X126156445Y-108988702D02*
X126341601Y-109025532D01*
X126341601Y-109261666D01*
X126326712Y-109336518D01*
X126384962Y-109629360D01*
X126384962Y-109860754D01*
X126542531Y-110241160D01*
X126833682Y-110532311D01*
X127214088Y-110689880D01*
X127625836Y-110689880D01*
X127789000Y-110622295D01*
X127789000Y-111147539D01*
X127565109Y-111054800D01*
X127324550Y-111054800D01*
X127165800Y-111213550D01*
X127165800Y-111937800D01*
X127185800Y-111937800D01*
X127185800Y-112191800D01*
X127165800Y-112191800D01*
X127165800Y-112916050D01*
X127324550Y-113074800D01*
X127565109Y-113074800D01*
X127789000Y-112982061D01*
X127789000Y-114674599D01*
X126158034Y-113043632D01*
X126186565Y-113037957D01*
X126277902Y-112976927D01*
X126279102Y-112978127D01*
X126512491Y-113074800D01*
X126753050Y-113074800D01*
X126911800Y-112916050D01*
X126911800Y-112191800D01*
X126891800Y-112191800D01*
X126891800Y-111937800D01*
X126911800Y-111937800D01*
X126911800Y-111213550D01*
X126753050Y-111054800D01*
X126512491Y-111054800D01*
X126279102Y-111151473D01*
X126277902Y-111152673D01*
X126186565Y-111091643D01*
X126029946Y-111060490D01*
X126029946Y-110431722D01*
X126147377Y-110314291D01*
X126304946Y-109933885D01*
X126304946Y-109522137D01*
X126147377Y-109141731D01*
X126006162Y-109000516D01*
X126065555Y-108988702D01*
X126111000Y-108958337D01*
X126156445Y-108988702D01*
X126156445Y-108988702D01*
G37*
X126156445Y-108988702D02*
X126341601Y-109025532D01*
X126341601Y-109261666D01*
X126326712Y-109336518D01*
X126384962Y-109629360D01*
X126384962Y-109860754D01*
X126542531Y-110241160D01*
X126833682Y-110532311D01*
X127214088Y-110689880D01*
X127625836Y-110689880D01*
X127789000Y-110622295D01*
X127789000Y-111147539D01*
X127565109Y-111054800D01*
X127324550Y-111054800D01*
X127165800Y-111213550D01*
X127165800Y-111937800D01*
X127185800Y-111937800D01*
X127185800Y-112191800D01*
X127165800Y-112191800D01*
X127165800Y-112916050D01*
X127324550Y-113074800D01*
X127565109Y-113074800D01*
X127789000Y-112982061D01*
X127789000Y-114674599D01*
X126158034Y-113043632D01*
X126186565Y-113037957D01*
X126277902Y-112976927D01*
X126279102Y-112978127D01*
X126512491Y-113074800D01*
X126753050Y-113074800D01*
X126911800Y-112916050D01*
X126911800Y-112191800D01*
X126891800Y-112191800D01*
X126891800Y-111937800D01*
X126911800Y-111937800D01*
X126911800Y-111213550D01*
X126753050Y-111054800D01*
X126512491Y-111054800D01*
X126279102Y-111151473D01*
X126277902Y-111152673D01*
X126186565Y-111091643D01*
X126029946Y-111060490D01*
X126029946Y-110431722D01*
X126147377Y-110314291D01*
X126304946Y-109933885D01*
X126304946Y-109522137D01*
X126147377Y-109141731D01*
X126006162Y-109000516D01*
X126065555Y-108988702D01*
X126111000Y-108958337D01*
X126156445Y-108988702D01*
G36*
X116210960Y-113405000D02*
X116260243Y-113652765D01*
X116284781Y-113689489D01*
X116142235Y-113717843D01*
X116019185Y-113800063D01*
X116000727Y-113755502D01*
X115822099Y-113576873D01*
X115801332Y-113568271D01*
X115840157Y-113510165D01*
X115862700Y-113396831D01*
X116210960Y-113048571D01*
X116210960Y-113405000D01*
X116210960Y-113405000D01*
G37*
X116210960Y-113405000D02*
X116260243Y-113652765D01*
X116284781Y-113689489D01*
X116142235Y-113717843D01*
X116019185Y-113800063D01*
X116000727Y-113755502D01*
X115822099Y-113576873D01*
X115801332Y-113568271D01*
X115840157Y-113510165D01*
X115862700Y-113396831D01*
X116210960Y-113048571D01*
X116210960Y-113405000D01*
G36*
X118885400Y-112903000D02*
X118905400Y-112903000D01*
X118905400Y-113157000D01*
X118885400Y-113157000D01*
X118885400Y-113177000D01*
X118631400Y-113177000D01*
X118631400Y-113157000D01*
X118611400Y-113157000D01*
X118611400Y-112903000D01*
X118631400Y-112903000D01*
X118631400Y-112883000D01*
X118885400Y-112883000D01*
X118885400Y-112903000D01*
X118885400Y-112903000D01*
G37*
X118885400Y-112903000D02*
X118905400Y-112903000D01*
X118905400Y-113157000D01*
X118885400Y-113157000D01*
X118885400Y-113177000D01*
X118631400Y-113177000D01*
X118631400Y-113157000D01*
X118611400Y-113157000D01*
X118611400Y-112903000D01*
X118631400Y-112903000D01*
X118631400Y-112883000D01*
X118885400Y-112883000D01*
X118885400Y-112903000D01*
G36*
X121144600Y-112801400D02*
X121164600Y-112801400D01*
X121164600Y-113055400D01*
X121144600Y-113055400D01*
X121144600Y-113075400D01*
X121024688Y-113075400D01*
X121001616Y-113040871D01*
X120870600Y-112953329D01*
X120870600Y-112801400D01*
X120890600Y-112801400D01*
X120890600Y-112781400D01*
X121144600Y-112781400D01*
X121144600Y-112801400D01*
X121144600Y-112801400D01*
G37*
X121144600Y-112801400D02*
X121164600Y-112801400D01*
X121164600Y-113055400D01*
X121144600Y-113055400D01*
X121144600Y-113075400D01*
X121024688Y-113075400D01*
X121001616Y-113040871D01*
X120870600Y-112953329D01*
X120870600Y-112801400D01*
X120890600Y-112801400D01*
X120890600Y-112781400D01*
X121144600Y-112781400D01*
X121144600Y-112801400D01*
G36*
X123108445Y-108988702D02*
X123167001Y-109000350D01*
X123167002Y-110115400D01*
X122933326Y-110115400D01*
X122552920Y-110272969D01*
X122261769Y-110564120D01*
X122104200Y-110944526D01*
X122104200Y-111356274D01*
X122261769Y-111736680D01*
X122359044Y-111833955D01*
X122287039Y-111905960D01*
X122117600Y-111905960D01*
X121869835Y-111955243D01*
X121778498Y-112016273D01*
X121777298Y-112015073D01*
X121543909Y-111918400D01*
X121303350Y-111918400D01*
X121144602Y-112077148D01*
X121144602Y-112013734D01*
X121562881Y-111595455D01*
X121657649Y-111532133D01*
X121908506Y-111156699D01*
X121928775Y-111054800D01*
X121996595Y-110713845D01*
X121974360Y-110602062D01*
X121974360Y-109038600D01*
X122004701Y-109038600D01*
X122255555Y-108988702D01*
X122301000Y-108958337D01*
X122346445Y-108988702D01*
X122597299Y-109038600D01*
X122766701Y-109038600D01*
X123017555Y-108988702D01*
X123063000Y-108958337D01*
X123108445Y-108988702D01*
X123108445Y-108988702D01*
G37*
X123108445Y-108988702D02*
X123167001Y-109000350D01*
X123167002Y-110115400D01*
X122933326Y-110115400D01*
X122552920Y-110272969D01*
X122261769Y-110564120D01*
X122104200Y-110944526D01*
X122104200Y-111356274D01*
X122261769Y-111736680D01*
X122359044Y-111833955D01*
X122287039Y-111905960D01*
X122117600Y-111905960D01*
X121869835Y-111955243D01*
X121778498Y-112016273D01*
X121777298Y-112015073D01*
X121543909Y-111918400D01*
X121303350Y-111918400D01*
X121144602Y-112077148D01*
X121144602Y-112013734D01*
X121562881Y-111595455D01*
X121657649Y-111532133D01*
X121908506Y-111156699D01*
X121928775Y-111054800D01*
X121996595Y-110713845D01*
X121974360Y-110602062D01*
X121974360Y-109038600D01*
X122004701Y-109038600D01*
X122255555Y-108988702D01*
X122301000Y-108958337D01*
X122346445Y-108988702D01*
X122597299Y-109038600D01*
X122766701Y-109038600D01*
X123017555Y-108988702D01*
X123063000Y-108958337D01*
X123108445Y-108988702D01*
G36*
X116463595Y-92791637D02*
X116551361Y-92809094D01*
X116551361Y-93114229D01*
X116492360Y-93173230D01*
X116492360Y-94772480D01*
X116512360Y-94772480D01*
X116512360Y-95026480D01*
X116492360Y-95026480D01*
X116492360Y-96625730D01*
X116651110Y-96784480D01*
X116941669Y-96784480D01*
X117041806Y-96743002D01*
X117536873Y-97238069D01*
X117218920Y-97369769D01*
X116927769Y-97660920D01*
X116770200Y-98041326D01*
X116770200Y-98453074D01*
X116927769Y-98833480D01*
X117218920Y-99124631D01*
X117599326Y-99282200D01*
X118011074Y-99282200D01*
X118065835Y-99259517D01*
X118033420Y-99422480D01*
X118033420Y-102822480D01*
X118082703Y-103070245D01*
X118100901Y-103097480D01*
X118082703Y-103124715D01*
X118033420Y-103372480D01*
X118033420Y-104422480D01*
X118082703Y-104670245D01*
X118145861Y-104764767D01*
X118145861Y-104894480D01*
X118125110Y-104894480D01*
X117966360Y-105053230D01*
X117966360Y-106202480D01*
X117986360Y-106202480D01*
X117986360Y-106456480D01*
X117966360Y-106456480D01*
X117966360Y-106476480D01*
X117712360Y-106476480D01*
X117712360Y-106456480D01*
X116863110Y-106456480D01*
X116704360Y-106615230D01*
X116704360Y-107063455D01*
X116608433Y-106967529D01*
X116517160Y-106876255D01*
X116269950Y-106711074D01*
X116254200Y-106704550D01*
X116254200Y-105403170D01*
X116704360Y-105403170D01*
X116704360Y-106043730D01*
X116863110Y-106202480D01*
X117712360Y-106202480D01*
X117712360Y-105053230D01*
X117553610Y-104894480D01*
X117213051Y-104894480D01*
X116979662Y-104991153D01*
X116801033Y-105169781D01*
X116704360Y-105403170D01*
X116254200Y-105403170D01*
X116254200Y-92651723D01*
X116463595Y-92791637D01*
X116463595Y-92791637D01*
G37*
X116463595Y-92791637D02*
X116551361Y-92809094D01*
X116551361Y-93114229D01*
X116492360Y-93173230D01*
X116492360Y-94772480D01*
X116512360Y-94772480D01*
X116512360Y-95026480D01*
X116492360Y-95026480D01*
X116492360Y-96625730D01*
X116651110Y-96784480D01*
X116941669Y-96784480D01*
X117041806Y-96743002D01*
X117536873Y-97238069D01*
X117218920Y-97369769D01*
X116927769Y-97660920D01*
X116770200Y-98041326D01*
X116770200Y-98453074D01*
X116927769Y-98833480D01*
X117218920Y-99124631D01*
X117599326Y-99282200D01*
X118011074Y-99282200D01*
X118065835Y-99259517D01*
X118033420Y-99422480D01*
X118033420Y-102822480D01*
X118082703Y-103070245D01*
X118100901Y-103097480D01*
X118082703Y-103124715D01*
X118033420Y-103372480D01*
X118033420Y-104422480D01*
X118082703Y-104670245D01*
X118145861Y-104764767D01*
X118145861Y-104894480D01*
X118125110Y-104894480D01*
X117966360Y-105053230D01*
X117966360Y-106202480D01*
X117986360Y-106202480D01*
X117986360Y-106456480D01*
X117966360Y-106456480D01*
X117966360Y-106476480D01*
X117712360Y-106476480D01*
X117712360Y-106456480D01*
X116863110Y-106456480D01*
X116704360Y-106615230D01*
X116704360Y-107063455D01*
X116608433Y-106967529D01*
X116517160Y-106876255D01*
X116269950Y-106711074D01*
X116254200Y-106704550D01*
X116254200Y-105403170D01*
X116704360Y-105403170D01*
X116704360Y-106043730D01*
X116863110Y-106202480D01*
X117712360Y-106202480D01*
X117712360Y-105053230D01*
X117553610Y-104894480D01*
X117213051Y-104894480D01*
X116979662Y-104991153D01*
X116801033Y-105169781D01*
X116704360Y-105403170D01*
X116254200Y-105403170D01*
X116254200Y-92651723D01*
X116463595Y-92791637D01*
G36*
X127789000Y-93205095D02*
X127695058Y-93111153D01*
X127461669Y-93014480D01*
X127171110Y-93014480D01*
X127012360Y-93173230D01*
X127012360Y-94772480D01*
X127032360Y-94772480D01*
X127032360Y-95026480D01*
X127012360Y-95026480D01*
X127012360Y-96625730D01*
X127171110Y-96784480D01*
X127461669Y-96784480D01*
X127695058Y-96687807D01*
X127789000Y-96593865D01*
X127789001Y-101575700D01*
X127596270Y-101382969D01*
X127215864Y-101225400D01*
X126804116Y-101225400D01*
X126423710Y-101382969D01*
X126132559Y-101674120D01*
X125974990Y-102054526D01*
X125974990Y-102466274D01*
X126100942Y-102770349D01*
X126053443Y-102841435D01*
X126004160Y-103089200D01*
X126004160Y-103589200D01*
X126053443Y-103836965D01*
X126193791Y-104047009D01*
X126256934Y-104089200D01*
X126193791Y-104131391D01*
X126053443Y-104341435D01*
X126004160Y-104589200D01*
X126004160Y-104894480D01*
X125697110Y-104894480D01*
X125538360Y-105053230D01*
X125538360Y-106202480D01*
X125558360Y-106202480D01*
X125558360Y-106456480D01*
X125538360Y-106456480D01*
X125538360Y-106476480D01*
X125284360Y-106476480D01*
X125284360Y-106456480D01*
X125264360Y-106456480D01*
X125264360Y-106202480D01*
X125284360Y-106202480D01*
X125284360Y-105053230D01*
X125125610Y-104894480D01*
X124785051Y-104894480D01*
X124762148Y-104903967D01*
X124320396Y-104462215D01*
X124328300Y-104422480D01*
X124328300Y-103372480D01*
X124279017Y-103124715D01*
X124260819Y-103097480D01*
X124279017Y-103070245D01*
X124328300Y-102822480D01*
X124328300Y-101226467D01*
X124548925Y-101182582D01*
X124833395Y-100992505D01*
X125023472Y-100708035D01*
X125090218Y-100372480D01*
X125023472Y-100036925D01*
X124833395Y-99752455D01*
X124548925Y-99562378D01*
X124328300Y-99518493D01*
X124328300Y-99422480D01*
X124279017Y-99174715D01*
X124278238Y-99173549D01*
X124381720Y-99277031D01*
X124762126Y-99434600D01*
X125173874Y-99434600D01*
X125554280Y-99277031D01*
X125845431Y-98985880D01*
X126003000Y-98605474D01*
X126003000Y-98193726D01*
X125845431Y-97813320D01*
X125591687Y-97559576D01*
X125945476Y-97205786D01*
X126017285Y-97157805D01*
X126162990Y-96939743D01*
X126207362Y-96873336D01*
X126231432Y-96752329D01*
X126309051Y-96784480D01*
X126599610Y-96784480D01*
X126758360Y-96625730D01*
X126758360Y-95026480D01*
X126738360Y-95026480D01*
X126738360Y-94772480D01*
X126758360Y-94772480D01*
X126758360Y-93173230D01*
X126599610Y-93014480D01*
X126532260Y-93014480D01*
X126532260Y-92873244D01*
X126554495Y-92761461D01*
X126507377Y-92524580D01*
X126466406Y-92318606D01*
X126391101Y-92205904D01*
X126580199Y-91922898D01*
X126695452Y-91343480D01*
X126580199Y-90764062D01*
X126368880Y-90447800D01*
X127789000Y-90447800D01*
X127789000Y-93205095D01*
X127789000Y-93205095D01*
G37*
X127789000Y-93205095D02*
X127695058Y-93111153D01*
X127461669Y-93014480D01*
X127171110Y-93014480D01*
X127012360Y-93173230D01*
X127012360Y-94772480D01*
X127032360Y-94772480D01*
X127032360Y-95026480D01*
X127012360Y-95026480D01*
X127012360Y-96625730D01*
X127171110Y-96784480D01*
X127461669Y-96784480D01*
X127695058Y-96687807D01*
X127789000Y-96593865D01*
X127789001Y-101575700D01*
X127596270Y-101382969D01*
X127215864Y-101225400D01*
X126804116Y-101225400D01*
X126423710Y-101382969D01*
X126132559Y-101674120D01*
X125974990Y-102054526D01*
X125974990Y-102466274D01*
X126100942Y-102770349D01*
X126053443Y-102841435D01*
X126004160Y-103089200D01*
X126004160Y-103589200D01*
X126053443Y-103836965D01*
X126193791Y-104047009D01*
X126256934Y-104089200D01*
X126193791Y-104131391D01*
X126053443Y-104341435D01*
X126004160Y-104589200D01*
X126004160Y-104894480D01*
X125697110Y-104894480D01*
X125538360Y-105053230D01*
X125538360Y-106202480D01*
X125558360Y-106202480D01*
X125558360Y-106456480D01*
X125538360Y-106456480D01*
X125538360Y-106476480D01*
X125284360Y-106476480D01*
X125284360Y-106456480D01*
X125264360Y-106456480D01*
X125264360Y-106202480D01*
X125284360Y-106202480D01*
X125284360Y-105053230D01*
X125125610Y-104894480D01*
X124785051Y-104894480D01*
X124762148Y-104903967D01*
X124320396Y-104462215D01*
X124328300Y-104422480D01*
X124328300Y-103372480D01*
X124279017Y-103124715D01*
X124260819Y-103097480D01*
X124279017Y-103070245D01*
X124328300Y-102822480D01*
X124328300Y-101226467D01*
X124548925Y-101182582D01*
X124833395Y-100992505D01*
X125023472Y-100708035D01*
X125090218Y-100372480D01*
X125023472Y-100036925D01*
X124833395Y-99752455D01*
X124548925Y-99562378D01*
X124328300Y-99518493D01*
X124328300Y-99422480D01*
X124279017Y-99174715D01*
X124278238Y-99173549D01*
X124381720Y-99277031D01*
X124762126Y-99434600D01*
X125173874Y-99434600D01*
X125554280Y-99277031D01*
X125845431Y-98985880D01*
X126003000Y-98605474D01*
X126003000Y-98193726D01*
X125845431Y-97813320D01*
X125591687Y-97559576D01*
X125945476Y-97205786D01*
X126017285Y-97157805D01*
X126162990Y-96939743D01*
X126207362Y-96873336D01*
X126231432Y-96752329D01*
X126309051Y-96784480D01*
X126599610Y-96784480D01*
X126758360Y-96625730D01*
X126758360Y-95026480D01*
X126738360Y-95026480D01*
X126738360Y-94772480D01*
X126758360Y-94772480D01*
X126758360Y-93173230D01*
X126599610Y-93014480D01*
X126532260Y-93014480D01*
X126532260Y-92873244D01*
X126554495Y-92761461D01*
X126507377Y-92524580D01*
X126466406Y-92318606D01*
X126391101Y-92205904D01*
X126580199Y-91922898D01*
X126695452Y-91343480D01*
X126580199Y-90764062D01*
X126368880Y-90447800D01*
X127789000Y-90447800D01*
X127789000Y-93205095D01*
G36*
X121516600Y-130746500D02*
X121496600Y-130746500D01*
X121496600Y-131442500D01*
X121588350Y-131442500D01*
X121655350Y-131509500D01*
X121845909Y-131509500D01*
X122007661Y-131442500D01*
X122195850Y-131442500D01*
X122354600Y-131283750D01*
X122354600Y-131188190D01*
X122315792Y-131094500D01*
X122354600Y-131000810D01*
X122354600Y-130905250D01*
X122195852Y-130746502D01*
X122354600Y-130746502D01*
X122354600Y-130727400D01*
X122704600Y-130727400D01*
X122704600Y-130746502D01*
X122863348Y-130746502D01*
X122704600Y-130905250D01*
X122704600Y-131000810D01*
X122738349Y-131082288D01*
X122692160Y-131314500D01*
X122692160Y-131824500D01*
X122741443Y-132072265D01*
X122881791Y-132282309D01*
X123091835Y-132422657D01*
X123230664Y-132450272D01*
X123089035Y-132478443D01*
X122997698Y-132539473D01*
X122996498Y-132538273D01*
X122763109Y-132441600D01*
X122522550Y-132441600D01*
X122363800Y-132600350D01*
X122363800Y-133324600D01*
X122383800Y-133324600D01*
X122383800Y-133504400D01*
X122089800Y-133504400D01*
X122089800Y-133324600D01*
X122109800Y-133324600D01*
X122109800Y-132600350D01*
X121951050Y-132441600D01*
X121889123Y-132441600D01*
X122079298Y-132362827D01*
X122257927Y-132184199D01*
X122354600Y-131950810D01*
X122354600Y-131855250D01*
X122195850Y-131696500D01*
X121496600Y-131696500D01*
X121496600Y-131716500D01*
X121242600Y-131716500D01*
X121242600Y-131696500D01*
X121222600Y-131696500D01*
X121222600Y-131442500D01*
X121242600Y-131442500D01*
X121242600Y-130746500D01*
X121222600Y-130746500D01*
X121222600Y-130571940D01*
X121516600Y-130571940D01*
X121516600Y-130746500D01*
X121516600Y-130746500D01*
G37*
X121516600Y-130746500D02*
X121496600Y-130746500D01*
X121496600Y-131442500D01*
X121588350Y-131442500D01*
X121655350Y-131509500D01*
X121845909Y-131509500D01*
X122007661Y-131442500D01*
X122195850Y-131442500D01*
X122354600Y-131283750D01*
X122354600Y-131188190D01*
X122315792Y-131094500D01*
X122354600Y-131000810D01*
X122354600Y-130905250D01*
X122195852Y-130746502D01*
X122354600Y-130746502D01*
X122354600Y-130727400D01*
X122704600Y-130727400D01*
X122704600Y-130746502D01*
X122863348Y-130746502D01*
X122704600Y-130905250D01*
X122704600Y-131000810D01*
X122738349Y-131082288D01*
X122692160Y-131314500D01*
X122692160Y-131824500D01*
X122741443Y-132072265D01*
X122881791Y-132282309D01*
X123091835Y-132422657D01*
X123230664Y-132450272D01*
X123089035Y-132478443D01*
X122997698Y-132539473D01*
X122996498Y-132538273D01*
X122763109Y-132441600D01*
X122522550Y-132441600D01*
X122363800Y-132600350D01*
X122363800Y-133324600D01*
X122383800Y-133324600D01*
X122383800Y-133504400D01*
X122089800Y-133504400D01*
X122089800Y-133324600D01*
X122109800Y-133324600D01*
X122109800Y-132600350D01*
X121951050Y-132441600D01*
X121889123Y-132441600D01*
X122079298Y-132362827D01*
X122257927Y-132184199D01*
X122354600Y-131950810D01*
X122354600Y-131855250D01*
X122195850Y-131696500D01*
X121496600Y-131696500D01*
X121496600Y-131716500D01*
X121242600Y-131716500D01*
X121242600Y-131696500D01*
X121222600Y-131696500D01*
X121222600Y-131442500D01*
X121242600Y-131442500D01*
X121242600Y-130746500D01*
X121222600Y-130746500D01*
X121222600Y-130571940D01*
X121516600Y-130571940D01*
X121516600Y-130746500D01*
G36*
X123580363Y-130572704D02*
X123802048Y-130616800D01*
X123802052Y-130616800D01*
X123836600Y-130623672D01*
X123836600Y-130667060D01*
X123542600Y-130667060D01*
X123542600Y-130571940D01*
X123579220Y-130571940D01*
X123580363Y-130572704D01*
X123580363Y-130572704D01*
G37*
X123580363Y-130572704D02*
X123802048Y-130616800D01*
X123802052Y-130616800D01*
X123836600Y-130623672D01*
X123836600Y-130667060D01*
X123542600Y-130667060D01*
X123542600Y-130571940D01*
X123579220Y-130571940D01*
X123580363Y-130572704D01*
M02*
