G04 #@! TF.GenerationSoftware,KiCad,Pcbnew,(2018-02-16 revision c95340fba)-makepkg*
G04 #@! TF.CreationDate,2018-04-24T18:33:14+02:00*
G04 #@! TF.ProjectId,lmd,6C6D642E6B696361645F706362000000,rev?*
G04 #@! TF.SameCoordinates,Original*
G04 #@! TF.FileFunction,Legend,Bot*
G04 #@! TF.FilePolarity,Positive*
%FSLAX46Y46*%
G04 Gerber Fmt 4.6, Leading zero omitted, Abs format (unit mm)*
G04 Created by KiCad (PCBNEW (2018-02-16 revision c95340fba)-makepkg) date 04/24/18 18:33:14*
%MOMM*%
%LPD*%
G01*
G04 APERTURE LIST*
%ADD10C,0.250000*%
%ADD11C,0.200000*%
%ADD12C,0.100000*%
%ADD13C,0.150000*%
%ADD14C,0.300000*%
%ADD15C,0.120000*%
G04 APERTURE END LIST*
D10*
X125885485Y-93740266D02*
X125409295Y-93740266D01*
X125980723Y-94025980D02*
X125647390Y-93025980D01*
X125314057Y-94025980D01*
X124456914Y-94025980D02*
X125028342Y-94025980D01*
X124742628Y-94025980D02*
X124742628Y-93025980D01*
X124837866Y-93168838D01*
X124933104Y-93264076D01*
X125028342Y-93311695D01*
X123345485Y-93740266D02*
X122869295Y-93740266D01*
X123440723Y-94025980D02*
X123107390Y-93025980D01*
X122774057Y-94025980D01*
X122488342Y-93121219D02*
X122440723Y-93073600D01*
X122345485Y-93025980D01*
X122107390Y-93025980D01*
X122012152Y-93073600D01*
X121964533Y-93121219D01*
X121916914Y-93216457D01*
X121916914Y-93311695D01*
X121964533Y-93454552D01*
X122535961Y-94025980D01*
X121916914Y-94025980D01*
X120445161Y-93502171D02*
X120302304Y-93549790D01*
X120254685Y-93597409D01*
X120207066Y-93692647D01*
X120207066Y-93835504D01*
X120254685Y-93930742D01*
X120302304Y-93978361D01*
X120397542Y-94025980D01*
X120778495Y-94025980D01*
X120778495Y-93025980D01*
X120445161Y-93025980D01*
X120349923Y-93073600D01*
X120302304Y-93121219D01*
X120254685Y-93216457D01*
X120254685Y-93311695D01*
X120302304Y-93406933D01*
X120349923Y-93454552D01*
X120445161Y-93502171D01*
X120778495Y-93502171D01*
X119826114Y-93121219D02*
X119778495Y-93073600D01*
X119683257Y-93025980D01*
X119445161Y-93025980D01*
X119349923Y-93073600D01*
X119302304Y-93121219D01*
X119254685Y-93216457D01*
X119254685Y-93311695D01*
X119302304Y-93454552D01*
X119873733Y-94025980D01*
X119254685Y-94025980D01*
X117955961Y-93502171D02*
X117813104Y-93549790D01*
X117765485Y-93597409D01*
X117717866Y-93692647D01*
X117717866Y-93835504D01*
X117765485Y-93930742D01*
X117813104Y-93978361D01*
X117908342Y-94025980D01*
X118289295Y-94025980D01*
X118289295Y-93025980D01*
X117955961Y-93025980D01*
X117860723Y-93073600D01*
X117813104Y-93121219D01*
X117765485Y-93216457D01*
X117765485Y-93311695D01*
X117813104Y-93406933D01*
X117860723Y-93454552D01*
X117955961Y-93502171D01*
X118289295Y-93502171D01*
X116765485Y-94025980D02*
X117336914Y-94025980D01*
X117051200Y-94025980D02*
X117051200Y-93025980D01*
X117146438Y-93168838D01*
X117241676Y-93264076D01*
X117336914Y-93311695D01*
D11*
X122123200Y-112979200D02*
X122123200Y-110236000D01*
D12*
X120621447Y-112613923D02*
X121021447Y-112613923D01*
X121021447Y-112518685D01*
X121002400Y-112461542D01*
X120964304Y-112423447D01*
X120926209Y-112404400D01*
X120850019Y-112385352D01*
X120792876Y-112385352D01*
X120716685Y-112404400D01*
X120678590Y-112423447D01*
X120640495Y-112461542D01*
X120621447Y-112518685D01*
X120621447Y-112613923D01*
X120659542Y-111985352D02*
X120640495Y-112004400D01*
X120621447Y-112061542D01*
X120621447Y-112099638D01*
X120640495Y-112156780D01*
X120678590Y-112194876D01*
X120716685Y-112213923D01*
X120792876Y-112232971D01*
X120850019Y-112232971D01*
X120926209Y-112213923D01*
X120964304Y-112194876D01*
X121002400Y-112156780D01*
X121021447Y-112099638D01*
X121021447Y-112061542D01*
X121002400Y-112004400D01*
X120983352Y-111985352D01*
X120621447Y-111813923D02*
X121021447Y-111813923D01*
X120735733Y-111680590D01*
X121021447Y-111547257D01*
X120621447Y-111547257D01*
X120621447Y-111356780D02*
X121021447Y-111356780D01*
X121021447Y-111261542D01*
X121002400Y-111204400D01*
X120964304Y-111166304D01*
X120926209Y-111147257D01*
X120850019Y-111128209D01*
X120792876Y-111128209D01*
X120716685Y-111147257D01*
X120678590Y-111166304D01*
X120640495Y-111204400D01*
X120621447Y-111261542D01*
X120621447Y-111356780D01*
X120621447Y-110747257D02*
X120621447Y-110975828D01*
X120621447Y-110861542D02*
X121021447Y-110861542D01*
X120964304Y-110899638D01*
X120926209Y-110937733D01*
X120907161Y-110975828D01*
X120659542Y-110575828D02*
X120640495Y-110556780D01*
X120621447Y-110575828D01*
X120640495Y-110594876D01*
X120659542Y-110575828D01*
X120621447Y-110575828D01*
X121021447Y-110309161D02*
X121021447Y-110271066D01*
X121002400Y-110232971D01*
X120983352Y-110213923D01*
X120945257Y-110194876D01*
X120869066Y-110175828D01*
X120773828Y-110175828D01*
X120697638Y-110194876D01*
X120659542Y-110213923D01*
X120640495Y-110232971D01*
X120621447Y-110271066D01*
X120621447Y-110309161D01*
X120640495Y-110347257D01*
X120659542Y-110366304D01*
X120697638Y-110385352D01*
X120773828Y-110404400D01*
X120869066Y-110404400D01*
X120945257Y-110385352D01*
X120983352Y-110366304D01*
X121002400Y-110347257D01*
X121021447Y-110309161D01*
D13*
X121400914Y-112247314D02*
X121372342Y-112275885D01*
X121343771Y-112361600D01*
X121343771Y-112418742D01*
X121372342Y-112504457D01*
X121429485Y-112561600D01*
X121486628Y-112590171D01*
X121600914Y-112618742D01*
X121686628Y-112618742D01*
X121800914Y-112590171D01*
X121858057Y-112561600D01*
X121915200Y-112504457D01*
X121943771Y-112418742D01*
X121943771Y-112361600D01*
X121915200Y-112275885D01*
X121886628Y-112247314D01*
X121515200Y-112018742D02*
X121515200Y-111733028D01*
X121343771Y-112075885D02*
X121943771Y-111875885D01*
X121343771Y-111675885D01*
X121343771Y-111475885D02*
X121943771Y-111475885D01*
X121343771Y-111133028D01*
X121943771Y-111133028D01*
D14*
X122030228Y-113814171D02*
X120815942Y-113814171D01*
X120673085Y-113742742D01*
X120601657Y-113671314D01*
X120530228Y-113528457D01*
X120530228Y-113242742D01*
X120601657Y-113099885D01*
X120673085Y-113028457D01*
X120815942Y-112957028D01*
X122030228Y-112957028D01*
D12*
X123409161Y-111680647D02*
X123409161Y-112080647D01*
X123542495Y-111794933D01*
X123675828Y-112080647D01*
X123675828Y-111680647D01*
X124094876Y-111718742D02*
X124075828Y-111699695D01*
X124018685Y-111680647D01*
X123980590Y-111680647D01*
X123923447Y-111699695D01*
X123885352Y-111737790D01*
X123866304Y-111775885D01*
X123847257Y-111852076D01*
X123847257Y-111909219D01*
X123866304Y-111985409D01*
X123885352Y-112023504D01*
X123923447Y-112061600D01*
X123980590Y-112080647D01*
X124018685Y-112080647D01*
X124075828Y-112061600D01*
X124094876Y-112042552D01*
X124456780Y-111680647D02*
X124266304Y-111680647D01*
X124266304Y-112080647D01*
X124818685Y-111680647D02*
X124685352Y-111871123D01*
X124590114Y-111680647D02*
X124590114Y-112080647D01*
X124742495Y-112080647D01*
X124780590Y-112061600D01*
X124799638Y-112042552D01*
X124818685Y-112004457D01*
X124818685Y-111947314D01*
X124799638Y-111909219D01*
X124780590Y-111890171D01*
X124742495Y-111871123D01*
X124590114Y-111871123D01*
X123710761Y-114519047D02*
X123958380Y-114519047D01*
X123825047Y-114366666D01*
X123882190Y-114366666D01*
X123920285Y-114347619D01*
X123939333Y-114328571D01*
X123958380Y-114290476D01*
X123958380Y-114195238D01*
X123939333Y-114157142D01*
X123920285Y-114138095D01*
X123882190Y-114119047D01*
X123767904Y-114119047D01*
X123729809Y-114138095D01*
X123710761Y-114157142D01*
X124072666Y-114519047D02*
X124206000Y-114119047D01*
X124339333Y-114519047D01*
X124434571Y-114519047D02*
X124682190Y-114519047D01*
X124548857Y-114366666D01*
X124606000Y-114366666D01*
X124644095Y-114347619D01*
X124663142Y-114328571D01*
X124682190Y-114290476D01*
X124682190Y-114195238D01*
X124663142Y-114157142D01*
X124644095Y-114138095D01*
X124606000Y-114119047D01*
X124491714Y-114119047D01*
X124453619Y-114138095D01*
X124434571Y-114157142D01*
X123850438Y-117040000D02*
X123812342Y-117059047D01*
X123755200Y-117059047D01*
X123698057Y-117040000D01*
X123659961Y-117001904D01*
X123640914Y-116963809D01*
X123621866Y-116887619D01*
X123621866Y-116830476D01*
X123640914Y-116754285D01*
X123659961Y-116716190D01*
X123698057Y-116678095D01*
X123755200Y-116659047D01*
X123793295Y-116659047D01*
X123850438Y-116678095D01*
X123869485Y-116697142D01*
X123869485Y-116830476D01*
X123793295Y-116830476D01*
X124040914Y-116659047D02*
X124040914Y-117059047D01*
X124269485Y-116659047D01*
X124269485Y-117059047D01*
X124459961Y-116659047D02*
X124459961Y-117059047D01*
X124555200Y-117059047D01*
X124612342Y-117040000D01*
X124650438Y-117001904D01*
X124669485Y-116963809D01*
X124688533Y-116887619D01*
X124688533Y-116830476D01*
X124669485Y-116754285D01*
X124650438Y-116716190D01*
X124612342Y-116678095D01*
X124555200Y-116659047D01*
X124459961Y-116659047D01*
X123726628Y-119249847D02*
X123726628Y-119649847D01*
X123821866Y-119649847D01*
X123879009Y-119630800D01*
X123917104Y-119592704D01*
X123936152Y-119554609D01*
X123955200Y-119478419D01*
X123955200Y-119421276D01*
X123936152Y-119345085D01*
X123917104Y-119306990D01*
X123879009Y-119268895D01*
X123821866Y-119249847D01*
X123726628Y-119249847D01*
X124107580Y-119364133D02*
X124298057Y-119364133D01*
X124069485Y-119249847D02*
X124202819Y-119649847D01*
X124336152Y-119249847D01*
X124412342Y-119649847D02*
X124640914Y-119649847D01*
X124526628Y-119249847D02*
X124526628Y-119649847D01*
X126253904Y-123453542D02*
X126234857Y-123434495D01*
X126177714Y-123415447D01*
X126139619Y-123415447D01*
X126082476Y-123434495D01*
X126044380Y-123472590D01*
X126025333Y-123510685D01*
X126006285Y-123586876D01*
X126006285Y-123644019D01*
X126025333Y-123720209D01*
X126044380Y-123758304D01*
X126082476Y-123796400D01*
X126139619Y-123815447D01*
X126177714Y-123815447D01*
X126234857Y-123796400D01*
X126253904Y-123777352D01*
X126615809Y-123415447D02*
X126425333Y-123415447D01*
X126425333Y-123815447D01*
X126749142Y-123415447D02*
X126749142Y-123815447D01*
X126977714Y-123415447D02*
X126806285Y-123644019D01*
X126977714Y-123815447D02*
X126749142Y-123586876D01*
X124558400Y-122326361D02*
X124577447Y-122364457D01*
X124577447Y-122421600D01*
X124558400Y-122478742D01*
X124520304Y-122516838D01*
X124482209Y-122535885D01*
X124406019Y-122554933D01*
X124348876Y-122554933D01*
X124272685Y-122535885D01*
X124234590Y-122516838D01*
X124196495Y-122478742D01*
X124177447Y-122421600D01*
X124177447Y-122383504D01*
X124196495Y-122326361D01*
X124215542Y-122307314D01*
X124348876Y-122307314D01*
X124348876Y-122383504D01*
X124177447Y-122135885D02*
X124577447Y-122135885D01*
X124177447Y-121907314D01*
X124577447Y-121907314D01*
X124177447Y-121716838D02*
X124577447Y-121716838D01*
X124577447Y-121621600D01*
X124558400Y-121564457D01*
X124520304Y-121526361D01*
X124482209Y-121507314D01*
X124406019Y-121488266D01*
X124348876Y-121488266D01*
X124272685Y-121507314D01*
X124234590Y-121526361D01*
X124196495Y-121564457D01*
X124177447Y-121621600D01*
X124177447Y-121716838D01*
X123409047Y-122497790D02*
X123409047Y-122250171D01*
X123256666Y-122383504D01*
X123256666Y-122326361D01*
X123237619Y-122288266D01*
X123218571Y-122269219D01*
X123180476Y-122250171D01*
X123085238Y-122250171D01*
X123047142Y-122269219D01*
X123028095Y-122288266D01*
X123009047Y-122326361D01*
X123009047Y-122440647D01*
X123028095Y-122478742D01*
X123047142Y-122497790D01*
X123275714Y-122116838D02*
X123009047Y-122021600D01*
X123275714Y-121926361D01*
X123409047Y-121812076D02*
X123409047Y-121564457D01*
X123256666Y-121697790D01*
X123256666Y-121640647D01*
X123237619Y-121602552D01*
X123218571Y-121583504D01*
X123180476Y-121564457D01*
X123085238Y-121564457D01*
X123047142Y-121583504D01*
X123028095Y-121602552D01*
X123009047Y-121640647D01*
X123009047Y-121754933D01*
X123028095Y-121793028D01*
X123047142Y-121812076D01*
X121758095Y-122507314D02*
X121739047Y-122450171D01*
X121739047Y-122354933D01*
X121758095Y-122316838D01*
X121777142Y-122297790D01*
X121815238Y-122278742D01*
X121853333Y-122278742D01*
X121891428Y-122297790D01*
X121910476Y-122316838D01*
X121929523Y-122354933D01*
X121948571Y-122431123D01*
X121967619Y-122469219D01*
X121986666Y-122488266D01*
X122024761Y-122507314D01*
X122062857Y-122507314D01*
X122100952Y-122488266D01*
X122120000Y-122469219D01*
X122139047Y-122431123D01*
X122139047Y-122335885D01*
X122120000Y-122278742D01*
X121739047Y-122107314D02*
X122139047Y-122107314D01*
X122139047Y-122012076D01*
X122120000Y-121954933D01*
X122081904Y-121916838D01*
X122043809Y-121897790D01*
X121967619Y-121878742D01*
X121910476Y-121878742D01*
X121834285Y-121897790D01*
X121796190Y-121916838D01*
X121758095Y-121954933D01*
X121739047Y-122012076D01*
X121739047Y-122107314D01*
X121853333Y-121726361D02*
X121853333Y-121535885D01*
X121739047Y-121764457D02*
X122139047Y-121631123D01*
X121739047Y-121497790D01*
X120589695Y-122497790D02*
X120570647Y-122440647D01*
X120570647Y-122345409D01*
X120589695Y-122307314D01*
X120608742Y-122288266D01*
X120646838Y-122269219D01*
X120684933Y-122269219D01*
X120723028Y-122288266D01*
X120742076Y-122307314D01*
X120761123Y-122345409D01*
X120780171Y-122421600D01*
X120799219Y-122459695D01*
X120818266Y-122478742D01*
X120856361Y-122497790D01*
X120894457Y-122497790D01*
X120932552Y-122478742D01*
X120951600Y-122459695D01*
X120970647Y-122421600D01*
X120970647Y-122326361D01*
X120951600Y-122269219D01*
X120608742Y-121869219D02*
X120589695Y-121888266D01*
X120570647Y-121945409D01*
X120570647Y-121983504D01*
X120589695Y-122040647D01*
X120627790Y-122078742D01*
X120665885Y-122097790D01*
X120742076Y-122116838D01*
X120799219Y-122116838D01*
X120875409Y-122097790D01*
X120913504Y-122078742D01*
X120951600Y-122040647D01*
X120970647Y-121983504D01*
X120970647Y-121945409D01*
X120951600Y-121888266D01*
X120932552Y-121869219D01*
X120570647Y-121507314D02*
X120570647Y-121697790D01*
X120970647Y-121697790D01*
D14*
X116313828Y-121038228D02*
X115599542Y-121038228D01*
X115599542Y-122538228D01*
X116813828Y-121038228D02*
X116813828Y-122538228D01*
X117528114Y-121038228D02*
X117528114Y-122538228D01*
X118385257Y-121038228D01*
X118385257Y-122538228D01*
X115849542Y-117539200D02*
X115706685Y-117610628D01*
X115492400Y-117610628D01*
X115278114Y-117539200D01*
X115135257Y-117396342D01*
X115063828Y-117253485D01*
X114992400Y-116967771D01*
X114992400Y-116753485D01*
X115063828Y-116467771D01*
X115135257Y-116324914D01*
X115278114Y-116182057D01*
X115492400Y-116110628D01*
X115635257Y-116110628D01*
X115849542Y-116182057D01*
X115920971Y-116253485D01*
X115920971Y-116753485D01*
X115635257Y-116753485D01*
X116563828Y-116110628D02*
X116563828Y-117610628D01*
X117420971Y-116110628D01*
X117420971Y-117610628D01*
X118135257Y-116110628D02*
X118135257Y-117610628D01*
X118492400Y-117610628D01*
X118706685Y-117539200D01*
X118849542Y-117396342D01*
X118920971Y-117253485D01*
X118992400Y-116967771D01*
X118992400Y-116753485D01*
X118920971Y-116467771D01*
X118849542Y-116324914D01*
X118706685Y-116182057D01*
X118492400Y-116110628D01*
X118135257Y-116110628D01*
X115708228Y-111132228D02*
X114851085Y-111132228D01*
X115279657Y-111132228D02*
X115279657Y-112632228D01*
X115136800Y-112417942D01*
X114993942Y-112275085D01*
X114851085Y-112203657D01*
X116279657Y-112489371D02*
X116351085Y-112560800D01*
X116493942Y-112632228D01*
X116851085Y-112632228D01*
X116993942Y-112560800D01*
X117065371Y-112489371D01*
X117136800Y-112346514D01*
X117136800Y-112203657D01*
X117065371Y-111989371D01*
X116208228Y-111132228D01*
X117136800Y-111132228D01*
X117565371Y-112632228D02*
X118065371Y-111132228D01*
X118565371Y-112632228D01*
D15*
X101954800Y-125162400D02*
X101954800Y-109262400D01*
X107004800Y-125162400D02*
X101954800Y-125162400D01*
X106754800Y-124662400D02*
X107004800Y-125162400D01*
X112154800Y-124662400D02*
X106754800Y-124662400D01*
X111904800Y-125162400D02*
X112154800Y-124662400D01*
X113904800Y-125162400D02*
X111904800Y-125162400D01*
X113604800Y-124662400D02*
X113904800Y-125162400D01*
X114554800Y-124662400D02*
X113604800Y-124662400D01*
X114554800Y-109262400D02*
X114554800Y-124662400D01*
X101954800Y-109262400D02*
X114554800Y-109262400D01*
X122759200Y-114320400D02*
X120979200Y-114320400D01*
X120979200Y-118140400D02*
X120979200Y-114320400D01*
X122759200Y-118140400D02*
X120979200Y-118140400D01*
X122759200Y-114320400D02*
X122759200Y-118140400D01*
X127695000Y-110430000D02*
X126365000Y-110430000D01*
X127695000Y-111760000D02*
X127695000Y-110430000D01*
X127695000Y-113030000D02*
X125035000Y-113030000D01*
X125035000Y-113030000D02*
X125035000Y-123250000D01*
X127695000Y-113030000D02*
X127695000Y-123250000D01*
X127695000Y-123250000D02*
X125035000Y-123250000D01*
D12*
X110575752Y-117875066D02*
X110861466Y-117875066D01*
X110918609Y-117856019D01*
X110956704Y-117817923D01*
X110975752Y-117760780D01*
X110975752Y-117722685D01*
X110575752Y-118027447D02*
X110575752Y-118275066D01*
X110728133Y-118141733D01*
X110728133Y-118198876D01*
X110747180Y-118236971D01*
X110766228Y-118256019D01*
X110804323Y-118275066D01*
X110899561Y-118275066D01*
X110937657Y-118256019D01*
X110956704Y-118236971D01*
X110975752Y-118198876D01*
X110975752Y-118084590D01*
X110956704Y-118046495D01*
X110937657Y-118027447D01*
X121186533Y-118678352D02*
X121186533Y-118964066D01*
X121205580Y-119021209D01*
X121243676Y-119059304D01*
X121300819Y-119078352D01*
X121338914Y-119078352D01*
X120996057Y-119078352D02*
X120996057Y-118678352D01*
X120843676Y-118678352D01*
X120805580Y-118697400D01*
X120786533Y-118716447D01*
X120767485Y-118754542D01*
X120767485Y-118811685D01*
X120786533Y-118849780D01*
X120805580Y-118868828D01*
X120843676Y-118887876D01*
X120996057Y-118887876D01*
X120386533Y-119078352D02*
X120615104Y-119078352D01*
X120500819Y-119078352D02*
X120500819Y-118678352D01*
X120538914Y-118735495D01*
X120577009Y-118773590D01*
X120615104Y-118792638D01*
X126145952Y-109296666D02*
X126431666Y-109296666D01*
X126488809Y-109277619D01*
X126526904Y-109239523D01*
X126545952Y-109182380D01*
X126545952Y-109144285D01*
X126545952Y-109696666D02*
X126545952Y-109468095D01*
X126545952Y-109582380D02*
X126145952Y-109582380D01*
X126203095Y-109544285D01*
X126241190Y-109506190D01*
X126260238Y-109468095D01*
M02*
